<?xml version="1.0" encoding="utf-8"?>
<!-- Generator: Adobe Illustrator 23.0.0, SVG Export Plug-In . SVG Version: 6.00 Build 0)  -->
<svg version="1.1" id="Layer_1" xmlns="http://www.w3.org/2000/svg" xmlns:xlink="http://www.w3.org/1999/xlink" x="0px" y="0px"
	 viewBox="0 0 139.82 127.14" style="enable-background:new 0 0 139.82 127.14;" xml:space="preserve">
<style type="text/css">
	.st0{fill:#EE7426;}
</style>
<g>
	<path class="st0" d="M91.41,7.75l0.06,0.02h38.03c1.07,0,1.93-0.87,1.93-1.93c0-1.07-0.86-1.93-1.93-1.93H91.81
		c-0.87-0.08-3.9-0.04-7,3.53c-2.84,3.27-18.68,22.13-19.35,22.94c-0.08,0.1-0.15,0.2-0.21,0.31H21.98v51.26h94.99V35.4l12.58-12.14
		c0.77-0.74,0.79-1.96,0.05-2.73c-0.74-0.77-1.97-0.79-2.73-0.05L98.95,47.43c-0.6,0.45-4.89,3.45-8.45-0.14
		c-3.6-3.64-0.13-9.95,0.24-10.61l9.96-13.67c0.63-0.86,0.44-2.07-0.42-2.7c-0.86-0.63-2.07-0.44-2.7,0.42L87.56,34.48l-0.09,0.13
		c-0.06,0.09-1.4,2.31-2.07,5.22c-0.96,4.13-0.15,7.65,2.35,10.17c2.12,2.14,4.46,2.89,6.65,2.89c2.91,0,5.54-1.33,7.01-2.49
		l0.07-0.06l11.62-11.21v38.93H25.84V34.54h58.09c1.07,0,1.93-0.87,1.93-1.93c0-1.07-0.86-1.93-1.93-1.93H70.24
		c4.37-5.2,15.23-18.12,17.48-20.71C89.59,7.82,91.12,7.74,91.41,7.75"/>
	<path class="st0" d="M111.62,98.79c-1.86-0.53-3.45-0.18-3.59-0.15l-23.27,5.11c0.3-1.42,0.23-2.8-0.24-4.12
		c-1.37-3.88-5.64-5.57-5.82-5.64l-35.04-7.98L8.93,97.13c-1.02,0.32-1.58,1.41-1.25,2.43c0.32,1.02,1.41,1.58,2.43,1.25
		l33.71-10.79l33.58,7.63c0.53,0.23,2.8,1.34,3.47,3.29c0.39,1.11,0.18,2.36-0.6,3.8l-2.91,0.64l-25.51-3.57
		c-1.06-0.15-2.03,0.59-2.18,1.65s0.59,2.03,1.65,2.18l26.2,3.66l31.35-6.89c0.53-0.11,3.2-0.48,4.33,3.11
		c1.08,3.45-1.71,5.1-2.58,5.53l-48.1,10.41l-33.08-9.91l-19.92,7.17c-1.01,0.36-1.53,1.47-1.17,2.47c0.36,1,1.47,1.53,2.47,1.16
		l18.72-6.73l32.81,9.83l49.28-10.67l0.18-0.04l0.17-0.07c2.48-1.05,6.7-4.56,4.91-10.3C115.73,100.67,113.38,99.29,111.62,98.79"/>
	<path class="st0" d="M63.61,73.41c1.07,0,1.93-0.86,1.93-1.93v-12.2h4.92l0.17-0.01c2.85-0.25,7.97-2.1,9.06-7.22h3.82
		c1.07,0,1.93-0.87,1.93-1.93c0-1.07-0.87-1.93-1.93-1.93h-3.78c-0.49-2.61-2.08-4.64-4.59-5.83c-2.14-1.01-4.22-1.07-4.48-1.08
		h-8.98v6.9h-3.61c-1.07,0-1.93,0.87-1.93,1.93c0,1.07,0.86,1.93,1.93,1.93h3.61v19.43C61.67,72.55,62.54,73.41,63.61,73.41
		 M65.54,45.14h5.08c0.02,0,1.53,0.05,2.95,0.75c1.67,0.83,2.45,2.13,2.45,4.11c0,2-0.86,3.45-2.64,4.42
		c-1.33,0.73-2.73,0.95-3.04,0.98h-4.81V45.14z"/>
</g>
</svg>
