<?xml version="1.0" encoding="utf-8"?>
<!-- Generator: Adobe Illustrator 23.0.0, SVG Export Plug-In . SVG Version: 6.00 Build 0)  -->
<svg version="1.1" id="Layer_1" xmlns="http://www.w3.org/2000/svg" xmlns:xlink="http://www.w3.org/1999/xlink" x="0px" y="0px"
	 viewBox="0 0 17.63 17.31" style="enable-background:new 0 0 17.63 17.31;" xml:space="preserve">
<style type="text/css">
	.st0{fill:#F17126;}
</style>
<path class="st0" d="M15.46,0H2.49c-1.2,0-2.18,0.98-2.18,2.17v12.97c0,1.2,0.98,2.17,2.18,2.17h12.97c1.2,0,2.17-0.98,2.17-2.17
	V2.17C17.63,0.97,16.65,0,15.46,0 M14.94,10.15c-0.48,0.95-1.22,1.6-2.28,1.85c-0.39,0.09-0.78,0.13-1.17,0.05
	c-0.66-0.14-1.09-0.59-1.2-1.26c-0.01-0.06-0.02-0.12-0.04-0.2c-0.04,0.05-0.07,0.09-0.09,0.13c-0.41,0.59-0.92,1.06-1.63,1.26
	c-0.52,0.15-1.05,0.18-1.55-0.05c-0.61-0.27-0.94-0.79-1.08-1.41c-0.27-1.24-0.05-2.4,0.57-3.5c0.5-0.88,1.23-1.51,2.19-1.85
	c0.92-0.32,1.85-0.31,2.77-0.02c0.29,0.09,0.57,0.21,0.85,0.32c0.08,0.03,0.09,0.07,0.08,0.15C12.23,6.41,12.11,7.2,11.98,8
	c-0.08,0.51-0.17,1.03-0.24,1.54c-0.03,0.22-0.03,0.44-0.01,0.65c0.03,0.34,0.29,0.51,0.67,0.47c0.41-0.05,0.73-0.26,0.98-0.57
	c0.33-0.4,0.5-0.86,0.59-1.36c0.17-0.9,0.16-1.8-0.13-2.68c-0.45-1.39-1.4-2.27-2.81-2.63C9.36,3,7.79,3.25,6.37,4.26
	c-1,0.71-1.65,1.69-2,2.86c-0.39,1.3-0.43,2.61,0.01,3.91c0.5,1.5,1.54,2.46,3.07,2.86c1.27,0.33,2.53,0.26,3.78-0.12
	c0.15-0.05,0.29-0.11,0.45-0.17c0.09,0.36,0.18,0.72,0.28,1.1c-0.28,0.1-0.56,0.21-0.85,0.29c-0.44,0.13-0.9,0.2-1.36,0.21
	c-0.05,0-0.1,0.02-0.15,0.02H8.14c-0.24-0.03-0.47-0.06-0.71-0.1c-2.34-0.39-4.14-2.1-4.63-4.42C2.2,7.81,3.41,4.57,6.18,2.99
	c0.84-0.48,1.74-0.76,2.7-0.87c0.87-0.1,1.73-0.06,2.58,0.16c2.1,0.54,3.62,2.13,3.97,4.24C15.64,7.78,15.53,9,14.94,10.15"/>
<path class="st0" d="M9.34,6.72c-0.58,0.15-1.02,0.5-1.33,1c-0.43,0.67-0.62,1.4-0.4,2.19c0.2,0.72,0.93,1,1.54,0.49
	c0.53-0.45,0.82-1.04,0.95-1.7c0.09-0.47,0.14-0.94,0.21-1.41c0.03-0.21,0.06-0.41,0.09-0.63C10.02,6.66,9.68,6.63,9.34,6.72"/>
</svg>
