<?xml version="1.0" encoding="utf-8"?>
<!-- Generator: Adobe Illustrator 23.0.0, SVG Export Plug-In . SVG Version: 6.00 Build 0)  -->
<svg version="1.1" id="Layer_1" xmlns="http://www.w3.org/2000/svg" xmlns:xlink="http://www.w3.org/1999/xlink" x="0px" y="0px"
	 viewBox="0 0 17.3 17.31" style="enable-background:new 0 0 17.3 17.31;" xml:space="preserve">
<style type="text/css">
	.st0{fill:#F17126;}
</style>
<path class="st0" d="M15.14,0H2.17C0.97,0,0,0.98,0,2.17v12.97c0,1.2,0.98,2.17,2.17,2.17H8.7v-6.57H8.53c-0.61,0-1.21,0-1.82,0
	c-0.12,0-0.15-0.03-0.15-0.15c0-0.88,0-1.75,0-2.63c0-0.11,0.04-0.14,0.14-0.14c0.61,0,1.21,0,1.82,0h0.17c0-0.06,0-0.11,0-0.15
	c0-0.36-0.01-0.72,0-1.08c0.05-1.14,0.48-2.11,1.35-2.86c0.57-0.49,1.24-0.74,2-0.74c0.7,0,1.39,0,2.08,0h0.17
	c0,0.05,0.01,0.09,0.01,0.14c0,0.88,0,1.75,0,2.63c0,0.12-0.04,0.15-0.15,0.15c-0.68,0-1.36,0.02-2.04-0.01
	c-0.44-0.02-0.67,0.29-0.69,0.61c-0.03,0.43-0.01,0.87-0.01,1.32h2.88v2.91h-2.88c-0.01,0.06-0.01,0.1-0.01,0.14
	c0,2.11,0,4.21,0,6.32c0,0.04,0.01,0.07,0.01,0.11h3.72c1.2,0,2.17-0.98,2.17-2.17V2.17C17.32,0.97,16.34,0,15.14,0"/>
</svg>
