<?xml version="1.0" encoding="utf-8"?>
<!-- Generator: Adobe Illustrator 23.0.0, SVG Export Plug-In . SVG Version: 6.00 Build 0)  -->
<svg version="1.1" id="Layer_1" xmlns="http://www.w3.org/2000/svg" xmlns:xlink="http://www.w3.org/1999/xlink" x="0px" y="0px"
	 viewBox="0 0 188.57 127.14" style="enable-background:new 0 0 188.57 127.14;" xml:space="preserve">
<style type="text/css">
	.st0{fill:#EE7426;}
</style>
<g>
	<path class="st0" d="M44.7,56.05H14.43c-1.11,0-2,0.9-2,2c0,1.11,0.9,2,2,2H44.7c1.11,0,2-0.9,2-2
		C46.7,56.95,45.81,56.05,44.7,56.05"/>
	<path class="st0" d="M40.47,78.31H10.2c-1.11,0-2,0.9-2,2c0,1.11,0.9,2,2,2h30.27c1.11,0,2-0.9,2-2
		C42.47,79.2,41.58,78.31,40.47,78.31"/>
	<path class="st0" d="M34.91,99.28H4.64c-1.11,0-2,0.9-2,2c0,1.11,0.9,2,2,2h30.27c1.11,0,2-0.9,2-2
		C36.91,100.18,36.01,99.28,34.91,99.28"/>
	<path class="st0" d="M105.66,34.08l9.88,3.51c0.22,0.08,0.45,0.12,0.67,0.12c0.82,0,1.6-0.51,1.89-1.33
		c0.37-1.04-0.18-2.19-1.22-2.56l-8.52-3.02l-6.6-11.1c-0.57-0.95-1.79-1.26-2.75-0.7c-0.95,0.57-1.26,1.8-0.7,2.75L105.66,34.08z"
		/>
	<path class="st0" d="M177.84,62.06c-0.15-1.3-1.43-8.39-11.33-8.39h-11.98c0.26-2.29,0.18-5.66-1.79-8.32
		c-1.89-2.55-5-3.85-9.23-3.85H132.2c1-2.83,1.54-5.86,1.54-9.02c0-15.01-12.21-27.21-27.21-27.21c-15.01,0-27.21,12.21-27.21,27.21
		c0,3.16,0.55,6.2,1.54,9.02H67.7c-0.89-0.12-4.29-0.4-7.3,1.68c-2.34,1.62-3.84,4.21-4.46,7.69c-1.62,9.15-7.39,59.52-7.64,61.66
		l-0.26,2.23h30.02c0.93,4.71,5.1,8.27,10.08,8.27c4.98,0,9.14-3.56,10.08-8.27h45.3c0,0,0,0,0.01,0c0,0,0,0,0,0h3.21
		c0.93,4.71,5.1,8.27,10.08,8.27c4.98,0,9.14-3.56,10.08-8.27h11.64l3.52-28.13L177.84,62.06z M165.18,57.68h1.33
		c6.81,0,7.31,4.3,7.35,4.76l0.01,0.13l3.78,22.12h-8.31l-6.76-4.35L165.18,57.68z M106.53,9.28c12.8,0,23.21,10.41,23.21,23.21
		c0,3.39-0.73,6.6-2.04,9.5c-0.42,0.35-0.69,0.87-0.71,1.45c-3.92,7.29-11.62,12.26-20.45,12.26c-12.8,0-23.21-10.41-23.21-23.21
		C83.32,19.69,93.73,9.28,106.53,9.28 M94.07,114.77c-0.84,2.48-3.18,4.27-5.93,4.27c-2.54,0-4.71-1.53-5.7-3.71l-0.02,0
		c-0.06-0.15-0.11-0.29-0.17-0.43c-0.02-0.04-0.04-0.08-0.05-0.13h0.01c-1.01-2.95,0.38-4.91,0.38-4.91h0
		c1.05-1.99,3.14-3.36,5.54-3.36c2.76,0,5.1,1.79,5.93,4.27C94.81,112.35,94.07,114.77,94.07,114.77 M141.79,110.76H98.21
		c-0.93-4.71-5.1-8.27-10.08-8.27c-4.98,0-9.14,3.56-10.08,8.27H52.53c0.32-2.73,0.9-7.76,1.6-13.78h89.73L141.79,110.76z
		 M54.61,92.98c1.87-15.81,4.32-36.07,5.27-41.4c0.53-2.99,1.88-4.92,4-5.72c1.69-0.64,3.3-0.37,3.3-0.37l0.18,0.03h15.28
		c4.63,8.45,13.6,14.18,23.89,14.18c10.29,0,19.26-5.74,23.88-14.18h13.11c2.89,0,4.91,0.75,6,2.22c2.03,2.73,0.7,7.32,0.69,7.36
		l-0.79,2.59h0.38l-5.32,35.3H54.61z M162.74,114.77c-0.02,0.06-0.05,0.12-0.08,0.18c-0.08,0.23-0.13,0.36-0.13,0.36l-0.02,0
		c-0.98,2.19-3.16,3.73-5.7,3.73c-2.31,0-4.31-1.26-5.39-3.12h-0.02c-0.02-0.04-0.04-0.08-0.06-0.12c-0.07-0.13-0.14-0.27-0.2-0.41
		c-0.05-0.11-0.09-0.21-0.14-0.32c-0.04-0.1-0.09-0.19-0.13-0.3h0.01c-1.08-3.05,0.51-5.16,0.51-5.16l0.02,0
		c1.09-1.86,3.09-3.12,5.39-3.12c2.6,0,4.82,1.61,5.77,3.87l0.02,0c0.03,0.07,0.05,0.15,0.08,0.22c0.02,0.06,0.05,0.11,0.07,0.17
		h-0.02c0.53,1.7,0.23,3.23,0,4.01H162.74z M174.98,110.76h-8.1c-0.93-4.71-5.1-8.27-10.08-8.27c-4.98,0-9.14,3.56-10.08,8.27h-0.89
		l2.23-14.81c0.16-0.29,0.26-0.62,0.26-0.97c0-0.15-0.02-0.29-0.05-0.43l5.56-36.87h7.3l-2.85,24.68l9.85,6.33h9.6L174.98,110.76z"
		/>
</g>
</svg>
