<?xml version="1.0" encoding="utf-8"?>
<!-- Generator: Adobe Illustrator 23.0.0, SVG Export Plug-In . SVG Version: 6.00 Build 0)  -->
<svg version="1.1" id="Layer_1" xmlns="http://www.w3.org/2000/svg" xmlns:xlink="http://www.w3.org/1999/xlink" x="0px" y="0px"
	 viewBox="0 0 17.32 17.32" style="enable-background:new 0 0 17.32 17.32;" xml:space="preserve">
<style type="text/css">
	.st0{fill:#F17126;}
</style>
<path class="st0" d="M13.65,8.33c0-0.02,0-0.03,0-0.05c0-1.21,0-2.43,0-3.64c0-0.06-0.01-0.13-0.02-0.19
	c-0.1-0.47-0.49-0.78-0.99-0.79c-0.54-0.01-1.08,0-1.63,0c-0.29,0-0.58,0.01-0.87,0.01c-0.61-0.02-1.22-0.01-1.83,0
	C8.24,3.65,8.15,3.66,8.06,3.66c-0.61,0-1.22,0-1.84,0.01c-0.55-0.02-1.1-0.01-1.66,0c-0.03,0-0.05,0.01-0.08,0.02
	C4.35,3.7,4.23,3.74,4.12,3.82C3.84,4,3.68,4.26,3.66,4.6c0,0.43,0,0.85,0,1.28c0,0.38,0,0.76,0,1.13c0,0.94,0,1.88,0,2.82
	c0,0.51,0,1.01,0,1.52c0,0.45-0.01,0.91,0,1.36c0.01,0.48,0.38,0.89,0.86,0.93c0.41,0.04,0.83,0.02,1.24,0.01
	c0.5,0.01,0.99,0.01,1.49,0c0.52,0.02,1.03,0.01,1.55,0c0.24,0.02,0.48,0.01,0.72,0.01c0.44,0,0.89,0,1.33-0.01
	c0.05,0.01,0.1,0.01,0.15,0c0.44,0,0.88,0.01,1.32,0.01c0.17,0,0.34,0.01,0.51-0.02c0.16-0.02,0.31-0.08,0.43-0.19
	c0.17-0.13,0.3-0.28,0.34-0.5c0.03-0.02,0.03-0.05,0.02-0.09c0-0.02,0-0.03,0-0.05c0.01-0.01,0.01-0.02,0.02-0.03
	c0.02-0.5,0.01-1,0-1.49c0-0.48,0-0.96,0-1.45C13.66,9.35,13.66,8.84,13.65,8.33 M11.75,9.34c-0.08,0.31-0.18,0.61-0.35,0.89
	c-0.01,0.02-0.01,0.04-0.02,0.05c-0.11,0.17-0.23,0.33-0.36,0.49c-0.15,0.16-0.31,0.29-0.47,0.43c-0.18,0.13-0.37,0.24-0.57,0.33
	c-0.04,0.02-0.09,0.02-0.1,0.07c-0.15,0-0.29,0.08-0.43,0.13c-0.03,0.01-0.05,0.01-0.08,0.01c-0.23,0.05-0.47,0.07-0.7,0.09
	c-0.22-0.02-0.46,0-0.67-0.06c-0.3-0.08-0.61-0.18-0.89-0.35C6,10.75,5.46,9.76,5.5,8.44c0-0.11,0.02-0.21,0.04-0.32
	c0.04-0.17,0.09-0.34,0.13-0.51c0,0,0-0.01,0-0.01c0.01-0.02,0.02-0.04,0.03-0.06c0.07-0.16,0.15-0.32,0.22-0.47L5.91,7.06
	c0.01-0.01,0.02-0.02,0.03-0.02c0.12-0.19,0.26-0.36,0.4-0.53c0.02-0.01,0.03-0.02,0.03-0.05l0,0l0,0c0.01,0,0.02-0.01,0.02-0.02
	l0,0l0,0c0.02,0,0.02-0.01,0.02-0.02l0.01,0.01c0.15-0.12,0.3-0.25,0.45-0.37c0.18-0.1,0.37-0.21,0.55-0.31
	c0.02,0,0.03-0.01,0.03-0.03l0,0.01l0.01,0c0.24-0.06,0.48-0.15,0.73-0.19c1.58-0.21,2.92,0.71,3.42,1.99
	C11.84,8.11,11.87,8.72,11.75,9.34 M12.88,5.75l-0.01,0l0,0c-0.01,0-0.02,0.01-0.03,0.03c-0.18,0.19-0.39,0.29-0.66,0.29
	c-0.05,0-0.1-0.04-0.15-0.03c-0.23-0.1-0.4-0.26-0.5-0.49c0.01-0.04,0-0.07-0.03-0.09V5.42c0-0.31,0.1-0.56,0.36-0.73
	c0.02-0.01,0.03-0.02,0.05-0.04l0,0c0.02,0,0.03,0,0.03-0.03l0,0.01l0.01,0c0.46-0.18,0.83,0.08,0.96,0.36
	c0.12,0.26,0.09,0.51-0.06,0.74c0,0,0,0,0,0.01C12.87,5.75,12.87,5.75,12.88,5.75"/>
<path class="st0" d="M12.49,4.86c-0.01,0-0.01-0.01-0.01-0.01l-0.01,0c-0.02-0.03-0.05-0.03-0.08-0.03v0.01
	c-0.09-0.05-0.17-0.03-0.27-0.02c-0.22,0.06-0.37,0.22-0.39,0.43C11.72,5.47,11.81,5.67,12,5.77c0.19,0.1,0.42,0.08,0.59-0.06
	C12.86,5.49,12.81,5.04,12.49,4.86"/>
<path class="st0" d="M11,9.22c-0.1-0.03-0.21-0.05-0.32-0.02c-0.2-0.02-0.38,0.06-0.55,0.17c-0.1,0.06-0.18,0.14-0.26,0.24
	c-0.11,0.13-0.18,0.28-0.23,0.44c-0.03,0.07-0.04,0.15-0.04,0.22c-0.01,0.04-0.02,0.08-0.02,0.12c0,0.27,0.07,0.52,0.21,0.74
	c0.15,0.22,0.33,0.39,0.58,0.47l0,0c0.01,0.02,0.04,0.01,0.06,0.02c0.16,0.05,0.33,0.05,0.49,0.02c0.13-0.02,0.26-0.07,0.37-0.15
	c0.01-0.01,0.02-0.01,0.02-0.02c0.01,0,0.01-0.01,0.02-0.01c0.09-0.06,0.17-0.13,0.23-0.22c0.09-0.1,0.15-0.23,0.2-0.35
	c0,0,0-0.01,0-0.01l0,0c0-0.01,0.01-0.02,0.01-0.03c0,0,0,0,0-0.01c0-0.01,0.01-0.03,0.01-0.04c0-0.02,0.01-0.03,0.01-0.05
	c0-0.01,0.01-0.01,0.01-0.02C11.99,10.07,11.61,9.37,11,9.22"/>
<path class="st0" d="M15.14,0H2.17C0.98,0,0,0.98,0,2.17v12.97c0,1.2,0.98,2.17,2.17,2.17h12.97c1.2,0,2.17-0.98,2.17-2.17V2.17
	C17.32,0.98,16.34,0,15.14,0 M14.93,9.44c0,0.41,0,0.82,0,1.23c0,0.59,0,1.17,0,1.76c0,0.25-0.01,0.51-0.06,0.75
	c-0.08,0.27-0.19,0.53-0.34,0.76c-0.12,0.16-0.25,0.31-0.4,0.44c-0.18,0.14-0.38,0.26-0.58,0.36h0c0,0-0.02,0-0.02,0.01
	c-0.19,0.07-0.38,0.12-0.58,0.15c-0.04,0.01-0.08,0.01-0.12,0.01c-0.02,0-0.05,0-0.07,0c-0.22,0-0.43,0-0.65,0
	c-0.24,0-0.48,0-0.72,0c-0.48,0-0.96,0-1.45,0c-0.67,0-1.35,0-2.03,0c-0.55,0-1.09,0-1.64,0c-0.46,0-0.92,0-1.38,0
	c-0.28,0-0.55,0-0.82-0.08c-0.84-0.25-1.38-0.8-1.61-1.64c-0.06-0.2-0.07-0.4-0.07-0.6c0-0.48,0-0.96,0-1.44V9.71
	c0-0.49,0-0.98,0-1.47c0-0.6,0-1.19,0-1.79c0-0.53,0-1.06,0-1.59c0-0.14,0-0.27,0.01-0.41C2.43,4.27,2.46,4.08,2.52,3.9
	c0.07-0.19,0.17-0.35,0.26-0.53l-0.01,0C2.78,3.36,2.8,3.35,2.81,3.34c0.15-0.18,0.31-0.35,0.5-0.51c0.15-0.1,0.32-0.19,0.48-0.27
	c0.3-0.11,0.6-0.18,0.92-0.17c0.36,0,0.72,0,1.09,0c0.51,0,1.03,0,1.54,0h1.28c0.37,0,0.74,0,1.11,0c0.99,0,1.98,0,2.97,0.01
	c0.97,0,1.82,0.63,2.13,1.55c0.08,0.24,0.11,0.48,0.11,0.74c0,1.09,0,2.17,0,3.26c0,0.05,0,0.1,0,0.14
	C14.93,8.54,14.93,8.99,14.93,9.44"/>
</svg>
