<?xml version="1.0" encoding="utf-8"?>
<!-- Generator: Adobe Illustrator 23.0.0, SVG Export Plug-In . SVG Version: 6.00 Build 0)  -->
<svg version="1.1" id="Layer_1" xmlns="http://www.w3.org/2000/svg" xmlns:xlink="http://www.w3.org/1999/xlink" x="0px" y="0px"
	 viewBox="0 0 141.43 142.86" style="enable-background:new 0 0 141.43 142.86;" xml:space="preserve">
<style type="text/css">
	.st0{fill:#EE7426;}
</style>
<g>
	<path class="st0" d="M85.11,39.27h-3.55c-0.46-2.45-1.95-4.35-4.31-5.47c-2.01-0.95-3.96-1.01-4.2-1.01h-8.43v6.48h-3.39
		c-1,0-1.81,0.81-1.81,1.81c0,1,0.81,1.81,1.81,1.81h3.39v18.23c0,1,0.81,1.81,1.81,1.81c1,0,1.81-0.81,1.81-1.81V49.68h4.61
		l0.16-0.01c2.68-0.23,7.48-1.97,8.5-6.78h3.59c1,0,1.81-0.81,1.81-1.81C86.92,40.08,86.11,39.27,85.11,39.27 M75.61,45.13
		c-1.25,0.69-2.56,0.89-2.85,0.92h-4.51v-9.63h4.77c0.01,0,1.43,0.04,2.77,0.7c1.57,0.77,2.3,2,2.3,3.86
		C78.09,42.85,77.28,44.21,75.61,45.13"/>
	<path class="st0" d="M96.64,104.63H86.63c-1,0-1.81,0.81-1.81,1.81s0.81,1.81,1.81,1.81h10.01c1,0,1.81-0.81,1.81-1.81
		S97.64,104.63,96.64,104.63"/>
	<path class="st0" d="M96.64,114.17H86.63c-1,0-1.81,0.81-1.81,1.81s0.81,1.81,1.81,1.81h10.01c1,0,1.81-0.81,1.81-1.81
		S97.64,114.17,96.64,114.17"/>
	<path class="st0" d="M125.98,53.17h-7.23c0.44-1.56,0.7-3.32,0.7-5.31c0-1-0.81-1.81-1.81-1.81c-1,0-1.81,0.81-1.81,1.81
		c0,10.81-8.84,12.29-9.83,12.43H92.54c3.69-4.72,5.9-10.65,5.9-17.1c0-1.79-0.17-3.56-0.51-5.3h8.57c1,0,1.81-0.81,1.81-1.81
		c0-1-0.81-1.81-1.81-1.81H86.36l-0.1,0c-0.02,0-1.92,0.07-3.2-1.16c-0.89-0.85-1.34-2.21-1.34-4.02c0-1.62,0.44-2.84,1.34-3.74
		c1.72-1.71,4.6-1.71,4.65-1.7h17.22c0.99,0.12,9.99,1.55,10.9,12.58c0.08,1,0.96,1.74,1.96,1.66c1-0.08,1.74-0.96,1.66-1.96
		c-0.16-1.95-0.54-3.65-1.06-5.16h7.6c1,0,1.81-0.81,1.81-1.81c0-1-0.81-1.81-1.81-1.81h-9.38c-4.16-6.33-11.31-7.1-11.41-7.11
		l-0.08-0.01H87.74c-0.06,0-0.67-0.01-1.54,0.12c-4.6-3.11-9.96-4.75-15.55-4.75c-15.33,0-27.8,12.47-27.8,27.8
		c0,8.54,3.87,16.18,9.94,21.29h-3.43c-0.55-0.04-2.38-0.03-3.99,1.4c-1.59,1.41-2.39,3.67-2.39,6.73v6.38l-5.91,0
		c-6.53,0-10.46,3.26-12.67,6.98h-8.95c-1,0-1.81,0.81-1.81,1.81c0,1,0.81,1.81,1.81,1.81h7.33c-0.48,1.5-0.73,2.93-0.81,4.12
		c-0.06,1,0.7,1.85,1.69,1.92c1,0.06,1.86-0.69,1.93-1.69c0.03-0.46,0.89-11.33,11.49-11.33h21c0.29,0.03,1.75,0.22,3.15,0.98
		C63.09,84.6,64,86.15,64,88.32c0,1.54-0.4,2.66-1.21,3.42c-1.44,1.35-3.81,1.21-3.82,1.21l-20.29-0.01c-1,0-1.81,0.81-1.81,1.81
		c0,1,0.81,1.81,1.81,1.81h4.3v22.84h-5.64c-4.1,0-7.31-2.05-9.53-6.09c-1.76-3.2-2.23-6.5-2.24-6.58
		c-0.13-0.99-1.04-1.69-2.03-1.56c-0.99,0.13-1.69,1.04-1.56,2.04c0.17,1.28,0.53,2.82,1.1,4.43h-7.63c-1,0-1.81,0.81-1.81,1.81
		c0,1,0.81,1.81,1.81,1.81h9.3c2.37,4.11,6.36,7.75,12.59,7.75h6.25c0.3,0.74,0.73,1.49,1.36,2.18c1.39,1.5,3.34,2.26,5.81,2.26
		h49.76l0.07-0.01c2.53-0.18,7.32-2.48,7.32-9.87V69.18c0-1-0.81-1.81-1.81-1.81c-1,0-1.81,0.81-1.81,1.81v48.42
		c0,5.53-3.37,6.18-3.92,6.24h-49.6c-1.41,0-2.47-0.36-3.14-1.08c-1.13-1.21-1.03-3.14-1.03-3.15l0.01-23.05h12.16
		c0.1,0,0.25,0.01,0.45,0.01c1.17,0,3.93-0.23,6.02-2.16c1.19-1.1,1.94-2.54,2.24-4.28h2.16c0.08,0.01,0.18,0.01,0.3,0.01
		c0.7,0,2.08-0.15,3.26-1.19c1.19-1.05,1.79-2.64,1.79-4.71V70.65c5.39-0.85,10.27-3.25,14.17-6.73h17.05l0.09-0.01
		c3.1-0.32,8.07-2.25,10.93-7.11h8.76c1,0,1.81-0.81,1.81-1.81C127.79,53.98,126.98,53.17,125.98,53.17 M54.6,78.99l-7.99,0V72.6
		c0-1.91,0.39-3.29,1.14-3.98c0.56-0.52,1.21-0.53,1.35-0.53l5.51,0.01V78.99z M71.36,84.23c0,0.95-0.2,1.65-0.55,1.98
		c-0.32,0.3-0.79,0.3-0.86,0.3h-0.01l-2.46-0.01c-0.97-5.46-6.26-7.32-9.19-7.52h-0.06V68.05c3.74,1.88,7.96,2.94,12.42,2.94
		c0.24,0,0.47-0.01,0.71-0.02V84.23z M70.65,67.37c-13.33,0-24.18-10.84-24.18-24.17c0-13.33,10.84-24.17,24.18-24.17
		c3.93,0,7.72,0.93,11.15,2.72c-0.44,0.29-0.87,0.62-1.27,1.02c-1.62,1.59-2.44,3.72-2.44,6.34c0,2.87,0.84,5.12,2.51,6.68
		c2.06,1.93,4.65,2.12,5.56,2.12c0.1,0,0.19,0,0.24-0.01h7.83c0.39,1.73,0.59,3.51,0.59,5.3C94.82,56.52,83.98,67.37,70.65,67.37"/>
</g>
</svg>
