<?xml version="1.0" encoding="utf-8"?>
<!-- Generator: Adobe Illustrator 23.0.0, SVG Export Plug-In . SVG Version: 6.00 Build 0)  -->
<svg version="1.1" id="Layer_1" xmlns="http://www.w3.org/2000/svg" xmlns:xlink="http://www.w3.org/1999/xlink" x="0px" y="0px"
	 viewBox="0 0 141.43 142.86" style="enable-background:new 0 0 141.43 142.86;" xml:space="preserve">
<style type="text/css">
	.st0{fill:#EE7426;}
</style>
<g>
	<path class="st0" d="M72.67,73.99c13.5,0,24.48-10.98,24.48-24.48S86.17,25.02,72.67,25.02S48.19,36.01,48.19,49.51
		S59.17,73.99,72.67,73.99 M72.67,28.65c11.5,0,20.86,9.36,20.86,20.86c0,11.5-9.36,20.86-20.86,20.86s-20.86-9.36-20.86-20.86
		C51.81,38.01,61.17,28.65,72.67,28.65"/>
	<path class="st0" d="M30.41,121.94h84.3L95.35,94.62H83.27l19.56-36.16c0.01-0.01,0.01-0.02,0.01-0.03
		c0.04-0.08,0.07-0.16,0.1-0.24c0.01-0.03,0.02-0.05,0.03-0.08c0-0.01,0-0.01,0.01-0.01c0.79-2.78,1.18-5.67,1.18-8.59
		c0-17.36-14.13-31.49-31.49-31.49c-17.36,0-31.49,14.13-31.49,31.49c0,2.92,0.4,5.8,1.18,8.59c0,0.01,0.01,0.01,0.01,0.02
		c0.02,0.05,0.04,0.1,0.06,0.16c0.02,0.06,0.05,0.13,0.08,0.19c0,0.01,0,0.01,0.01,0.02l19.91,36.15H50.38L30.41,121.94z
		 M72.67,21.64c15.36,0,27.86,12.5,27.86,27.86c0,2.52-0.34,5.01-1,7.42l-26.61,49.21L45.81,56.92c-0.66-2.4-1-4.89-1-7.41
		C44.81,34.14,57.31,21.64,72.67,21.64 M64.43,98.25l8.51,15.46l8.36-15.46h12.17l14.22,20.07H37.55l14.67-20.07H64.43z"/>
</g>
</svg>
