<?xml version="1.0" encoding="utf-8"?>
<!-- Generator: Adobe Illustrator 23.0.0, SVG Export Plug-In . SVG Version: 6.00 Build 0)  -->
<svg version="1.1" id="Layer_1" xmlns="http://www.w3.org/2000/svg" xmlns:xlink="http://www.w3.org/1999/xlink" x="0px" y="0px"
	 viewBox="0 0 141.43 142.86" style="enable-background:new 0 0 141.43 142.86;" xml:space="preserve">
<style type="text/css">
	.st0{fill:#EE7426;}
</style>
<g>
	<path class="st0" d="M117.49,27.01H95.64v-6.45c0-1-0.81-1.81-1.81-1.81c-1,0-1.81,0.81-1.81,1.81v6.45H58.37v-6.45
		c0-1-0.81-1.81-1.81-1.81s-1.81,0.81-1.81,1.81v6.45H32.69c-4.28,0-7.76,3.48-7.76,7.76v81.57c0,4.28,3.48,7.76,7.76,7.76h84.8
		c4.28,0,7.76-3.48,7.76-7.76V34.77C125.26,30.49,121.77,27.01,117.49,27.01 M32.69,30.63h22.05v6.04c0,1,0.81,1.81,1.81,1.81
		s1.81-0.81,1.81-1.81v-6.04h33.64v6.04c0,1,0.81,1.81,1.81,1.81c1,0,1.81-0.81,1.81-1.81v-6.04h21.85c2.28,0,4.14,1.86,4.14,4.14
		v21.65H28.56V34.77C28.56,32.49,30.41,30.63,32.69,30.63 M117.49,120.48h-84.8c-2.28,0-4.14-1.86-4.14-4.14v-56.3h93.07v56.3
		C121.63,118.63,119.77,120.48,117.49,120.48"/>
	<polygon class="st0" points="37.43,84.93 44.83,84.93 44.83,84.98 38.18,97.98 42.18,97.98 48.84,84.21 48.84,81.83 37.43,81.83 	
		"/>
	<path class="st0" d="M68.64,82.9c-1.62-1.22-3.68-1.79-6.86-1.79c-1.91,0-3.73,0.12-5.12,0.35v16.45c0.94,0.12,2.34,0.25,4.3,0.25
		c3.28,0,5.96-0.7,7.73-2.16c1.61-1.37,2.78-3.58,2.78-6.78C71.47,86.25,70.38,84.19,68.64,82.9 M61.78,95.2
		c-0.47,0-0.99,0-1.32-0.07V84.16c0.32-0.07,0.87-0.15,1.71-0.15c3.26,0,5.29,1.84,5.27,5.32C67.45,93.33,65.21,95.22,61.78,95.2"/>
	<path class="st0" d="M77.46,81.23l-5.12,16.75h3.93l1.19-4.3h4.8l1.29,4.3h4.08l-5.19-16.75H77.46z M78.01,90.85L79,87.29
		c0.27-0.97,0.52-2.24,0.77-3.23h0.05c0.25,0.99,0.55,2.24,0.85,3.23l1.04,3.55H78.01z"/>
	<path class="st0" d="M94.74,85.26c-0.5,1.19-0.9,2.16-1.27,3.21h-0.05c-0.42-1.09-0.77-1.99-1.29-3.21l-1.72-4.03h-4.32l5.29,9.89
		v6.86h3.78V91l5.52-9.77h-4.25L94.74,85.26z"/>
	<path class="st0" d="M108.28,88.04c-2.16-0.82-3.11-1.29-3.11-2.36c0-0.87,0.79-1.62,2.43-1.62s2.83,0.47,3.5,0.79l0.85-3.06
		c-0.99-0.45-2.39-0.84-4.27-0.84c-3.95,0-6.34,2.19-6.34,5.04c0,2.43,1.81,3.98,4.6,4.95c2.01,0.72,2.81,1.32,2.81,2.36
		c0,1.09-0.92,1.81-2.66,1.81c-1.61,0-3.18-0.52-4.2-1.04l-0.77,3.13c0.95,0.52,2.83,1.02,4.75,1.02c4.6,0,6.76-2.39,6.76-5.19
		C112.63,90.67,111.24,89.13,108.28,88.04"/>
</g>
</svg>
