<?xml version="1.0" encoding="utf-8"?>
<!-- Generator: Adobe Illustrator 23.0.0, SVG Export Plug-In . SVG Version: 6.00 Build 0)  -->
<svg version="1.1" id="Layer_1" xmlns="http://www.w3.org/2000/svg" xmlns:xlink="http://www.w3.org/1999/xlink" x="0px" y="0px"
	 viewBox="0 0 1679.08 595.28" style="enable-background:new 0 0 1679.08 595.28;" xml:space="preserve">
<style type="text/css">
	.st0{fill:#FFFFFF;}
	.st1{opacity:0.27;}
	.st2{clip-path:url(#SVGID_2_);fill:#0E727E;}
	.st3{clip-path:url(#SVGID_4_);fill:#0E727E;}
	.st4{clip-path:url(#SVGID_6_);fill:#0E727E;}
	.st5{clip-path:url(#SVGID_8_);fill:#0E727E;}
	.st6{clip-path:url(#SVGID_10_);fill:#0E727E;}
	.st7{clip-path:url(#SVGID_12_);fill:#0E727E;}
	.st8{clip-path:url(#SVGID_14_);fill:#0E727E;}
	.st9{clip-path:url(#SVGID_16_);fill:#0E727E;}
	.st10{clip-path:url(#SVGID_18_);fill:#0E727E;}
	.st11{clip-path:url(#SVGID_20_);fill:#0E727E;}
	.st12{clip-path:url(#SVGID_22_);fill:#0E727E;}
	.st13{clip-path:url(#SVGID_24_);fill:#0E727E;}
	.st14{clip-path:url(#SVGID_26_);fill:#0E727E;}
	.st15{clip-path:url(#SVGID_28_);fill:#0E727E;}
	.st16{clip-path:url(#SVGID_30_);fill:#0E727E;}
	.st17{clip-path:url(#SVGID_32_);fill:#0E727E;}
	.st18{clip-path:url(#SVGID_34_);fill:#0E727E;}
	.st19{clip-path:url(#SVGID_36_);fill:#0E727E;}
	.st20{clip-path:url(#SVGID_38_);fill:#0E727E;}
	.st21{clip-path:url(#SVGID_40_);fill:#0E727E;}
	.st22{clip-path:url(#SVGID_42_);fill:#0E727E;}
	.st23{clip-path:url(#SVGID_44_);fill:#0E727E;}
	.st24{clip-path:url(#SVGID_46_);fill:#0E727E;}
	.st25{clip-path:url(#SVGID_48_);fill:#0E727E;}
	.st26{clip-path:url(#SVGID_50_);fill:#0E727E;}
	.st27{clip-path:url(#SVGID_52_);fill:#0E727E;}
	.st28{clip-path:url(#SVGID_54_);fill:#0E727E;}
	.st29{clip-path:url(#SVGID_56_);fill:#0E727E;}
	.st30{clip-path:url(#SVGID_58_);fill:#0E727E;}
	.st31{clip-path:url(#SVGID_60_);fill:#0E727E;}
	.st32{clip-path:url(#SVGID_62_);fill:#0E727E;}
	.st33{clip-path:url(#SVGID_64_);fill:#0E727E;}
	.st34{clip-path:url(#SVGID_66_);fill:#0E727E;}
	.st35{clip-path:url(#SVGID_68_);fill:#0E727E;}
	.st36{clip-path:url(#SVGID_70_);fill:#0E727E;}
	.st37{clip-path:url(#SVGID_72_);fill:#0E727E;}
	.st38{clip-path:url(#SVGID_74_);fill:#0E727E;}
	.st39{clip-path:url(#SVGID_76_);fill:#0E727E;}
	.st40{clip-path:url(#SVGID_78_);fill:#0E727E;}
	.st41{clip-path:url(#SVGID_80_);fill:#0E727E;}
</style>
<rect x="2.81" y="0" class="st0" width="1373.51" height="585"/>
<g class="st1">
	<g>
		<g>
			<defs>
				<rect id="SVGID_1_" x="2.81" y="174.44" width="1373.51" height="147.12"/>
			</defs>
			<clipPath id="SVGID_2_">
				<use xlink:href="#SVGID_1_"  style="overflow:visible;"/>
			</clipPath>
			<path class="st2" d="M629.87,207.23c-4.66,1.94-9.29,4.11-13.77,6.21c-1.86,0.87-3.71,1.73-5.56,2.59l-0.35,0.16l0.15,0.36
				c1,2.49,2.21,3.99,3.69,4.6c2,0.82,4.19-0.14,6.31-1.06c1.24-0.54,2.53-1.1,3.78-1.32c-0.06,4.2,0.02,8.44,0.11,12.55
				c0.32,15.61,0.63,30.36-6.61,44.74l-0.23,0.45l6.44,1.76v40.78h-23.95v-17.04h14.57l-10.61-17.97l5.01-1.67l-8.93-15.36
				c0.85-0.66,1.36-1.6,1.54-2.8c0.51-3.5-1.95-8.79-6.58-14.13l-0.32-0.37l-0.31,0.38c-4.97,6.15-7.24,10.91-6.74,14.14
				c0.18,1.2,0.75,2.18,1.69,2.91l-9.17,15.72l5.28,1.16l-10.67,18.31h14.75v16.91h-18.76c0-3.2-0.01-6.38-0.03-9.54
				c-0.03-8.54-0.06-16.61,0.12-24.85c0.05-2.19-0.01-4.45-1.33-5.76c-0.78-0.77-1.92-1.17-3.48-1.19
				c0.66-12.03-2.67-18-11.08-19.93c-2.26-0.52-4.71-0.25-7.08,0.01c-2.54,0.28-4.93,0.54-7.12-0.07c-2.31-0.65-4.46-2.15-6.54-3.6
				c-2.14-1.49-4.35-3.03-6.79-3.72c-3.31-0.93-6.86-0.72-10.62-0.5c-1.51,0.09-3.07,0.18-4.63,0.19c0-1.02,0.01-2.09,0.02-3.2
				c0.03-3.1,0.05-6.61-0.06-10.07c-0.06-1.76-0.03-3.3,0.95-4.24c0.93-0.89,2.68-1.23,5.37-1.03l0.87,0.06l-0.5-0.71
				c-0.91-1.28-1.63-2.47-2.27-3.51c-1.21-1.97-2.17-3.53-3.57-4.5c-5.21-3.58-10.6-7.09-15.81-10.48
				c-5.17-3.37-10.52-6.85-15.68-10.4c-4.33-2.98-8.9-4.33-15.28-4.53c-2.42-0.08-4.94,0.09-7.37,0.25
				c-7.85,0.51-15.97,1.03-22.6-6.34l-0.34-0.37l-0.3,0.41c-4.72,6.46-10.97,6.37-17.57,6.28c-0.67-0.01-1.33-0.02-2-0.02
				c-1.3,0-2.61-0.03-3.91-0.06c-3.15-0.06-6.41-0.13-9.6,0.13c-2.34,0.19-5.66,0.75-8.2,2.34c-11.21,7.03-22.93,14.66-34.83,22.69
				c-1.67,1.13-3.45,3.7-3.43,5.74c0.01,1.16,1.24,2.14,2.67,3.28c0.57,0.45,1.15,0.92,1.67,1.41v17.97
				c-0.12-0.02-0.23-0.04-0.33-0.06c-0.39-0.07-0.67-0.13-0.86-0.25c-6.3-4.19-14.01-5.16-21.15-2.64
				c-6.85,2.41-12.16,7.72-14.2,14.21c-0.27,0.85-1.31,1.89-2.1,2.1c-15.29,4.03-19.48,9.37-19.48,24.85v29.47h-27.95v-44.7
				c1.85,0.55,3.26,0.55,4.3,0c1.49-0.79,1.98-2.56,2.45-4.27c0.24-0.86,0.48-1.75,0.85-2.52l0.18-0.39l-0.39-0.17
				c-1.6-0.69-3.3-1.24-4.96-1.78c-3.7-1.21-7.2-2.36-9.11-4.73c-1.77-2.19-1.97-5.8-2.19-9.61c-0.09-1.58-0.18-3.2-0.38-4.81
				c6.14,2.6,11.25,3.19,14.79,1.72c2.13-0.89,3.66-2.5,4.53-4.78c2.42-6.28,5.86-11.5,9.79-17.19c3.7-5.35,2.38-11.56-3.71-17.51
				c5.66-9.8,5.35-18.55-0.91-25.31c-6.42-6.93-14.55-7.87-25.6-2.96c-3.06,1.36-6.94,1.13-10.69,0.91
				c-0.75-0.04-1.48-0.09-2.21-0.12c-0.8-0.03-1.7-1.04-2.57-2c-0.33-0.37-0.68-0.76-1.02-1.08c-4.02-3.87-9.55-4.37-14.42-1.32
				c-4.13,2.59-5.86,6.92-4.87,12.18c1.4,7.42-1.54,14.11-7.87,17.89c-8.19,4.9-11.45,14.56-7.92,23.49
				c3.68,9.32,13.03,14.28,21.74,11.53c5.42-1.71,9.78-0.37,14.4,1.05c0.76,0.23,1.52,0.47,2.3,0.69v10.5
				c-1.42-0.6-2.81-1.16-4.16-1.71c-3.38-1.36-6.57-2.65-9.57-4.25c-3.74-1.99-7.08-1.94-11.54,0.17
				c-4.97,2.35-9.98,4.42-15.29,6.62c-2.04,0.84-4.11,1.7-6.19,2.57V214.9l8.58-0.95l-0.34-0.55c-1.52-2.5-3.06-4.92-4.55-7.26
				c-3.35-5.25-6.51-10.21-9.1-15.48c-3.95-8.01-9.13-10.93-16.81-9.47c-0.44,0.08-0.95,0-1.74-0.14c-0.49-0.08-1.07-0.18-1.79-0.27
				l-0.05,0.41l-2.11,0.05v-0.28h-14.61v0.64l-1.92,0.05v-0.41h-7.88c-7.11,0-14.21,0-21.32,0c-23.29,0.01-47.37,0.01-71.06-0.1
				c-3.41-0.03-6.08,0.73-8.19,4.41c-2.8,4.9-5.83,9.77-8.76,14.49c-1.64,2.64-3.34,5.38-4.98,8.09c-0.65,1.07-1.17,2.23-1.72,3.47
				c-0.27,0.61-0.56,1.24-0.87,1.91l-0.25,0.52l8.06,0.9v83.72c-1.24,0.37-2.47,0.82-3.65,1.26c-4.69,1.72-9.12,3.35-14.18,0.47
				c-1.57-0.9-4.22-0.22-6.6,0.56c-7.91,2.6-11.48,8.54-10.89,18.15l-4.42,0.87l0.18,1.6h1373.3l0.03-2.17h-17.11l0.01-19.25
				c0-9.96,0.01-19.93-0.01-29.89c-0.02-13.18-6.45-22.85-18.09-27.22c-11.07-4.16-22.43-1.08-31.19,8.45
				c-1.02,1.11-2.69,1.99-4.07,2.14c-4.01,0.44-8.08,0.69-12.38,0.96c-1.54,0.1-3.13,0.19-4.76,0.3c0.09-0.68,0.16-1.47,0.22-2.3
				c0.16-2.05,0.38-4.85,1.26-5.21c3.43-1.39,3.42-3.48,3.42-5.68v-0.45c0.02-5.5,0.01-11,0.01-16.5v-16.26l0.17-0.03l-0.17-0.14
				v-9.88h-6.38c-6.62,0-13.24-0.01-19.87-0.01c-18.1-0.02-36.82-0.04-55.23,0.16c-5.77,0.09-9.68-1.45-13.14-5.07
				c-1.94-2.03-4.05-3.82-6.29-5.73c-1-0.85-2.01-1.71-3.02-2.61l-0.27-0.24l-49.16,44.49l8.1,4.77v9.75l-14.9,1.46
				c-5.72-7.08-12.34-10.48-18.66-9.6c-7.02,0.99-13.24,7.12-17.54,17.28c-14.35,0.99-18.95,6.08-18.92,20.81
				c0.01,6.41,0.05,12.81,0.08,19.22c0.02,4.4,0.04,8.8,0.06,13.2c0.01,3.01,0.01,6.02,0,9.07v3.85h-33.29V277.9l9.56-0.57
				l-0.2-0.52c-1.52-4.02-3.12-8.01-4.66-11.86c-3.61-9.04-7.03-17.57-9.59-26.5c-3.14-10.93-8.84-14.75-19.07-12.79
				c-0.31,0.06-0.69-0.02-1.32-0.16c-0.3-0.07-0.66-0.14-1.08-0.22c0.17-0.57,0.33-1.13,0.48-1.66c0.39-1.41,0.73-2.63,1.3-3.74
				c0.99-1.96,1.18-3.39,0.59-4.38c-0.59-0.98-1.92-1.49-4.07-1.54c-3.79-0.09-7.6-0.04-10.82,0.03c-2.01,0.04-3.27,0.53-3.83,1.48
				c-0.57,0.96-0.38,2.32,0.58,4.16c0.62,1.19,1.02,2.51,1.48,4.04c0.18,0.59,0.36,1.2,0.57,1.84H924.1l-4.88-0.2h-3.97l-5.3,0.38
				h-3.76c-3.32,0-5.83-0.98-7.24-2.84c-1.42-1.86-1.71-4.53-0.83-7.74c2.29-8.38-2.34-16.9-10.78-19.81
				c-6.5-2.25-11.89,0.24-16.32,3.03c-0.4-0.31-0.8-0.63-1.18-0.93c-1-0.79-1.95-1.54-2.96-2.24c-9.47-6.55-22.47-5.64-30.25,2.1
				c-8.55,8.52-9.46,21.59-2.15,31.07c2.63,3.42,5.35,6.95,6.88,11.57c0.92,2.79,4.2,6.42,7.2,7.11c5.28,1.2,7.83,4.31,10.02,8.6
				c0.44,0.86,1.13,1.57,1.8,2.25c0.47,0.48,0.96,0.98,1.34,1.51c0.68,0.97,1.04,1.89,0.94,2.45c-1.27,7.55-2.63,15.11-4.07,23.11
				l-0.98,5.43c-0.28-0.57-0.54-1.12-0.79-1.63c-0.79-1.63-1.47-3.04-2.26-4.36c-2.64-4.4-4.15-8.5-2.97-14.16
				c1.93-9.27-6.2-18.36-14.7-20.71c-2.38-0.66-4.78-1.88-6.77-3.43c-5.65-4.42-14.05-4.42-19.54-0.02
				c-5.35,4.29-6.87,12.89-3.39,19.17c1.48,2.68,2.93,5.43,4.34,8.1c0.96,1.82,1.91,3.64,2.89,5.44c0.52,0.95,1.13,1.88,1.82,2.75
				c7.27,9.17,17.9,9.86,29.96,1.96c7.35,12.63,10.38,23.99,9.5,35.7h-56.91v-40c5.75,1.68,6.02,1.46,9.37-3.95l0.24-0.39l-0.41-0.2
				c-0.56-0.27-1.12-0.54-1.68-0.81c-1.19-0.58-2.38-1.16-3.57-1.71c-3.48-1.6-7.04-3.18-10.48-4.71
				c-7.86-3.5-15.99-7.11-23.73-11.14c-6.81-3.55-14.78-6.81-23.22-0.58c-0.36,0.27-0.88,0.39-1.53,0.54
				c-0.22,0.05-0.45,0.1-0.69,0.17v-37.91c1.4-0.03,2.91,0.76,4.37,1.52c1.93,1.01,3.92,2.05,5.83,1.34
				c1.44-0.53,2.63-2.01,3.64-4.52l0.14-0.34l-0.33-0.17c-0.27-0.14-0.53-0.28-0.79-0.42c-0.56-0.3-1.08-0.59-1.64-0.85
				c-5.65-2.64-11.42-5.28-17.01-7.83c-13.39-6.12-27.24-12.46-40.55-19.29c-9.81-5.04-17.51-4.99-25.74,0.16
				c-3.48,2.17-7.4,3.83-11.55,5.58c-1.84,0.77-3.73,1.57-5.7,2.46 M247.12,238.89l-0.81-0.17c-2.38-0.5-4.58-0.95-6.84-0.95
				c-1.66,0-3.37,0.25-5.22,0.9c-7.02,2.5-15.1-1.2-18.8-8.59c-3.6-7.21-1.32-16.59,4.88-20.07c5.35-3,8.47-6.65,10.11-11.81
				c0.34-1.06,1.03-2.06,1.77-3.11c0.37-0.53,0.76-1.09,1.13-1.69l0.13-0.21l-0.12-0.21c-0.17-0.3-0.35-0.6-0.53-0.91
				c-0.4-0.68-0.82-1.38-1.16-2.11c-2.11-4.53-1.03-9.11,2.68-11.38c4.1-2.51,9.18-1.45,11.83,2.47c1.64,2.43,3.24,3.68,6.15,2.45
				c0.1-0.04,0.22-0.06,0.33-0.05c6.56,0.62,12.31-0.34,18.09-3.03c6.79-3.16,14.14,0.76,17.89,6.26c4.62,6.77,4.03,13.35-1.9,21.33
				l-0.18,0.24l0.18,0.24c4.86,6.48,6.63,10.68,5.9,14.06c-0.66,3.09-3.39,5.76-9.14,8.95l-0.27,0.15l0.08,0.3
				c1.46,5.88,0.1,9.97-4.15,12.51c-5.35,3.19-10.1,1.67-15.39-4.92l-0.73-0.91v19.44c-8.6-1.19-9.47-2.24-9.17-10.1
				C254.07,242.8,253.11,240.12,247.12,238.89 M258.69,318.79H204.1l-0.01-0.26h54.6V318.79z M204.16,285.85h54.51l0.01,0.19h-54.51
				L204.16,285.85z M204.2,281.86h54.41V282H204.2V281.86z M204.08,289.83l0.01-0.24h54.68v0.24H204.08z M204.05,293.74h54.76V294
				h-54.76V293.74z M258.77,298.22h-54.63l-0.01-0.23h54.64V298.22z M204.12,302.36v-0.14h54.7l-0.01,0.14H204.12z M258.72,310.67
				h-54.61v-0.19h54.61V310.67z M204.22,306.46l0.01-0.18h54.32v0.18H204.22z M258.92,314.82h-54.91v-0.33h54.91V314.82z
				 M132.52,311.8c0,2.43-0.01,4.88-0.01,7.36h-18.04V283.9c1.24,0,2.48-0.01,3.73-0.03c3.86-0.04,7.85-0.07,11.75,0.19
				c0.78,0.05,2.41,1.96,2.43,3.07C132.55,295.25,132.54,303.29,132.52,311.8 M174.1,184.19c12.24-2.72,20.68,1.96,25.78,14.3
				c1.28,3.1,3.18,5.95,5.18,8.98c0.84,1.26,1.7,2.56,2.55,3.93H38.58c1.34-2.16,2.64-4.27,3.92-6.35
				c4.04-6.58,7.86-12.79,11.95-18.84c0.81-1.2,3.5-1.93,5.62-1.94c31.29-0.1,63.11-0.1,93.88-0.09h18.97
				c0.12,0,0.23,0.01,0.35,0.02C173.53,184.22,173.81,184.25,174.1,184.19 M54.91,314.22c0.18,2.06-0.09,3.39-0.85,4.21
				c-0.77,0.82-2.1,1.19-4.1,1.14c-5.7-0.13-11.34-0.19-16.77-0.19c-6.7,0-13.08,0.08-18.87,0.16c-1.66,0.02-2.72-0.25-3.34-0.88
				c-0.63-0.63-0.9-1.68-0.87-3.41c0.06-4.1,2.23-7.94,5.78-10.27c3.54-2.32,7.92-2.76,11.7-1.19c0.97,0.4,1.87,0.94,2.92,1.55
				c0.52,0.31,1.06,0.63,1.66,0.96l0.25,0.14l0.22-0.19c5.03-4.41,10-5.36,15.18-2.89C52.05,305.4,54.45,309.05,54.91,314.22
				 M201.06,278.91v40.26h-9.19v-5.83c0-4.79,0-9.51,0-14.23c0-2.25,0.02-4.5,0.04-6.74c0.05-5.22,0.09-10.62-0.09-15.93
				c-0.1-2.97,0.87-4.44,3.7-5.62c4.49-1.86,9.03-3.81,13.42-5.69c6.32-2.71,12.86-5.51,19.35-8.11c1.89-0.76,4.72-0.72,6.73,0.09
				c11.46,4.62,22.95,9.66,32.68,13.98c1.41,0.63,3.14,2.15,3.15,3.04c0.18,11.99,0.17,23.73,0.16,36.15c0,2.96-0.01,5.94-0.01,8.92
				h-8.6v-40.28h-61.34V278.91z M226.51,254.51c-7.19,3.22-14.56,6.36-21.68,9.41c-5.23,2.23-10.64,4.54-15.93,6.86
				c-1.58,0.69-2.5,0.83-3.1,0.48c-0.57-0.34-0.92-1.19-1.08-2.61c3.42-1.47,6.92-2.92,10.32-4.33c8.19-3.39,16.65-6.9,24.71-10.98
				c8.27-4.19,15.4-4.15,23.83,0.14c7.95,4.04,16.32,7.5,24.42,10.85c3.36,1.39,6.82,2.82,10.2,4.27c-0.17,1.42-0.53,2.28-1.11,2.62
				c-0.6,0.35-1.57,0.21-3.06-0.44c-5.06-2.22-10.24-4.42-15.24-6.55c-7.36-3.13-14.97-6.38-22.37-9.73
				C232.93,252.91,230.06,252.92,226.51,254.51 M111.35,281.8v37.33h-16v-5.72c0-3.34,0.01-6.68,0.02-10.03
				c0.03-8.74,0.05-17.77-0.09-26.66c-0.05-3.28,0.91-5.06,3.54-6.55c3.54-2.01,7.09-4.15,10.51-6.22
				c3.68-2.22,7.48-4.52,11.28-6.66c1.27-0.71,3.57-0.77,4.74-0.11c8.47,4.74,16.8,9.84,23.11,13.76c1.13,0.7,2.4,2.17,2.41,3.16
				c0.14,11.96,0.13,23.69,0.12,36.11v9.08h-15.72V281.8H111.35z M118.54,255.03c-6.77,4.25-13.77,8.43-20.54,12.46
				c-2.62,1.56-5.25,3.13-7.87,4.71c-1.3-0.82-1.93-1.51-1.92-2.13c0-0.61,0.63-1.29,1.87-2.02c3.7-2.19,7.38-4.41,11.07-6.62
				c6.52-3.91,13.27-7.95,19.95-11.84c0.62-0.36,1.52-0.55,2.35-0.55c0.63,0,1.22,0.11,1.61,0.34c8.85,5.15,17.78,10.53,26.41,15.72
				c2.31,1.39,4.63,2.78,6.94,4.17c-0.91,1.61-1.44,2.49-2,2.64c-0.55,0.14-1.4-0.35-3-1.31c-1.78-1.07-3.57-2.14-5.36-3.21
				c-6.73-4.02-13.69-8.18-20.38-12.51C124.48,252.81,122.01,252.85,118.54,255.03 M154.37,274.92c1.4,0.62,2.54,0.76,3.47,0.43
				c1.47-0.51,2.16-2.04,2.89-3.65c0.42-0.93,0.86-1.88,1.45-2.67l0.27-0.36l-0.39-0.24c-2.86-1.75-5.77-3.43-8.59-5.07
				c-6.55-3.79-12.73-7.38-18.5-11.73c-8.32-6.28-15.3-6.17-24.09,0.39c-5.63,4.2-11.68,7.63-18.09,11.27
				c-2.77,1.57-5.63,3.19-8.44,4.88L84,268.38l0.23,0.35c0.45,0.71,0.78,1.57,1.11,2.4c0.62,1.6,1.26,3.26,2.79,3.9
				c1.05,0.44,2.41,0.33,4.12-0.33v44.52H57.46c1.26-9.43-1.98-15.69-9.92-19.12c-0.78-0.34-1.71-1.86-1.71-2.8
				c-0.07-26.13-0.01-52.7,0.04-78.4l0.01-3.12c0-0.11,0.08-0.29,0.2-0.56c0.07-0.15,0.14-0.31,0.23-0.52H200.8
				c0,2.66,0,5.31,0.01,7.93c0.01,6.62,0.02,12.87-0.02,19.26c-0.01,1.64,0.14,3.41,0.28,5.12c0.34,4.08,0.69,8.3-1.06,11
				c-2.08,3.2-7.28,4.81-11.86,6.24c-0.86,0.27-1.7,0.53-2.51,0.79c-2.34,0.77-3.66,1.8-4.06,3.14c-0.4,1.36,0.19,2.94,1.83,4.95
				c0.76,0.93,2.16,1.23,3.63,1.54c0.55,0.12,1.12,0.24,1.66,0.39v44.11h-34.34L154.37,274.92L154.37,274.92z M561.9,304.63
				c0.01,3.96,0.03,8.06-0.11,12.08c-0.02,0.56-0.55,1.2-1.07,1.82c-0.14,0.17-0.28,0.34-0.42,0.51c-0.11-0.15-0.23-0.29-0.34-0.43
				c-0.45-0.57-0.92-1.15-0.93-1.64c-0.12-11.09-0.12-22.29-0.01-33.29c0.01-0.49,0.48-1.07,0.94-1.64
				c0.12-0.14,0.24-0.29,0.35-0.43c0.13,0.18,0.28,0.35,0.41,0.52c0.52,0.63,1.05,1.29,1.07,1.86c0.14,3.97,0.12,8.01,0.1,11.92
				c-0.01,1.39-0.01,2.78-0.01,4.17C561.89,301.6,561.89,303.12,561.9,304.63 M547.31,300.18c0-1.28,0-2.55-0.01-3.83
				c-0.01-4.08-0.03-8.3,0.08-12.44c0.01-0.55,0.44-1.16,0.86-1.76c0.09-0.14,0.19-0.27,0.28-0.41c0.13,0.17,0.27,0.33,0.4,0.49
				c0.52,0.62,1.06,1.26,1.07,1.8c0.14,10.23,0.17,20.97,0.06,32.83c0,0.54-0.43,1.15-0.85,1.75c-0.1,0.14-0.19,0.28-0.29,0.42
				c-0.13-0.16-0.27-0.32-0.4-0.48c-0.53-0.62-1.07-1.26-1.09-1.83c-0.15-3.98-0.12-8.04-0.11-11.96c0.01-1.39,0.01-2.78,0.01-4.17
				v-0.41H547.31z M538.35,300.76c0,1.27,0.01,2.54,0.01,3.81c0.02,3.9,0.04,7.93-0.09,11.89c-0.02,0.64-0.48,1.31-0.97,2.02
				c-0.11,0.16-0.22,0.32-0.33,0.48c-0.12-0.16-0.23-0.33-0.35-0.49c-0.49-0.67-0.99-1.36-1-1.96c-0.13-10.61-0.13-21.46,0-32.24
				c0.01-0.63,0.47-1.31,0.96-2.02c0.11-0.16,0.22-0.33,0.33-0.49c0.11,0.16,0.22,0.32,0.33,0.47c0.5,0.71,0.97,1.37,0.99,2
				c0.13,3.96,0.11,8,0.1,11.9c-0.01,1.4-0.01,2.81-0.01,4.21v0.41L538.35,300.76L538.35,300.76z M529.76,284.53
				c0.02-0.69,0.59-1.47,1.15-2.21c0.14-0.19,0.29-0.39,0.43-0.59c0.1,0.17,0.21,0.33,0.32,0.5c0.47,0.73,0.92,1.42,0.93,2.07
				c0.09,9.11,0.09,18.37,0.08,27.32v7.36l-1.45,0.72c-0.18-0.36-0.39-0.73-0.59-1.08c-0.58-1.01-1.12-1.97-1.13-2.89
				C529.41,305.74,529.5,295.53,529.76,284.53 M517.96,295.97c-0.02-3.95-0.04-8.02,0.11-12.03c0.02-0.54,0.59-1.16,1.13-1.76
				c0.15-0.16,0.29-0.32,0.44-0.49c0.1,0.15,0.2,0.3,0.3,0.44c0.41,0.6,0.84,1.21,0.85,1.75c0.12,10.92,0.13,22,0.03,32.92
				c0,0.54-0.43,1.17-0.84,1.77c-0.1,0.15-0.21,0.3-0.31,0.45c-0.15-0.17-0.31-0.33-0.46-0.49c-0.56-0.59-1.15-1.2-1.17-1.73
				c-0.15-4.14-0.13-8.36-0.11-12.44c0.01-1.28,0.01-2.57,0.01-3.85l0.04-0.41C517.97,298.74,517.96,297.35,517.96,295.97
				 M540.68,262.53l0.2,0.23l0.27-0.12c6.06-2.72,11.39-3.13,15.42-1.21c3.16,1.51,5.41,4.47,6.49,8.56
				c0.87,3.29,0.82,5.4-0.15,6.66c-0.95,1.23-2.89,1.8-6.13,1.8h-0.03c-6.2-0.01-12.39-0.01-18.65-0.01c-4.28,0-8.59,0-12.95,0
				h-13.02c0-1.79-0.01-3.55-0.02-5.3c-0.03-5.54-0.06-10.78,0.18-16.07c0.04-0.96,1.76-2.47,3.15-3.07
				c7.09-3.07,16.09-1.11,21.91,4.78c0.75,0.76,1.46,1.58,2.2,2.45C539.91,261.65,540.28,262.08,540.68,262.53 M515.16,304.72
				c0.02,3.9,0.04,7.94-0.1,11.89c-0.02,0.59-0.55,1.25-1.06,1.9c-0.13,0.17-0.27,0.34-0.4,0.51c-0.13-0.18-0.27-0.36-0.41-0.53
				c-0.51-0.65-1.04-1.32-1.05-1.9c-0.13-11.48-0.12-22.01,0.05-32.2c0.01-0.64,0.63-1.36,1.22-2.07c0.16-0.19,0.32-0.38,0.47-0.57
				c0.1,0.17,0.2,0.35,0.3,0.52c0.45,0.76,0.87,1.47,0.89,2.16c0.12,3.94,0.1,7.96,0.09,11.84c-0.01,1.42-0.01,2.83-0.01,4.25
				C515.15,301.92,515.16,303.32,515.16,304.72 M523.7,295.81c-0.02-3.85-0.05-7.83,0.1-11.73c0.02-0.58,0.55-1.24,1.06-1.88
				c0.14-0.17,0.28-0.35,0.41-0.53c0.15,0.18,0.3,0.36,0.46,0.53c0.54,0.62,1.11,1.26,1.12,1.81c0.18,11.52,0.21,22.11,0.07,32.37
				c-0.01,0.62-0.65,1.35-1.26,2.05c-0.18,0.2-0.36,0.4-0.53,0.61c-0.12-0.18-0.24-0.36-0.36-0.54c-0.49-0.73-0.95-1.42-0.97-2.07
				c-0.13-4.11-0.11-8.3-0.09-12.35c0.01-1.45,0.01-2.91,0.01-4.36l0,0C523.72,298.41,523.71,297.11,523.7,295.81 M544.36,305.16
				c0.02,3.71,0.03,7.54-0.1,11.3c-0.02,0.64-0.5,1.32-1,2.03c-0.12,0.17-0.24,0.34-0.36,0.52c-0.13-0.17-0.26-0.34-0.4-0.51
				c-0.52-0.65-1.06-1.33-1.06-1.91c-0.15-10.64-0.17-21.53-0.04-32.36c0.01-0.6,0.52-1.28,1.02-1.94c0.13-0.18,0.27-0.35,0.4-0.53
				c0.13,0.17,0.26,0.33,0.39,0.5c0.51,0.63,1.03,1.29,1.05,1.87c0.14,4.13,0.12,8.34,0.1,12.4c-0.01,1.43-0.01,2.87-0.01,4.3
				C544.35,302.28,544.36,303.72,544.36,305.16 M552.88,304.37c0.01-1.3,0.02-2.59,0.02-3.89l0.02-0.41c0-1.39-0.01-2.78-0.02-4.17
				c-0.03-3.77-0.05-7.66,0.12-11.47c0.03-0.68,0.62-1.42,1.2-2.14c0.16-0.2,0.32-0.4,0.47-0.61c0.13,0.18,0.26,0.36,0.39,0.53
				c0.5,0.67,1.01,1.35,1.02,1.96c0.13,10.77,0.13,21.67-0.01,32.39c-0.01,0.6-0.53,1.29-1.03,1.95c-0.13,0.17-0.27,0.35-0.39,0.53
				c-0.15-0.21-0.31-0.42-0.47-0.62c-0.57-0.73-1.16-1.48-1.19-2.17C552.83,312.3,552.86,308.27,552.88,304.37 M567.86,284
				c0.14,5.35,0.13,10.81,0.11,16.08c0,1.46-0.01,2.91-0.01,4.37c0,1,0.01,2,0.02,3.01c0.02,2.89,0.05,5.89-0.15,8.8
				c-0.06,0.8-0.58,1.6-1.13,2.44c-0.2,0.3-0.4,0.61-0.58,0.92l-1.34-0.46v-6.74c-0.01-9.47-0.01-19.27,0.09-28.9
				c0-0.42,0.51-0.95,1-1.46c0.14-0.14,0.28-0.29,0.41-0.43c0.16,0.19,0.32,0.38,0.48,0.56C567.29,282.81,567.85,283.45,567.86,284
				 M351.77,296.4c-0.02-4.09-0.04-8.33,0.07-12.48c0.02-0.55,0.42-1.15,0.85-1.77c0.09-0.14,0.19-0.28,0.28-0.41
				c0.13,0.16,0.27,0.33,0.4,0.49c0.52,0.62,1.06,1.26,1.07,1.81c0.12,10.15,0.11,20.87-0.02,32.79c-0.01,0.55-0.41,1.14-0.83,1.77
				c-0.09,0.14-0.18,0.27-0.27,0.41c-0.13-0.16-0.26-0.32-0.38-0.47c-0.52-0.62-1.05-1.27-1.07-1.84c-0.14-4.12-0.12-8.31-0.1-12.37
				c0.01-1.43,0.01-2.85,0.01-4.28l0,0C351.78,298.82,351.78,297.61,351.77,296.4 M348.72,317.37c0,0.4-0.42,0.9-0.82,1.37
				c-0.11,0.13-0.22,0.26-0.32,0.4c-0.16-0.15-0.33-0.3-0.5-0.44c-0.52-0.46-1.12-0.98-1.12-1.35c-0.16-12.19-0.17-23.32-0.02-34.02
				c0.01-0.44,0.71-1.03,1.34-1.54c0.26-0.22,0.53-0.44,0.77-0.66l0.75,0.41v6.61C348.8,297.72,348.8,307.63,348.72,317.37
				 M343.21,304.12c0.03,4.08,0.06,8.29-0.09,12.43c-0.02,0.61-0.56,1.29-1.07,1.95c-0.14,0.18-0.29,0.37-0.43,0.56
				c-0.14-0.18-0.3-0.35-0.45-0.52c-0.54-0.62-1.1-1.25-1.1-1.79c-0.15-10.97-0.15-22.03,0-32.89c0.01-0.51,0.58-1.12,1.14-1.71
				c0.16-0.17,0.31-0.33,0.47-0.5c0.13,0.19,0.27,0.38,0.41,0.57c0.49,0.68,1,1.38,1.03,2.01c0.14,3.97,0.12,8.01,0.1,11.93
				c-0.01,1.41-0.01,2.82-0.01,4.24l0,0C343.2,301.63,343.2,302.88,343.21,304.12 M337.11,305.09c0.01,3.82,0.03,7.78-0.11,11.66
				c-0.02,0.55-0.57,1.18-1.1,1.78c-0.14,0.16-0.29,0.33-0.43,0.5c-0.11-0.15-0.22-0.3-0.33-0.44c-0.44-0.58-0.9-1.18-0.9-1.7
				c-0.13-11.89-0.13-22.65,0-32.92c0.01-0.53,0.58-1.15,1.13-1.76c0.14-0.16,0.29-0.32,0.42-0.48c0.11,0.18,0.22,0.36,0.33,0.54
				c0.46,0.74,0.89,1.45,0.91,2.12c0.12,3.97,0.11,8.01,0.09,11.92c-0.01,1.42-0.01,2.84-0.01,4.25
				C337.1,302.07,337.1,303.58,337.11,305.09 M331.39,304.72c0.02,3.94,0.04,8-0.11,12c-0.02,0.57-0.58,1.21-1.12,1.83
				c-0.15,0.17-0.3,0.35-0.45,0.53c-0.14-0.19-0.3-0.37-0.45-0.56c-0.53-0.64-1.07-1.31-1.08-1.88
				c-0.13-10.49-0.13-21.39,0.01-32.39c0.01-0.63,0.5-1.34,0.98-2.02c0.12-0.18,0.25-0.36,0.37-0.55c0.16,0.2,0.33,0.4,0.49,0.59
				c0.59,0.7,1.21,1.42,1.24,2.07c0.17,3.96,0.15,8,0.12,11.91c-0.01,1.29-0.02,2.58-0.02,3.86l-0.02,0.41
				C331.37,301.92,331.38,303.32,331.39,304.72 M325.33,301.07c0,1.24,0.01,2.49,0.01,3.73c0.01,3.93,0.03,8-0.08,11.99
				c-0.02,0.56-0.41,1.16-0.83,1.8c-0.09,0.14-0.19,0.28-0.28,0.42c-0.14-0.16-0.28-0.32-0.42-0.48c-0.54-0.61-1.09-1.23-1.1-1.76
				c-0.14-10.09-0.16-20.83-0.05-32.82c0-0.55,0.41-1.14,0.83-1.77c0.09-0.14,0.19-0.28,0.28-0.43c0.13,0.16,0.27,0.32,0.4,0.47
				c0.53,0.6,1.07,1.23,1.09,1.77c0.14,4.13,0.12,8.33,0.1,12.4c-0.01,1.42-0.01,2.85-0.01,4.27v0.41L325.33,301.07L325.33,301.07z
				 M316.52,296.22c-0.03-3.72-0.06-7.58,0.09-11.35c0.03-0.78,0.51-1.58,1.01-2.43c0.12-0.2,0.24-0.4,0.35-0.6
				c0.13,0.18,0.26,0.37,0.39,0.55c0.54,0.74,1.09,1.5,1.1,2.18c0.15,10.1,0.15,20.63,0.01,31.28c-0.01,0.79-0.47,1.61-0.96,2.48
				c-0.1,0.18-0.21,0.37-0.31,0.56c-0.13-0.22-0.27-0.43-0.4-0.65c-0.58-0.92-1.13-1.8-1.17-2.66c-0.18-3.77-0.15-7.62-0.12-11.34
				c0.01-1.43,0.02-2.85,0.02-4.28l0,0C316.54,298.71,316.53,297.47,316.52,296.22 M313.56,301c0,1.25,0.01,2.51,0.01,3.76
				c0.02,3.92,0.04,7.97-0.11,11.94c-0.02,0.56-0.56,1.21-1.09,1.83c-0.14,0.16-0.27,0.32-0.4,0.49c-0.1-0.15-0.2-0.29-0.3-0.43
				c-0.42-0.6-0.86-1.22-0.86-1.76c-0.12-11.8-0.11-22.53,0.03-32.79c0.01-0.54,0.55-1.18,1.07-1.8c0.13-0.16,0.27-0.32,0.4-0.48
				c0.09,0.14,0.19,0.28,0.28,0.41c0.43,0.63,0.84,1.22,0.85,1.77c0.11,4.14,0.09,8.35,0.08,12.43c0,1.41-0.01,2.82-0.01,4.23v0.41
				L313.56,301L313.56,301z M307.85,304.65c0.02,3.9,0.04,7.94-0.09,11.9c-0.02,0.62-0.48,1.28-0.97,1.98
				c-0.12,0.17-0.23,0.34-0.35,0.51c-0.13-0.16-0.26-0.33-0.39-0.48c-0.51-0.63-1.04-1.28-1.05-1.84
				c-0.17-11.04-0.19-22.07-0.07-32.79c0.01-0.51,0.57-1.12,1.12-1.71c0.15-0.16,0.3-0.32,0.44-0.48c0.11,0.18,0.23,0.36,0.35,0.54
				c0.47,0.72,0.92,1.4,0.95,2.04c0.13,3.96,0.11,7.99,0.09,11.89c-0.01,1.27-0.01,2.54-0.01,3.82l-0.03,0.41
				C307.84,301.84,307.84,303.24,307.85,304.65 M307.99,278.09c1.86-7.86,6.13-10.45,16.67-10.2l0.29,0.01l0.1-0.27
				c0.2-0.53,0.4-1.08,0.6-1.63c0.43-1.2,0.88-2.45,1.4-3.66c2.48-5.83,7.44-10.11,13.6-11.74c6.07-1.61,12.38-0.39,17.32,3.36
				c1.19,0.91,2.42,2.29,2.46,3.34c0.19,5.14,0.17,10.22,0.14,15.6c-0.01,1.71-0.02,3.44-0.02,5.19H307.99z M357.49,304.33
				c0.01-1.3,0.02-2.59,0.02-3.88h0.05v-0.41c0-1.38-0.01-2.77-0.01-4.15c-0.02-3.92-0.04-7.97,0.11-11.94
				c0.02-0.54,0.59-1.17,1.15-1.77c0.16-0.17,0.31-0.34,0.46-0.52c0.11,0.15,0.23,0.3,0.34,0.44c0.44,0.56,0.9,1.15,0.91,1.64
				c0.12,11.61,0.12,22.32,0,32.74c-0.01,0.62-0.52,1.31-1.01,1.99c-0.12,0.17-0.24,0.33-0.36,0.51c-0.14-0.2-0.28-0.41-0.42-0.6
				c-0.56-0.79-1.1-1.54-1.12-2.25C357.45,312.2,357.47,308.2,357.49,304.33 M454.99,318.96H416v-0.23h38.99V318.96z M417.21,205.61
				c-8.08,5.92-16.43,12.03-24.66,18.02c-0.68,0.49-1.54,0.82-2.21,0.82c-7.14,0.05-14.39,0.05-21.41,0.04h-5.59l-0.21-0.65
				c2.55-1.66,5.11-3.33,7.66-4.99c8.76-5.72,17.82-11.63,26.81-17.33c1.17-0.75,3-0.77,4.61-0.78h0.34
				c6.28-0.08,12.97-0.07,19.93,1.03L417.21,205.61z M365.58,227.36c3.01-0.13,6.13-0.25,9.08,0.19
				c11.64,1.77,21.86-1.67,33.13-11.16c6.25-5.27,13.07-10.13,19.66-14.83c2.85-2.03,5.79-4.13,8.67-6.25
				c3.53,2.6,7.05,5.17,10.55,7.73c9.12,6.67,18.55,13.57,27.67,20.45c3.99,3.01,7.72,4.25,12.1,4.05
				c5.79-0.27,11.7-0.22,17.41-0.17c1.93,0.02,3.86,0.03,5.78,0.04c1,0,2.03,0.12,3.03,0.23c0.36,0.04,0.72,0.08,1.08,0.11
				l0.07,0.78c-0.68,0.09-1.36,0.19-2.04,0.29c-1.75,0.26-3.56,0.52-5.34,0.55c-1.79,0.02-3.63-0.08-5.41-0.19
				c-2.84-0.17-5.78-0.34-8.63,0.02c-8.77,1.1-16.26-1.35-24.28-7.94c-5.29-4.34-10.92-8.43-16.37-12.39
				c-3.86-2.8-7.85-5.7-11.69-8.66c-1.4-1.09-2.62-1.63-3.86-1.63c-1.27,0-2.57,0.58-4.11,1.73c-12.19,9.15-24.76,18.29-36.53,26.81
				c-1.61,1.16-3.26,1.84-4.54,1.86c-9.1,0.15-18.37,0.1-27.32,0.05l-2.91-0.01c-0.44,0-0.9-0.19-1.39-0.38
				c-0.15-0.06-0.29-0.12-0.44-0.17l0.02-0.43c0.29-0.06,0.58-0.12,0.86-0.19c0.85-0.19,1.66-0.37,2.48-0.39
				C363.41,227.45,364.49,227.41,365.58,227.36 M508.87,224.5h-5.18c-7.11,0-14.22,0-21.38-0.02c-0.62,0-1.38,0-1.78-0.29
				c-10.88-7.89-20.7-15.12-30.33-23.44h3.9c6.19,0,12.6-0.01,18.9,0.03c0.61,0,1.3,0.37,1.77,0.67c9.58,6.22,19.14,12.46,28.7,18.7
				l5.63,3.67L508.87,224.5z M453.81,275.73h-36.52l-0.01-0.18h36.53V275.73z M453.44,283.11c0.03-0.91,0.68-1.83,1.38-2.81
				c0.42-0.59,0.85-1.2,1.16-1.84l0.16-0.33c0.56-1.13,1.19-2.42,1.03-3.6c-0.13-1-2.11-2.04-3.14-2.05
				c-7.91-0.07-15.75-0.08-23.83-0.08c-2.64,0-5.3,0-8,0h-8.67l0.06,0.46c0.09,0.68,0.13,1.42,0.17,2.14c0.12,2,0.2,2.89,0.81,3.04
				c3.86,0.96,3.58,3.44,3.29,6.05c-0.09,0.8-0.18,1.63-0.14,2.39c0.11,2.15,0.03,4.36-0.04,6.49c-0.11,3.21-0.21,6.53,0.28,9.72
				c0.88,5.7-1.74,9.72-4.52,13.97c-0.38,0.58-0.75,1.16-1.12,1.74c-0.32,0.5-1.21,0.99-1.8,1c-13.11,0.06-25.95,0.06-39.56,0.05
				h-7.27v-87.54c2.47,0,4.89,0.02,7.27,0.04c6.35,0.05,12.34,0.09,18.37-0.16c3.04-0.13,6.31-1.18,8.53-2.76
				c9.61-6.82,19.29-13.96,28.64-20.86c3.18-2.35,6.38-4.71,9.58-7.06c3.28,2.41,6.54,4.81,9.79,7.2
				c9.18,6.77,18.67,13.77,28.11,20.4c2.49,1.75,6.05,2.9,9.52,3.07c5.99,0.29,11.9,0.24,18.16,0.18c2.36-0.02,4.74-0.04,7.15-0.04
				v87.56h-18.43c-8.7,0-17.4,0-26.09-0.01c-4.44,0-10.87-6.17-10.93-10.47C453.28,299.4,453.2,291.4,453.44,283.11 M427.35,310.49
				v-29.95h-5.79v30.33c-0.39-0.51-0.67-1.06-0.68-1.45c-0.18-7.72-0.16-15.32-0.14-23.38c0-2.25,0.01-4.51,0.01-6.8h29.61v33.19
				c-2.07,0-4.11,0.01-6.13,0.01c-7.2,0.02-14.01,0.04-20.87-0.16c-0.48-0.01-1.24-0.67-1.79-1.41L427.35,310.49z M418.94,315.51
				l0.01-0.42h5.35c8.95,0,17.89,0,26.84,0.02c0.26,0,0.59,0.06,0.94,0.4L418.94,315.51L418.94,315.51z M971.52,319.06h-13.99
				v-28.29h13.99V319.06z M887.25,277.76c2.6,0,5.19-0.02,7.78-0.04c7.54-0.05,15.33-0.11,22.96,0.27c1.27,0.06,2.57,1.4,4.08,2.94
				c0.8,0.82,1.63,1.66,2.55,2.43l0.21,0.17l8.51-4.4v40.04c-0.33,0.04-0.65,0.07-0.94,0.11c-0.78,0.09-1.46,0.17-2.12,0.17
				c-11.69,0.02-23.37,0.02-35.29,0.01h-7.75L887.25,277.76L887.25,277.76z M924.79,279.54c-0.72-0.31-1.27-1.22-1.73-2.88
				c2.88-1.62,5.75-3.23,8.62-4.84c10.08-5.67,20.49-11.53,30.78-17.1c1.27-0.69,3.68-0.4,4.98,0.32
				c9.91,5.48,19.56,10.99,29.77,16.82c2.87,1.64,5.76,3.29,8.67,4.94l-1.84,3.53c-3.13-1.75-6.25-3.47-9.34-5.19
				c-8.89-4.93-17.28-9.58-25.77-14.48c-1.54-0.89-2.88-1.44-4.31-1.44c-1.15,0-2.35,0.36-3.78,1.18
				c-6.04,3.51-12.28,6.94-18.31,10.25c-4.79,2.63-9.75,5.35-14.58,8.1C926.47,279.6,925.5,279.84,924.79,279.54 M995.42,279.17
				l10.18,5.02l0.13-0.49c1.54-5.95,5.51-6.24,10.97-6.01c5.78,0.24,11.48,0.19,17.51,0.14c2.42-0.02,4.86-0.04,7.34-0.05v41.28
				h-46.12L995.42,279.17L995.42,279.17z M1004.86,272.75l-5.55-3.06c-10.14-5.58-20.62-11.34-30.8-17.25
				c-2.94-1.71-5.26-1.7-8.28,0.03c-14.39,8.22-25.42,14.38-35.78,19.97c-2.4,1.3-5.28,2.07-7.89,2.11
				c-9.33,0.16-18.54,0.14-28.29,0.12c-3.3-0.01-6.63-0.02-10.02-0.02c1.12-2.95,2.21-5.85,3.29-8.73
				c2.76-7.34,5.37-14.27,8.08-21.28c0.59-1.53,1.09-3.24,1.58-4.9c1.21-4.12,2.46-8.38,5.17-10.24c2.73-1.88,7.18-1.53,11.49-1.18
				c1.69,0.13,3.43,0.27,5.05,0.27h0.02c12.05-0.01,24.09-0.01,36.14-0.01c25.84,0,52.56,0.01,78.84-0.13h0.11
				c4.05,0,5.72,1.22,7.13,5.16c3.53,9.86,7.23,19.5,11.15,29.7c1.43,3.72,2.87,7.48,4.32,11.3c-3.29,0-6.53,0-9.74,0.01
				c-10.83,0.02-21.06,0.03-31.39-0.11C1007.98,274.5,1006.39,273.61,1004.86,272.75 M869.05,264.53l8.85,2.16l-3.39,10.4l9.4,0.91
				v41.06h-19.88C863.4,300.76,865.05,282.91,869.05,264.53 M954.17,288.04v31.12h-17.62c0-2.8,0-5.59-0.01-8.36
				c-0.01-11.04-0.02-21.47,0.13-32.08c0.01-0.91,1.33-2.3,2.56-3.04c3.52-2.1,7.14-4.17,10.64-6.17c3.25-1.85,6.61-3.77,9.88-5.71
				c3.18-1.89,5.66-1.96,8.54-0.24c3.53,2.11,7.2,4.13,10.75,6.07c3.27,1.79,6.65,3.65,9.91,5.57c1.42,0.84,3.02,2.64,3.04,3.89
				c0.19,10.27,0.18,20.35,0.16,31.03c-0.01,2.95-0.01,5.91-0.01,8.9h-17.5v-30.99L954.17,288.04L954.17,288.04z M842.5,282.4
				c-3.29,1.54-6.4,2.99-9.65,3.43c-8.44,1.12-15.27-3.81-17.82-12.88c-0.66-2.35-2-4.81-3.78-6.94c-4.39-5.24-4.3-12.42,0.21-17.06
				c4.38-4.52,11.73-4.75,17.1-0.53c2.26,1.77,4.92,3.15,7.5,3.87c9.27,2.61,14.67,12,12.29,21.39c-0.58,2.3,0.11,5.12,0.95,7
				c1.92,4.27,4.05,8.44,6.31,12.85c0.91,1.78,1.84,3.61,2.79,5.49l0.55,1.1l1.61-9c1.87-10.4,3.63-20.22,5.28-30.14
				c0.16-0.95-0.68-2-1.41-2.93c-0.12-0.15-0.23-0.29-0.34-0.43c-0.43-0.56-0.95-1.08-1.44-1.58c-0.79-0.79-1.53-1.54-1.93-2.43
				c-2.18-4.87-5.33-7.56-10.88-9.29c-2.12-0.66-3.73-3.46-5.29-6.16c-0.64-1.11-1.3-2.25-1.98-3.23c-0.4-0.58-0.71-1.29-1.01-1.99
				c-0.47-1.09-0.95-2.21-1.84-2.9c-4.15-3.22-6.75-8.41-7.13-14.24c-0.4-6.12,1.65-11.93,5.63-15.95
				c8.41-8.49,21.42-8.39,30.27,0.25c0.42,0.41,0.82,0.87,1.21,1.31c0.18,0.21,0.36,0.42,0.55,0.62l0.23,0.26l0.29-0.19
				c9.08-5.89,14.54-6.33,20.13-1.6c5.62,4.76,6.12,10.53,1.72,19.93l-0.15,0.33l4.63,2.9c-0.72,1.04-1.42,1.97-2.1,2.88
				c-1.49,1.99-2.78,3.72-3.59,5.66c-3.52,8.49-7.18,17.6-10.14,26.76c-0.74,2.28-1.64,3.6-2.85,4.17
				c-1.18,0.56-2.76,0.41-4.97-0.47c-1.1-0.44-2.22-0.77-3.64-1.19c-0.73-0.21-1.53-0.45-2.44-0.73l-0.44-0.14l-0.08,0.45
				c-0.38,2.05-0.81,4.09-1.22,6.06c-0.93,4.45-1.8,8.66-2.21,13c-0.7,7.45-1.15,15.05-1.59,22.39c-0.26,4.3-0.52,8.76-0.83,13.13
				c-0.08,1.09-0.53,2.17-1.35,3.24c-0.87-15.31-4.79-27.87-11.99-38.38l-0.18-0.27l-0.3,0.12C845.56,280.97,844,281.7,842.5,282.4
				 M784.05,317.15c-0.02,0.65-1.69,2.19-2.59,2.2c-14.38,0.13-28.45,0.13-43.34,0.12h-9.37V290.4h55.44c0,1.94,0.01,3.86,0.01,5.77
				C784.21,303.39,784.23,310.22,784.05,317.15 M658.16,319.23h-13.28v-28.96h13.28V319.23z M686.29,191.88
				c16.26,7.35,32.92,15.02,50.93,23.46c1.12,0.53,2.56,2,2.57,2.91c0.16,9.71,0.15,19.24,0.13,29.34c0,2.58-0.01,5.17-0.01,7.77
				H626.7c0-2.81-0.01-5.58-0.01-8.33c-0.02-9.47-0.04-18.41,0.16-27.46c0.03-1.21,1.53-3.19,2.93-3.85
				c16.42-7.73,33.4-15.55,51.91-23.89C682.94,191.25,684.97,191.28,686.29,191.88 M679.75,189.64
				c-14.36,6.39-28.88,13.07-42.92,19.53c-5.31,2.44-10.62,4.89-15.94,7.32c-1.31,0.6-2.69,1.13-4.03,1.65
				c-0.5,0.19-1.01,0.39-1.51,0.59l-0.51-1.35c1.73-0.82,3.47-1.65,5.2-2.48c3.99-1.9,8.11-3.87,12.19-5.75
				c14.46-6.65,31.59-14.51,49.04-22.39c1.25-0.57,3.06-0.96,4.09-0.5c18.89,8.55,38.04,17.36,56.56,25.87l11.08,5.09l-0.23,0.98
				c-0.35-0.07-0.7-0.13-1.05-0.19c-1.04-0.18-2.01-0.35-2.89-0.75c-6.55-2.98-13.1-5.97-19.65-8.97
				c-13.49-6.17-27.44-12.56-41.23-18.68C685.63,188.58,682.1,188.59,679.75,189.64 M725.62,287.38v31.8h-8.56
				c0-2.8,0-5.6-0.01-8.38c-0.01-10.92-0.03-21.23,0.15-31.77c0.02-1,1.61-2.57,2.92-3.2c12.78-6.13,23.49-11.09,33.72-15.63
				c1.48-0.66,3.77-0.35,5.17,0.26c10.76,4.74,21.65,9.72,33.29,15.23c1.35,0.64,2.99,2.22,3.01,3.23
				c0.18,10.54,0.17,20.85,0.15,31.77c0,2.8-0.01,5.61-0.01,8.44H787v-31.76h-61.38V287.38z M752.4,257.92
				c-9.17,4.01-18.41,8.25-27.35,12.35c-3.97,1.82-7.94,3.64-11.91,5.45c-0.97,0.44-2.02,0.79-3.03,1.12
				c-0.37,0.12-0.74,0.24-1.11,0.37l-0.38-0.75c0.18-0.14,0.35-0.29,0.52-0.44c0.54-0.46,1.06-0.9,1.64-1.17
				c13.08-6.07,27.9-12.94,42.61-19.57c1.42-0.64,3.48-1,4.7-0.46c13.52,6.07,27.2,12.42,40.42,18.56l4.61,2.14
				c0.17,0.08,0.34,0.34,0.5,0.59c0.05,0.08,0.11,0.17,0.16,0.25l-0.38,0.96c-1.46-0.62-2.92-1.24-4.39-1.85
				c-3.45-1.45-7.03-2.95-10.49-4.52c-3.47-1.57-6.97-3.2-10.37-4.78c-6.05-2.82-12.31-5.73-18.56-8.39c-0.94-0.4-2.12-0.6-3.33-0.6
				C754.9,257.19,753.51,257.43,752.4,257.92 M641.83,287.55V319h-15.11v-7.27c-0.01-10.38-0.02-21.11,0.14-31.65
				c0.01-0.64,1.71-2.2,2.59-2.21c30.1-0.19,53.06-0.2,74.45-0.03c2.13,0.02,4.32,0.73,6.63,1.49c1.07,0.35,2.17,0.71,3.33,1.02
				v38.75h-52.49v-31.55L641.83,287.55L641.83,287.55z M626.39,258.74h111.88l0.05,0.15l-6.29,2.9
				c-8.93,4.11-18.16,8.36-27.26,12.51c-0.71,0.32-1.65,0.35-2.47,0.35c-22.81,0.02-45.63,0.02-69.1,0.01h-11.72L626.39,258.74z
				 M590.15,281.43l-5.2-1.19l9.16-15.77l-3.89-1.46l4.26-8.69l4.52,8.63l-3.74,1.55l9,15.78l-5.17,1.06l10.16,17.7
				c-0.19,0.04-0.36,0.07-0.52,0.1c-0.53,0.1-0.92,0.18-1.3,0.19c-10.61,0.4-10.82,0.61-10.81,11.09c0,0.58,0.01,1.17,0.02,1.75
				c0.03,1.72,0.06,3.5-0.17,5.19c-0.06,0.45-0.63,0.94-1.18,1.41c-0.18,0.15-0.36,0.31-0.54,0.48c-0.22-0.19-0.46-0.37-0.69-0.55
				c-0.62-0.48-1.33-1.02-1.37-1.46c-0.36-4.05-0.73-8.24-0.3-12.3c0.25-2.37-0.04-3.83-0.94-4.72c-0.66-0.65-1.64-0.97-3.03-0.97
				c-0.44,0-0.91,0.03-1.43,0.09c-1.5,0.18-3.06,0.14-4.87,0.09c-0.72-0.02-1.49-0.04-2.32-0.04L590.15,281.43z M1301.91,293.66
				v14.93h-0.56v-14.93H1301.91z M1290.28,293.59v15.03h-0.58v-15.03H1290.28z M1348.8,293.75v14.7l-0.42,0.02V293.8L1348.8,293.75z
				 M1336.89,293.65v14.84l-0.48,0.05v-14.87L1336.89,293.65z M1325.11,293.7v14.79l-0.38,0.01v-14.78L1325.11,293.7z
				 M1321.36,304.13c0.03,3.88,0.06,7.89-0.13,11.81c-0.04,0.78-0.69,1.62-1.32,2.43c-0.2,0.25-0.4,0.51-0.58,0.78
				c-0.21-0.24-0.45-0.49-0.67-0.72c-0.71-0.74-1.44-1.5-1.45-2.17c-0.2-10.97-0.21-22.05-0.02-32.93c0.01-0.84,0.69-1.76,1.34-2.65
				c0.2-0.27,0.39-0.54,0.58-0.82c0.21,0.3,0.42,0.59,0.64,0.88c0.71,0.94,1.44,1.92,1.49,2.85c0.23,3.89,0.19,7.87,0.15,11.71
				c-0.01,1.35-0.03,2.7-0.03,4.06l-0.02,0.41C1321.34,301.21,1321.35,302.67,1321.36,304.13 M1313.32,293.78v14.64h-0.34V293.8
				L1313.32,293.78z M1305.35,303.92c0-6.8-0.01-13.84,0.12-20.75c0.01-0.79,0.73-1.67,1.43-2.52c0.23-0.28,0.46-0.56,0.67-0.85
				c0.2,0.24,0.41,0.47,0.61,0.7c0.66,0.73,1.34,1.49,1.35,2.15c0.14,9.54,0.13,19.24,0.12,28.62c0,2.56-0.01,5.11-0.01,7.67
				c-1.64,0.55-2.76,0.59-3.41,0.12c-0.62-0.44-0.91-1.41-0.91-2.95C1305.35,312.04,1305.35,307.98,1305.35,303.92 M1328.94,283.05
				c0.01-0.76,0.75-1.61,1.46-2.44c0.22-0.26,0.45-0.52,0.67-0.79c0.19,0.28,0.4,0.56,0.6,0.83c0.65,0.88,1.32,1.79,1.34,2.61
				c0.12,6.07,0.13,12.25,0.14,18.22c0.01,4.78,0.01,9.72,0.08,14.57c0.02,1.57-0.26,2.55-0.87,2.99c-0.65,0.48-1.78,0.46-3.53-0.08
				c0-2.69,0-5.37-0.01-8.04C1328.8,301.36,1328.78,292.31,1328.94,283.05 M1352.51,283.33c0.01-0.82,0.66-1.72,1.29-2.59
				c0.18-0.25,0.37-0.51,0.54-0.77c0.17,0.26,0.35,0.51,0.53,0.76c0.65,0.91,1.27,1.77,1.31,2.62c0.19,3.91,0.16,7.89,0.13,11.75
				c-0.01,1.47-0.02,2.94-0.02,4.41v0.41h0.02c0,1.34,0.01,2.67,0.02,4.01c0.02,4.03,0.05,8.2-0.11,12.29
				c-0.03,0.71-0.59,1.49-1.14,2.24c-0.16,0.22-0.32,0.44-0.47,0.66c-0.2-0.24-0.42-0.48-0.64-0.71c-0.69-0.75-1.4-1.52-1.41-2.19
				C1352.34,305.36,1352.33,294.3,1352.51,283.33 M1312.82,252.92c6.23-7.85,17.03-10.81,26.86-7.37
				c9.84,3.44,16.2,12.04,16.6,22.42c0.07,1.92,0.06,3.87,0.04,5.93c-0.01,0.86-0.02,1.75-0.02,2.68c-2.22-0.23-3.84,0.09-4.94,0.97
				c-1.66,1.34-1.85,3.65-2.04,6.1c-0.11,1.32-0.22,2.68-0.58,3.86c-0.83-1.35-0.98-3.09-1.13-4.77c-0.27-3.11-0.55-6.32-5.54-5.91
				c-4.1,0.33-4.31,3.23-4.53,6.3c-0.1,1.41-0.21,2.97-0.71,4.45c-0.13-0.54-0.25-1.03-0.37-1.49c-0.36-1.42-0.62-2.44-0.64-3.45
				c-0.05-2.33-0.71-4.13-1.86-5.07c-0.62-0.5-1.35-0.76-2.2-0.76c-0.28,0-0.57,0.03-0.87,0.08c-1.95,0.36-3.54,3.28-4.71,5.42
				l-0.1,0.19c-0.52,0.95-0.48,2.16-0.45,3.32c0.01,0.37,0.02,0.76,0.01,1.12l-0.73,0.09c-0.06-0.34-0.13-0.68-0.2-1.02
				c-0.21-1.03-0.4-2-0.4-2.98c0.02-2.22-0.55-3.97-1.64-5.05c-0.88-0.88-2.06-1.34-3.55-1.29c-3.24,0.04-5.03,2.36-5.02,6.53
				c0,0.93-0.1,1.88-0.19,2.8c-0.03,0.32-0.07,0.65-0.1,0.97l-0.68,0.08c-0.06-0.34-0.12-0.68-0.18-1.02
				c-0.19-0.99-0.38-2.01-0.38-3c0.01-2.37-0.65-4.25-1.85-5.3c-0.88-0.77-2.01-1.06-3.34-0.88c-1.81,0.25-3.25,3.11-4.42,5.41
				l-0.19,0.37c-0.51,1-0.51,2.22-0.52,3.4c0,0.37,0,0.75-0.02,1.12h-1.06c-0.03-0.42-0.04-0.85-0.04-1.27
				c-0.03-1.29-0.05-2.62-0.6-3.73c-0.71-1.44-1.82-2.67-2.89-3.87c-0.45-0.51-0.91-1.02-1.33-1.54l-0.29-0.36l-0.32,0.34
				c-0.46,0.49-0.97,0.97-1.46,1.43c-1.18,1.11-2.39,2.26-3.14,3.67c-0.59,1.11-0.56,2.5-0.53,3.85c0.01,0.44,0.02,0.88,0.01,1.32
				l-1.18,0.01c-0.04-0.4-0.09-0.8-0.13-1.19c-0.13-1.11-0.26-2.25-0.27-3.37c-0.05-3.47-0.04-7-0.04-10.42v-3.62
				c0-5.08,1.21-8.65,3.6-10.62c2.36-1.94,6.02-2.44,10.86-1.47C1307.75,257.18,1310.12,256.32,1312.82,252.92 M1293.78,282.06
				c0.01-0.5,0.72-1.14,1.36-1.71c0.23-0.2,0.46-0.41,0.67-0.62c0.2,0.22,0.41,0.43,0.62,0.63c0.62,0.62,1.26,1.25,1.27,1.78
				c0.19,13.51,0.17,24.59-0.05,34.89c-0.01,0.6-1,1.37-1.87,2.04c-0.37,0.29-0.75,0.58-1.09,0.88l-1.02-0.71v-7.42
				C1293.66,302.07,1293.65,291.98,1293.78,282.06 M1340.73,282.96c0.01-0.73,0.62-1.55,1.21-2.34c0.18-0.24,0.37-0.49,0.54-0.75
				c0.23,0.26,0.48,0.52,0.73,0.78c0.75,0.78,1.54,1.59,1.55,2.3c0.22,11.81,0.21,22.75-0.04,33.45c-0.02,0.79-0.88,1.68-1.72,2.54
				c-0.32,0.33-0.65,0.67-0.95,1.02l-1.42-1.07c0-2.62,0-5.24-0.01-7.86C1340.61,301.82,1340.6,292.31,1340.73,282.96
				 M1282.79,318.77h-21.75l-0.01-0.21h21.76V318.77z M1262.31,313.94h19l0.01,0.61h-19L1262.31,313.94z M1281.68,280.84l-0.06-0.33
				h-19.13l-0.06,0.34c-0.77,4.43-0.69,9.02-0.62,13.46c0.15,8.42,0.3,17.12-5.47,24.88h-25.61V247h54.94v67.31
				c-3.9-6.41-3.68-13.22-3.45-20.4C1282.36,289.61,1282.5,285.17,1281.68,280.84 M1279.21,304.65c0,1.9-0.01,3.82-0.01,5.77h-14.42
				V282.9c0.92,0,1.85-0.01,2.79-0.02c3.16-0.03,6.44-0.06,9.69,0.15c0.57,0.04,1.82,1.57,1.83,2.43
				C1279.24,291.76,1279.23,298.02,1279.21,304.65 M1101.26,293.7v14.94h-0.65v-14.92L1101.26,293.7z M1127.94,302.89
				c0-6.24-0.01-12.68,0.12-19.02c0.02-0.97,0.68-1.97,1.37-3.03c0.2-0.31,0.41-0.62,0.6-0.94c0.21,0.29,0.44,0.58,0.66,0.86
				c0.73,0.93,1.48,1.89,1.49,2.76c0.16,9.01,0.15,17.84,0.13,27.17c0,2.72-0.01,5.45-0.01,8.19c-1.71,0.58-2.86,0.64-3.51,0.17
				c-0.61-0.43-0.9-1.41-0.88-2.97C1127.94,311.68,1127.94,307.21,1127.94,302.89 M1089.64,293.72v14.82l-0.67-0.01v-14.88
				L1089.64,293.72z M1125.18,283.94c0.02,0.74-0.16,1.48-0.35,2.28c-0.06,0.27-0.13,0.53-0.18,0.8l-0.67,0.05
				c-0.06-0.35-0.12-0.7-0.18-1.05c-0.18-1-0.37-2.03-0.36-3.03c0.01-2.38-0.65-4.26-1.85-5.29c-0.89-0.76-2.02-1.04-3.37-0.82
				c-1.82,0.29-3.27,3.08-4.43,5.32l-0.26,0.49c-0.5,0.95-0.47,2.12-0.44,3.26c0.01,0.36,0.02,0.73,0.01,1.08l-0.75,0.06
				c-0.04-0.43-0.07-0.89-0.09-1.33c-0.07-1.36-0.14-2.76-0.77-3.89c-0.77-1.38-1.97-2.52-3.13-3.62c-0.49-0.46-0.99-0.94-1.45-1.42
				l-0.32-0.34l-0.29,0.36c-0.42,0.51-0.87,1-1.31,1.5c-1.05,1.16-2.14,2.36-2.83,3.75c-0.55,1.11-0.6,2.45-0.65,3.73
				c-0.02,0.42-0.03,0.85-0.07,1.27h-1.14c-0.02-0.35-0.03-0.72-0.03-1.07c-0.02-1.13-0.03-2.31-0.52-3.29l-0.32-0.65
				c-1.06-2.18-2.39-4.9-4.11-5.2c-1.36-0.24-2.5,0.02-3.37,0.76c-1.18,1-1.83,2.89-1.81,5.31c0.01,1.33-0.23,2.57-0.74,3.85
				c-0.67-1.13-0.87-2.67-1.06-4.17c-0.27-2.09-0.54-4.25-2.12-5.4c-1.05-0.77-2.56-1-4.6-0.69c-0.88-7.95,0.17-13.37,3.22-16.54
				c2.92-3.05,7.88-4.26,15.15-3.7l0.41,0.03l0.03-0.41c0.75-9.42,5.2-15.03,13.25-16.69c10.16-2.09,15.66,4.26,18.49,9.95
				l0.14,0.28l0.31-0.06c1.28-0.26,2.51-0.54,3.71-0.82c2.87-0.67,5.59-1.3,8.28-1.35c1.21-0.03,3.75,2.5,3.79,3.79
				c0.25,9.53,0.17,19.24,0.09,28.63c-0.02,2.33-0.04,4.66-0.05,6.94c-0.03,0.06-0.18,0.22-0.33,0.37c-0.1,0.11-0.23,0.24-0.37,0.39
				c-0.61-1.27-0.71-2.85-0.82-4.38c-0.21-3.07-0.42-6.24-4.88-6.24c-0.07,0-0.14,0-0.21,0c-4.36,0.1-4.83,3.12-5.27,6.03
				c-0.19,1.22-0.38,2.48-0.85,3.57c-0.01-0.02-0.01-0.05-0.02-0.07c-0.22-0.78-0.42-1.52-0.46-2.26l-0.01-0.17
				c-0.18-3.26-0.39-7.27-5.24-7.14C1125.53,276.92,1125.08,280.68,1125.18,283.94 M1093.07,283.4c0.01-0.86,0.66-1.79,1.28-2.7
				c0.18-0.26,0.37-0.53,0.54-0.8c0.19,0.29,0.39,0.57,0.59,0.84c0.71,0.99,1.38,1.92,1.43,2.84c0.22,3.87,0.18,7.83,0.14,11.66
				c-0.01,1.48-0.03,2.96-0.03,4.44v0.41h0.03c0,1.32,0.01,2.65,0.02,3.97c0.02,4.03,0.05,8.2-0.12,12.29
				c-0.03,0.66-0.63,1.4-1.22,2.11c-0.18,0.21-0.36,0.43-0.53,0.65c-0.21-0.25-0.44-0.49-0.66-0.73c-0.69-0.74-1.4-1.51-1.41-2.18
				C1092.93,305.31,1092.9,294.27,1093.07,283.4 M1104.66,299.12c0-1.34-0.01-2.67-0.02-4.01c-0.03-3.83-0.06-7.8,0.13-11.68
				c0.04-0.89,0.63-1.79,1.26-2.75c0.17-0.26,0.34-0.52,0.51-0.79c0.2,0.28,0.42,0.57,0.63,0.84c0.7,0.92,1.43,1.87,1.45,2.73
				c0.19,9.78,0.19,20.51,0.01,32.79c-0.01,0.67-0.59,1.42-1.15,2.15c-0.17,0.22-0.34,0.44-0.5,0.66c-0.2-0.24-0.42-0.47-0.64-0.7
				c-0.69-0.73-1.4-1.5-1.44-2.18c-0.2-4.06-0.17-8.21-0.14-12.23c0.01-1.47,0.02-2.95,0.02-4.42v-0.41L1104.66,299.12
				L1104.66,299.12z M1148.11,294.51v13.43C1146.51,303.94,1146.5,297.83,1148.11,294.51 M1081.33,282.62
				c0.01-0.67,0.68-1.44,1.34-2.18c0.21-0.24,0.42-0.48,0.62-0.73c0.2,0.24,0.42,0.48,0.64,0.71c0.67,0.73,1.36,1.48,1.37,2.13
				c0.19,12.56,0.17,23.8-0.07,34.37c-0.01,0.64-0.92,1.4-1.8,2.13c-0.34,0.29-0.7,0.58-1.01,0.88l-1.19-0.98
				c0-2.6,0-5.21-0.01-7.81C1081.21,301.8,1081.2,292.13,1081.33,282.62 M1112.82,293.73v14.86h-0.5v-14.86H1112.82z
				 M1116.39,316.49c-0.19-10.02-0.17-20.77,0.08-33.82c0.01-0.68,0.64-1.45,1.25-2.2c0.19-0.24,0.39-0.48,0.57-0.72
				c0.21,0.23,0.44,0.46,0.67,0.69c0.69,0.7,1.41,1.42,1.42,2.03c0.14,9.67,0.13,19.5,0.12,29.01c0,2.56-0.01,5.12-0.01,7.68
				l-1.27,0.73c-0.32-0.34-0.68-0.68-1.04-1.01C1117.31,318.06,1116.4,317.22,1116.39,316.49 M1124.42,293.69v14.8h-0.51v-14.8
				H1124.42z M1136.38,293.79v14.71l-0.35,0.02v-14.71L1136.38,293.79z M1139.88,282.2c0.01-0.56,0.61-1.22,1.2-1.86
				c0.19-0.21,0.39-0.43,0.57-0.65c0.25,0.24,0.52,0.47,0.79,0.7c0.73,0.62,1.55,1.33,1.56,1.88c0.2,12.63,0.17,24.08-0.09,35
				c-0.01,0.5-1.13,1.21-2.03,1.78c-0.41,0.26-0.83,0.52-1.19,0.79l-0.9-0.77l-0.01-7.52
				C1139.77,301.93,1139.76,291.98,1139.88,282.2 M1282.83,204.06l-3.21-2.26l-4.55,2.87l-4.01-2.89l-4.54,2.97l-4.2-3.1l-4.31,3.15
				l-4.26-3.12l-4.33,3.08l-4.29-3.06l-4.25,3.03l-4.39-3.01l-4.41,3.11c-1.46-1.3-3-2.43-4.57-2.43c-0.16,0-0.31,0.01-0.47,0.03
				c-1.15,0.17-2.16,0.96-3.1,2.39l-4.14-3.13l-3,2.29l-8.14-2.35l-0.01-0.36h5.91c4.86,0,9.71,0,14.57,0
				c3.28,0,6.56-0.02,9.84-0.03c3.73-0.01,7.47-0.03,11.2-0.03c2.04,0,4.07-0.02,6.11-0.04c5.07-0.04,10.31-0.09,15.45,0.12
				c1.82,0.07,3.69,0.01,5.49-0.05c4.24-0.14,8.62-0.28,12.69,1.31L1282.83,204.06z M1232.93,242.87c2.38-1.56,4.43-2.9,7.27-0.37
				c0.56,0.5,1.56,0.01,3.44-0.97c0.58-0.3,1.17-0.61,1.72-0.86c1.77,1.69,3.53,2.54,4.98,2.38c0.88-0.09,1.62-0.54,2.2-1.32h27
				c2.78,0.01,5.56,0.01,8.35,0.01h0.27l0.73-1.71l2.47,2.55l-0.52,0.87h-58.82C1232.33,243.26,1232.63,243.06,1232.93,242.87
				 M1289.4,237.91c-1.42,0.38-2.76,0.74-4.06,0.78c-1.32,0.05-2.69-0.22-4.29-0.51c-0.8-0.15-1.67-0.31-2.63-0.46l-0.15-0.02
				l-2.6,1.66l0.01-0.64l-8.96-0.43l-0.08,0.23h-9.12l0.06,0.2l-8.01-0.45l-0.1,0.24h-8.43l-0.37-0.45l-0.23,0.04
				c-0.72,0.12-1.44,0.26-2.16,0.39c-1.74,0.33-3.54,0.67-5.31,0.8c-0.54,0.05-1.18-0.25-2.05-0.65c-0.29-0.13-0.59-0.27-0.93-0.42
				l6.72-3.37l3.99,2.72l2.89-1.86l9.86,0.56l0.19-1.28l4.41,2.5l3.58-2.36l0.06,0.95h17.68c0.18,0.07,0.35,0.14,0.53,0.21
				c2.5,1.01,5.32,2.15,8.24-2.88l2.81,4.1C1290.42,237.63,1289.9,237.77,1289.4,237.91 M1219.69,211.52l4.83,2.67l0.19-1.55
				c0.52,0.06,1.03,0.13,1.55,0.21c1.51,0.21,3.08,0.43,4.62,0.36c0.79-0.04,1.55-0.21,2.3-0.37c0.97-0.21,1.89-0.41,2.79-0.31
				l17.72,0.03c2.66-0.01,5.31-0.02,7.97-0.02v0.03h17.59l0.64,0.2l9.41-0.55l1.35,1.62l-6.59,1.74l0.12-0.49h-8.83v-0.04h-8.59
				c-2.93-0.01-5.87-0.01-8.81-0.01h-0.37l-0.1,0.96l-3.72-2.51l-4.37,2.81l-4.42-2.83l-4.17,2.98l-4.26-2.9l-0.17,1.41h-13.29
				l-3.51-3.24L1219.69,211.52z M1227.35,217.19l4.9,2.7l4.11-2.8l4.32,2.8l4.21-2.85l4.37,2.92l4.36-2.85l4.12,2.78l4.55-2.8
				c2.69,3.07,5.73,3.05,8.45-0.06l4.3,2.94l4.28-2.79l4.44,2.83l4.29-3.04l2.6,2.82l-7.77,1.88l-3.49-2.35l-4.19,2.95l-4.43-2.96
				l-4.15,2.94l-4.5-2.89l-4.07,2.88l-4.54-2.88l-4.13,2.89l-4.26-2.86l-4.42,2.89l-4.23-2.96l-4.08,2.86l-5.78-4.07L1227.35,217.19
				z M1240.32,227.54l-5.64-2.67l-0.05-0.49h11.97l0.94-0.12c1.23-0.16,3.04-0.39,4.86-0.6c1-0.11,1.75-0.13,2.42-0.05
				c1.71,0.2,3.45,0.44,5.13,0.68l2.38,0.33l0.3-1.3l3.81,2.49l3.87-2.38l0.3,1.34l0.38-0.06c0.76-0.12,1.52-0.28,2.28-0.44
				c1.72-0.35,3.5-0.7,5.21-0.69c1.1,0.02,2.22,0.51,3.51,1.08c0.63,0.28,1.28,0.56,1.99,0.82l0.21,0.08l0.33-0.26
				c1.37-1.06,2.93-2.27,4.24-1.91c0.76,0.21,1.43,0.95,2,2.21l-5.99,1.4l-9.39-0.44l-0.09,0.22h-8.5
				c-0.51-0.17-1.02-0.37-1.53-0.56c-2.37-0.91-4.81-1.85-6.32,0.52h-9.4c-2.94-0.01-5.88-0.01-8.82-0.01l-0.42,0.06L1240.32,227.54
				z M1275.19,233.97l-4.39-2.93l-4.26,2.9l-4.23-2.87l-4.34,2.85l-4.1-2.78l-4.64,2.8l-4-2.91l-4.48,2.95l-4.19-2.79l-4.87,2.82
				l-0.24-0.4l5.16-3.82l0.12,0.84l8.56-0.69l0.02-0.89l3.87,2.62l4.43-2.86l4.43,3.02l4.05-3.06l4.27,2.86l4.48-2.8l4.14,2.85
				l4.44-2.9l4.19,2.89l4.66-2.99l2.79,2.92l-2.77,0.55l-0.22-0.33l-0.22,0.41l-5.1,1.02l-3.26-2.27L1275.19,233.97z
				 M1151.42,280.04c-0.01-4.55-0.03-9.1-0.05-13.66c-0.04-10.2-0.08-20.74,0-31.11c0.01-1.13,0.17-4.92,1.85-6.5
				c9.11-8.55,18.21-16.73,27.84-25.4c2.82-2.54,5.65-5.09,8.5-7.66c2.58,2.32,5.15,4.64,7.71,6.96
				c9.46,8.53,19.24,17.34,28.73,26.09c1.02,0.94,1.49,2.98,1.5,4.47c0.17,32.24,0.2,58.64,0.09,83.09c-0.01,1-1.85,3.07-2.74,3.07
				c-21.88,0.14-44.13,0.08-65.65,0.01l-6.12-0.02c-0.24,0-0.52-0.11-0.94-0.27c-0.21-0.08-0.44-0.17-0.72-0.26v-11.69
				C1151.43,298.16,1151.44,289.1,1151.42,280.04 M1232.71,229.2c-0.32-0.13-0.64-0.26-0.97-0.38c-0.94-0.35-1.83-0.69-2.48-1.27
				c-9.62-8.56-19.36-17.32-28.78-25.79l-9.32-8.38c-0.28-0.25-0.57-0.46-0.91-0.71c-0.16-0.12-0.33-0.24-0.51-0.38l-0.26-0.2
				l-0.25,0.21c-6.42,5.42-12.7,11.21-18.78,16.8c-7.75,7.13-15.76,14.51-24.12,21.19l-1.2-1.36l44.38-40.16
				c0.45,0.36,0.87,0.69,1.28,1.01c0.96,0.75,1.78,1.4,2.56,2.1c10.51,9.58,21,19.17,31.5,28.76l8.35,7.63L1232.71,229.2z
				 M1279.25,207.7l-3.97,2.77l-4.61-2.91l-4.03,2.91l-4.41-2.92l-4.29,2.93l-4.33-2.91l-4.23,2.96l-4.42-3l-4.16,2.99l-4.28-2.89
				l-4.34,2.93l-4.09-3.04l-3.16,2.3l-8.68-1.51l3.36-2.61c0.48,0.27,0.98,0.61,1.47,0.94c1.43,0.96,2.92,1.95,4.22,1.57
				c0.65-0.19,1.16-0.69,1.57-1.51h17.73l0.01,0.13h9.25l-0.05-0.39c0.51,0.04,1.01,0.09,1.52,0.14c1.53,0.14,3.11,0.28,4.67,0.35
				l0.68,0.03c1.79,0.06,3.48,0.12,5.31,1.14l0.2,0.11l4.64-2.63l4.3,2.81l0.26-1.66c0.6,0.06,1.2,0.13,1.8,0.21
				c1.68,0.2,3.42,0.41,5.14,0.35c1.29-0.04,2.58-0.39,4.2-0.82c0.79-0.21,1.68-0.45,2.7-0.69l2.7,2.21l-9.24,1.8L1279.25,207.7z"/>
		</g>
		<g>
			<defs>
				<rect id="SVGID_3_" x="2.81" y="174.44" width="1373.51" height="147.12"/>
			</defs>
			<clipPath id="SVGID_4_">
				<use xlink:href="#SVGID_3_"  style="overflow:visible;"/>
			</clipPath>
			<path class="st3" d="M424.95,268.1h21.01v-38.67h-21.01V268.1z M442.54,265.09h-13.89v-8.83h13.89V265.09z M428.62,232.23h13.9
				v8.96h-13.9V232.23z M442.55,252.77h-13.99v-7.96h13.99V252.77z"/>
		</g>
		<g>
			<defs>
				<rect id="SVGID_5_" x="2.81" y="174.44" width="1373.51" height="147.12"/>
			</defs>
			<clipPath id="SVGID_6_">
				<use xlink:href="#SVGID_5_"  style="overflow:visible;"/>
			</clipPath>
			<path class="st4" d="M375.99,305.41h21.02v-26.74h-21.02V305.41z M379.44,281.7h14.13v8.52h-14.13V281.7z M393.33,301.95
				c-0.88,0.95-3.1,0.94-7.15,0.9c-0.85-0.01-1.69-0.01-2.56-0.01c-0.71,0-1.43,0-2.19,0h-2.21v-8.97h14.13
				c0.03,0.04,0.07,0.08,0.1,0.12c0.1,0.12,0.24,0.29,0.25,0.37C394.05,298.78,394.23,300.98,393.33,301.95"/>
		</g>
		<g>
			<defs>
				<rect id="SVGID_7_" x="2.81" y="174.44" width="1373.51" height="147.12"/>
			</defs>
			<clipPath id="SVGID_8_">
				<use xlink:href="#SVGID_7_"  style="overflow:visible;"/>
			</clipPath>
			<path class="st5" d="M396.94,267.57c0-2.2-0.01-4.37-0.02-6.51c-0.03-5.25-0.05-10.21,0.07-15.23c0.05-1.94-0.29-3.16-1.08-3.95
				c-0.75-0.75-1.88-1.07-3.57-1.02c-3.31,0.11-6.59,0.09-10.39,0.06c-1.73-0.01-3.55-0.02-5.5-0.02h-0.41v27.09h20.91v-0.42H396.94
				z M379.47,255.91c0.98,0,1.96-0.02,2.94-0.03c2.9-0.04,5.89-0.08,8.8,0.15c0.88,0.07,2.35,1.45,2.55,2.38
				c0.31,1.47,0.25,3.02,0.19,4.82c-0.02,0.67-0.05,1.37-0.06,2.1h-14.42L379.47,255.91L379.47,255.91z M386.61,253.33
				c-0.97,0-1.93,0-2.92,0c-0.75,0-1.5,0-2.28,0h-2.11c-0.03-0.57-0.07-1.09-0.1-1.58c-0.08-1.23-0.15-2.3-0.16-3.34
				c-0.01-0.95,0.06-1.89,0.13-2.98c0.03-0.4,0.05-0.82,0.08-1.26h14.18c0.04,0.11,0.08,0.21,0.12,0.31
				c0.14,0.34,0.25,0.63,0.28,0.91c0.4,4.1,0.55,6.1-0.28,7.02C392.72,253.3,390.71,253.34,386.61,253.33"/>
		</g>
		<g>
			<defs>
				<rect id="SVGID_9_" x="2.81" y="174.44" width="1373.51" height="147.12"/>
			</defs>
			<clipPath id="SVGID_10_">
				<use xlink:href="#SVGID_9_"  style="overflow:visible;"/>
			</clipPath>
			<path class="st6" d="M496.41,278.88H475.4v26.64h21.01V278.88z M493.22,293.72v9.15h-6.56c-4.39,0-6.81,0.01-7.7-1.04
				c-0.91-1.06-0.58-3.43,0.13-8.11H493.22z M478.92,281.64h14.43v8.48h-14.43V281.64z"/>
		</g>
		<g>
			<defs>
				<rect id="SVGID_11_" x="2.81" y="174.44" width="1373.51" height="147.12"/>
			</defs>
			<clipPath id="SVGID_12_">
				<use xlink:href="#SVGID_11_"  style="overflow:visible;"/>
			</clipPath>
			<path class="st7" d="M496.43,267.71c0-1.98,0.02-3.94,0.03-5.89c0.04-5.36,0.09-10.42-0.19-15.57c-0.1-1.82-2.14-4.93-3.71-5.1
				c-3.69-0.4-7.51-0.34-11.55-0.28c-1.61,0.02-3.29,0.05-5.05,0.05h-0.41v27.2h20.87L496.43,267.71L496.43,267.71z M493.09,253.36
				c-0.98,0-1.96,0.02-2.95,0.04c-2.86,0.05-5.82,0.11-8.68-0.21c-0.99-0.11-2.4-1.91-2.81-3.26c-0.35-1.14-0.28-2.46-0.2-3.98
				c0.03-0.63,0.07-1.27,0.08-1.96h14.55v9.37H493.09z M493.16,256.36v8.82h-14.19c-0.66-4.48-0.97-7.29,0.26-8.57
				C480.76,255.04,485.07,255.43,493.16,256.36"/>
		</g>
		<g>
			<defs>
				<rect id="SVGID_13_" x="2.81" y="174.44" width="1373.51" height="147.12"/>
			</defs>
			<clipPath id="SVGID_14_">
				<use xlink:href="#SVGID_13_"  style="overflow:visible;"/>
			</clipPath>
			<path class="st8" d="M185.84,223.38h-0.41c-2.06,0-4.11-0.01-6.13-0.01c-6.53-0.02-12.7-0.04-18.95,0.13
				c-1.3,0.03-3.36,1.86-3.4,3.01c-0.18,6.31-0.17,12.58-0.15,19.21c0.01,1.99,0.01,4,0.01,6.04v0.41h29.02L185.84,223.38
				L185.84,223.38z M160.06,226.62h22.96v22.83h-22.96V226.62z"/>
		</g>
		<g>
			<defs>
				<rect id="SVGID_15_" x="2.81" y="174.44" width="1373.51" height="147.12"/>
			</defs>
			<clipPath id="SVGID_16_">
				<use xlink:href="#SVGID_15_"  style="overflow:visible;"/>
			</clipPath>
			<path class="st9" d="M60.46,252.12H88.9v-28.25H60.46V252.12z M86.22,249.23H63.57v-22.5h22.66L86.22,249.23L86.22,249.23z"/>
		</g>
		<g>
			<defs>
				<rect id="SVGID_17_" x="2.81" y="174.44" width="1373.51" height="147.12"/>
			</defs>
			<clipPath id="SVGID_18_">
				<use xlink:href="#SVGID_17_"  style="overflow:visible;"/>
			</clipPath>
			<path class="st10" d="M60.74,307.17h19.62v-28.49H60.74V307.17z M77.32,304.27H63.36v-22.6h13.96V304.27z"/>
		</g>
		<g>
			<defs>
				<rect id="SVGID_19_" x="2.81" y="174.44" width="1373.51" height="147.12"/>
			</defs>
			<clipPath id="SVGID_20_">
				<use xlink:href="#SVGID_19_"  style="overflow:visible;"/>
			</clipPath>
			<path class="st11" d="M166.25,307.16h19.65v-28.29h-19.65V307.16z M183.04,304.28h-14.23v-22.81h14.23V304.28z"/>
		</g>
		<g>
			<defs>
				<rect id="SVGID_21_" x="2.81" y="174.44" width="1373.51" height="147.12"/>
			</defs>
			<clipPath id="SVGID_22_">
				<use xlink:href="#SVGID_21_"  style="overflow:visible;"/>
			</clipPath>
			<path class="st12" d="M115.65,239.24h15.37v-15.58h-15.37V239.24z M128.07,236.89h-9.94v-10.26h9.94V236.89z"/>
		</g>
		<g>
			<defs>
				<rect id="SVGID_23_" x="2.81" y="174.44" width="1373.51" height="147.12"/>
			</defs>
			<clipPath id="SVGID_24_">
				<use xlink:href="#SVGID_23_"  style="overflow:visible;"/>
			</clipPath>
			<path class="st13" d="M1189.53,221.46h0.05c4.74-0.03,8.5-3.8,8.58-8.58c0.04-2.45-0.87-4.72-2.54-6.37s-3.91-2.52-6.34-2.45
				c-4.68,0.13-8.44,4.11-8.37,8.87C1180.98,217.73,1184.76,221.46,1189.53,221.46"/>
		</g>
		<g>
			<defs>
				<rect id="SVGID_25_" x="2.81" y="174.44" width="1373.51" height="147.12"/>
			</defs>
			<clipPath id="SVGID_26_">
				<use xlink:href="#SVGID_25_"  style="overflow:visible;"/>
			</clipPath>
			<path class="st14" d="M1199.74,240.52h-20.4v27.8h20.4V240.52z M1183.14,243.39h12.69v9.33h-12.69V243.39z M1183.17,256.04h12.84
				v9.53h-12.84V256.04z"/>
		</g>
		<g>
			<defs>
				<rect id="SVGID_27_" x="2.81" y="174.44" width="1373.51" height="147.12"/>
			</defs>
			<clipPath id="SVGID_28_">
				<use xlink:href="#SVGID_27_"  style="overflow:visible;"/>
			</clipPath>
			<path class="st15" d="M1176.16,267.99c-0.12-0.74-0.27-1.47-0.41-2.18c-0.31-1.51-0.59-2.94-0.63-4.37
				c-0.06-2.42-0.05-4.89-0.03-7.29c0.02-3.09,0.04-6.28-0.11-9.41c-0.07-1.48-1.43-4.21-2.64-4.3c-3.95-0.28-7.88-0.24-12.05-0.21
				c-1.4,0.01-2.82,0.02-4.26,0.02h-0.41v28.2h20.61L1176.16,267.99z M1158.76,243.23h12.99v9.3h-12.99V243.23z M1158.77,256.04
				h13.08v9.39h-13.08V256.04z"/>
		</g>
		<g>
			<defs>
				<rect id="SVGID_29_" x="2.81" y="174.44" width="1373.51" height="147.12"/>
			</defs>
			<clipPath id="SVGID_30_">
				<use xlink:href="#SVGID_29_"  style="overflow:visible;"/>
			</clipPath>
			<path class="st16" d="M1199.77,278.8h-20.56v27.73h20.56V278.8z M1183.27,281.36h12.65v9.46h-12.65V281.36z M1183.14,294.2h12.83
				v9.62h-12.83V294.2z"/>
		</g>
		<g>
			<defs>
				<rect id="SVGID_31_" x="2.81" y="174.44" width="1373.51" height="147.12"/>
			</defs>
			<clipPath id="SVGID_32_">
				<use xlink:href="#SVGID_31_"  style="overflow:visible;"/>
			</clipPath>
			<path class="st17" d="M1223.86,240.51h-19.93v27.99h19.93V240.51z M1220.35,265.6h-13.03v-9.5h13.03V265.6z M1207.2,243.45h13.19
				v9.12h-13.19V243.45z"/>
		</g>
		<g>
			<defs>
				<rect id="SVGID_33_" x="2.81" y="174.44" width="1373.51" height="147.12"/>
			</defs>
			<clipPath id="SVGID_34_">
				<use xlink:href="#SVGID_33_"  style="overflow:visible;"/>
			</clipPath>
			<path class="st18" d="M1175.25,278.67h-19.96v27.88h19.96V278.67z M1170.15,294.39l1.72,0.15v8.94h-12.79
				c-0.11-0.75-0.22-1.45-0.32-2.1c-0.56-3.6-0.9-5.78-0.04-6.7C1159.81,293.5,1163.27,293.8,1170.15,294.39 M1158.71,281.35h13.21
				v9.48h-13.21V281.35z"/>
		</g>
		<g>
			<defs>
				<rect id="SVGID_35_" x="2.81" y="174.44" width="1373.51" height="147.12"/>
			</defs>
			<clipPath id="SVGID_36_">
				<use xlink:href="#SVGID_35_"  style="overflow:visible;"/>
			</clipPath>
			<path class="st19" d="M1223.93,278.71h-20.11v27.86h20.11V278.71z M1207.13,303.47v-9.1h12.9c0.81,5.08,1.16,7.81,0.08,8.96
				c-1.19,1.27-4.34,0.96-10.61,0.36C1208.76,303.62,1207.97,303.55,1207.13,303.47 M1207.37,290.79v-9.45H1220
				c0.85,4.99,1.25,7.88,0.17,9.07c-1.13,1.24-4.23,1.01-9.86,0.6C1209.41,290.93,1208.43,290.86,1207.37,290.79"/>
		</g>
		<g>
			<defs>
				<rect id="SVGID_37_" x="2.81" y="174.44" width="1373.51" height="147.12"/>
			</defs>
			<clipPath id="SVGID_38_">
				<use xlink:href="#SVGID_37_"  style="overflow:visible;"/>
			</clipPath>
			<path class="st20" d="M912.59,234.77c-0.6-0.37-1.77-0.49-2.42-0.11c-4.27,2.5-8.46,5.03-13.3,7.95l-4.84,2.92l0.57,0.35
				c7.07,4.37,6.86,10.09,6.63,16.15c-0.03,0.84-0.06,1.68-0.07,2.52c0,0.04-0.01,0.09-0.01,0.13c-0.02,0.2-0.06,0.47,0.13,0.68
				c0.3,0.32,0.61,0.75,0.91,1.15c0.76,1.03,1.55,2.1,2.51,2.15c3.2,0.15,6.36,0.19,9.59,0.19c1.63,0,3.28-0.01,4.95-0.02
				c1.66-0.01,3.34-0.02,5.03-0.02h0.32l0.08-0.31c0.62-2.52,0.6-5.16,0.58-7.71c-0.04-5.61-0.08-10.91,6.2-14.93l0.55-0.35
				l-4.79-2.98C920.58,239.68,916.6,237.2,912.59,234.77 M920.36,263.06c0.03,0.91,0.07,1.85,0.08,2.81h-18.41
				c0-1.52-0.02-3.01-0.04-4.48c-0.04-3.61-0.09-7.02,0.1-10.44c0.08-1.46,1.33-3.03,3.42-4.32c2.89-1.77,6.41-2.43,8.37-1.56
				c5.5,2.42,7.55,6.01,6.64,11.62C920.19,258.74,920.27,260.84,920.36,263.06 M907.02,242.52c-2.08,1.64-4.51,2.95-6.81,4.12
				c-0.44,0.23-1.1,0.16-1.79,0.09c-0.25-0.02-0.49-0.05-0.74-0.06l-0.28-0.8c0.95-0.59,1.9-1.19,2.86-1.79
				c3.32-2.08,6.76-4.24,10.19-6.27c0.36-0.22,1.38-0.06,2.01,0.31c3.2,1.89,6.41,3.87,9.52,5.79l2.88,1.77l-0.4,1.28
				c-0.25-0.04-0.5-0.07-0.75-0.1c-0.79-0.1-1.54-0.18-2.15-0.5c-2.12-1.1-4.36-2.33-6.34-3.87c-1.41-1.1-2.75-1.65-4.09-1.65
				C909.79,240.85,908.44,241.41,907.02,242.52"/>
		</g>
		<g>
			<defs>
				<rect id="SVGID_39_" x="2.81" y="174.44" width="1373.51" height="147.12"/>
			</defs>
			<clipPath id="SVGID_40_">
				<use xlink:href="#SVGID_39_"  style="overflow:visible;"/>
			</clipPath>
			<path class="st21" d="M1035.96,245.83l0.58-0.35l-0.58-0.36c-1.62-1-3.15-1.95-4.63-2.87c-4.2-2.61-7.82-4.86-11.58-7.05
				c-0.94-0.55-2.76-0.72-3.78-0.14c-3.88,2.21-7.67,4.53-12.05,7.22c-1.54,0.95-3.16,1.93-4.87,2.98l-0.61,0.37l0.63,0.34
				c7.13,3.81,6.98,9.33,6.81,15.18c-0.07,2.33-0.13,4.74,0.29,7.03l0.06,0.34h22.94l0.06-0.34c0.38-2.29,0.33-4.66,0.28-6.97
				C1029.41,255.33,1029.3,249.76,1035.96,245.83 M1026.72,262.95c0.03,0.95,0.07,1.93,0.08,2.94h-18.1c0-1.48-0.02-2.93-0.03-4.37
				c-0.04-3.61-0.07-7.01,0.09-10.46c0.07-1.59,1.36-3.27,3.53-4.61c2.8-1.73,6.13-2.34,8.1-1.47c5.31,2.35,7.31,5.82,6.5,11.26
				C1026.57,258.41,1026.64,260.61,1026.72,262.95 M1031.59,245.32l-0.2,1.13c-0.28,0.05-0.57,0.12-0.85,0.19
				c-0.47,0.11-1.44,0.35-1.6,0.19c-7.09-6.94-14.64-6.82-23.08,0.36c-0.09,0.06-0.48,0.01-0.69-0.01
				c-0.13-0.02-0.26-0.03-0.38-0.04l-0.76-0.95c3.53-3.57,8.49-7.7,12.59-7.75c0.03,0,0.06,0,0.09,0c3.42,0,7,2.19,10.45,4.31
				C1028.61,243.64,1030.11,244.56,1031.59,245.32"/>
		</g>
		<g>
			<defs>
				<rect id="SVGID_41_" x="2.81" y="174.44" width="1373.51" height="147.12"/>
			</defs>
			<clipPath id="SVGID_42_">
				<use xlink:href="#SVGID_41_"  style="overflow:visible;"/>
			</clipPath>
			<path class="st22" d="M669.39,229.58c0.01-1.9,0.01-3.85,0.01-5.84v-0.41h-16.02v23.49h0.41c1.3,0,2.54-0.01,3.75-0.02
				c2.64-0.02,5.14-0.04,7.6,0.05c0.12,0,0.23,0.01,0.35,0.01c1.37,0,2.32-0.3,2.97-0.94c0.69-0.68,1.01-1.74,0.98-3.24
				C669.36,238.39,669.37,234.11,669.39,229.58 M666.13,243.69H655.9V230.8h10.23V243.69z M655.86,226.27h10.21l0.01,0.47h-10.2
				L655.86,226.27z"/>
		</g>
		<g>
			<defs>
				<rect id="SVGID_43_" x="2.81" y="174.44" width="1373.51" height="147.12"/>
			</defs>
			<clipPath id="SVGID_44_">
				<use xlink:href="#SVGID_43_"  style="overflow:visible;"/>
			</clipPath>
			<path class="st23" d="M722.4,246.85c1.12,0.02,2.18,0.05,3.2,0.05c1.63,0,3.18-0.06,4.73-0.26c1.42-0.19,3.69-2.19,3.77-3.68
				c0.26-4.63,0.22-9.22,0.19-14.09c-0.01-1.71-0.03-3.44-0.03-5.19v-0.41h-16.01v23.53h0.41
				C719.97,246.8,721.21,246.82,722.4,246.85 M730.85,226.6h-9.99v-0.43h9.99V226.6z M730.94,243.56h-10.03v-12.9h10.03V243.56z"/>
		</g>
		<g>
			<defs>
				<rect id="SVGID_45_" x="2.81" y="174.44" width="1373.51" height="147.12"/>
			</defs>
			<clipPath id="SVGID_46_">
				<use xlink:href="#SVGID_45_"  style="overflow:visible;"/>
			</clipPath>
			<path class="st24" d="M634.18,246.39h15.45v-23.27h-15.45V246.39z M646.72,226.55h-10.08l-0.01-0.34h10.08L646.72,226.55z
				 M646.86,243.52h-10.11v-12.68h10.11V243.52z"/>
		</g>
		<g>
			<defs>
				<rect id="SVGID_47_" x="2.81" y="174.44" width="1373.51" height="147.12"/>
			</defs>
			<clipPath id="SVGID_48_">
				<use xlink:href="#SVGID_47_"  style="overflow:visible;"/>
			</clipPath>
			<path class="st25" d="M702.8,246.86c1.11,0.02,2.2,0.03,3.27,0.03c1.8,0,3.57-0.04,5.33-0.19c1.2-0.1,3.22-1.84,3.26-3.07
				c0.19-4.97,0.17-9.87,0.15-15.05c-0.01-1.66-0.01-3.34-0.01-5.04v-0.41h-15.88v23.7h0.41
				C700.52,246.82,701.67,246.84,702.8,246.86 M711.64,243.52h-9.98v-12.76h9.98V243.52z M711.71,226.18v0.58h-10.04l0.05-0.58
				H711.71z"/>
		</g>
		<g>
			<defs>
				<rect id="SVGID_49_" x="2.81" y="174.44" width="1373.51" height="147.12"/>
			</defs>
			<clipPath id="SVGID_50_">
				<use xlink:href="#SVGID_49_"  style="overflow:visible;"/>
			</clipPath>
			<path class="st26" d="M676.14,217.56h15.73v-15.43h-15.73V217.56z M678.29,204.9h10.59v9.8c-0.97,0.03-2.01,0.14-3.02,0.24
				c-2.53,0.27-5.14,0.55-6.36-0.53c-1.16-1.02-1.15-3.56-1.14-6.24C678.36,207.09,678.36,205.97,678.29,204.9"/>
		</g>
		<g>
			<defs>
				<rect id="SVGID_51_" x="2.81" y="174.44" width="1373.51" height="147.12"/>
			</defs>
			<clipPath id="SVGID_52_">
				<use xlink:href="#SVGID_51_"  style="overflow:visible;"/>
			</clipPath>
			<path class="st27" d="M684.35,287.59h-15.36v23.16h15.36V287.59z M671.65,294.97h9.82v12.83h-9.82V294.97z"/>
		</g>
		<g>
			<defs>
				<rect id="SVGID_53_" x="2.81" y="174.44" width="1373.51" height="147.12"/>
			</defs>
			<clipPath id="SVGID_54_">
				<use xlink:href="#SVGID_53_"  style="overflow:visible;"/>
			</clipPath>
			<path class="st28" d="M703.66,287.56h-15.41v23.15h15.41V287.56z M690.84,294.86h9.93v12.84h-9.93V294.86z"/>
		</g>
		<g>
			<defs>
				<rect id="SVGID_55_" x="2.81" y="174.44" width="1373.51" height="147.12"/>
			</defs>
			<clipPath id="SVGID_56_">
				<use xlink:href="#SVGID_55_"  style="overflow:visible;"/>
			</clipPath>
			<path class="st29" d="M234.94,264.87c-1.36-1.29-2.33-2.22-3.27-2.04c-1.24,0.25-2.22,1.42-3.16,2.56
				c-0.38,0.46-0.77,0.93-1.17,1.31l-0.3,0.3l0.31,0.29c0.37,0.35,0.75,0.78,1.12,1.2c0.91,1.04,1.84,2.11,2.97,2.24
				c0.07,0.01,0.14,0.01,0.21,0.01c0.98,0,1.99-0.75,3.24-1.69c0.65-0.48,1.38-1.03,2.22-1.56l0.48-0.3l-0.45-0.36
				C236.31,266.18,235.58,265.48,234.94,264.87"/>
		</g>
		<g>
			<defs>
				<rect id="SVGID_57_" x="2.81" y="174.44" width="1373.51" height="147.12"/>
			</defs>
			<clipPath id="SVGID_58_">
				<use xlink:href="#SVGID_57_"  style="overflow:visible;"/>
			</clipPath>
			<path class="st30" d="M1251.75,248.48c-3.81-0.21-7.62-0.18-11.65-0.15c-1.46,0.01-2.94,0.02-4.46,0.02h-0.41V276h19.95v-0.41
				c0-1.95,0.01-3.88,0.01-5.79c0.02-6.28,0.04-12.21-0.15-18.22C1255.01,250.41,1253.04,248.55,1251.75,248.48 M1251.89,273.18
				h-5.2v-11.61h5.2V273.18z M1243.13,261.18v11.93h-5.46v-11.65L1243.13,261.18z M1237.77,251.68h14.13v6.09h-14.13V251.68z"/>
		</g>
		<g>
			<defs>
				<rect id="SVGID_59_" x="2.81" y="174.44" width="1373.51" height="147.12"/>
			</defs>
			<clipPath id="SVGID_60_">
				<use xlink:href="#SVGID_59_"  style="overflow:visible;"/>
			</clipPath>
			<path class="st31" d="M1278.94,248.49c-3.96-0.22-7.88-0.19-12.03-0.16c-1.44,0.01-2.91,0.02-4.39,0.02h-0.41v27.71h20.05v-0.41
				c0-2.05,0.01-4.06,0.01-6.04c0.02-6.17,0.04-12-0.14-17.83C1282,250.53,1280.15,248.56,1278.94,248.49 M1270.04,273.18h-5.31
				v-11.77h5.31V273.18z M1264.59,251.66h14.33v6.11h-14.33V251.66z M1273.72,261.47h5.27v11.68h-5.27V261.47z"/>
		</g>
		<g>
			<defs>
				<rect id="SVGID_61_" x="2.81" y="174.44" width="1373.51" height="147.12"/>
			</defs>
			<clipPath id="SVGID_62_">
				<use xlink:href="#SVGID_61_"  style="overflow:visible;"/>
			</clipPath>
			<path class="st32" d="M1235.04,307.46h19.82v-27.11h-19.82V307.46z M1252.35,282.96c-0.13,0.79-0.23,1.66-0.33,2.51
				c-0.17,1.43-0.42,3.59-0.69,3.84c-4.19,0.68-8.73,0.71-13.05,0.12c-0.31-0.27-0.58-2.29-0.78-3.76
				c-0.12-0.91-0.25-1.84-0.41-2.71H1252.35z M1237.61,294.96c0.2-0.79,1.71-1.46,3.17-2.11c0.62-0.28,1.27-0.56,1.87-0.88
				c1.62,7.2,1.71,10.61,0.32,12.08c-0.92,0.99-2.61,1.21-5.6,0.76c-0.01-0.86-0.05-1.75-0.09-2.62
				C1237.17,299.77,1237.05,297.26,1237.61,294.96 M1251.93,304.91h-5.27V293h5.27V304.91z"/>
		</g>
		<g>
			<defs>
				<rect id="SVGID_63_" x="2.81" y="174.44" width="1373.51" height="147.12"/>
			</defs>
			<clipPath id="SVGID_64_">
				<use xlink:href="#SVGID_63_"  style="overflow:visible;"/>
			</clipPath>
			<path class="st33" d="M1032.2,287.81c-2.49-0.33-4.95-0.27-7.57-0.21c-1,0.02-2.01,0.05-3.02,0.05h-0.41v23.32l0.35,0.05
				c3.77,0.53,6.54,0.92,8.57,0.92c1.75,0,2.96-0.29,3.8-1.02c1.76-1.53,1.76-4.79,1.75-11.29c0-0.77,0.02-1.54,0.05-2.31
				c0.06-1.91,0.13-3.89-0.22-5.79C1035.24,290.09,1033.56,287.99,1032.2,287.81 M1032.34,308.44h-8.07v-17.77h8.07V308.44z"/>
		</g>
		<g>
			<defs>
				<rect id="SVGID_65_" x="2.81" y="174.44" width="1373.51" height="147.12"/>
			</defs>
			<clipPath id="SVGID_66_">
				<use xlink:href="#SVGID_65_"  style="overflow:visible;"/>
			</clipPath>
			<path class="st34" d="M1003.85,288.43c-1.72,1.53-1.7,4.71-1.65,11.04v0.54c0.03,6.41,0.04,9.62,1.75,11.11
				c0.82,0.71,1.97,0.98,3.64,0.98c1.83,0,4.29-0.33,7.61-0.77c0.22-0.03,0.36-0.16,0.56-0.35c0.1-0.09,0.23-0.21,0.41-0.37
				l0.15-0.12v-22.33l-0.36-0.04C1009.07,287.28,1005.62,286.85,1003.85,288.43 M1013.54,308.37h-7.92v-17.79h7.92V308.37z"/>
		</g>
		<g>
			<defs>
				<rect id="SVGID_67_" x="2.81" y="174.44" width="1373.51" height="147.12"/>
			</defs>
			<clipPath id="SVGID_68_">
				<use xlink:href="#SVGID_67_"  style="overflow:visible;"/>
			</clipPath>
			<path class="st35" d="M912.82,310.66c0.79,0.78,2.14,1,4.71,1c1.25,0,2.79-0.05,4.69-0.12l2.17-0.07
				c0.42-0.01,0.79-0.22,1.19-0.44c0.18-0.1,0.37-0.21,0.58-0.3l0.24-0.11v-22.67h-14.38v0.41c0,1.45-0.01,2.83-0.02,4.16
				c-0.02,2.73-0.03,5.3,0.03,7.84c0.05,2.02,0.01,3.7-0.03,5.04C911.93,308.19,911.88,309.73,912.82,310.66 M923.44,308.47h-8.22
				v-17.8h8.22V308.47z"/>
		</g>
		<g>
			<defs>
				<rect id="SVGID_69_" x="2.81" y="174.44" width="1373.51" height="147.12"/>
			</defs>
			<clipPath id="SVGID_70_">
				<use xlink:href="#SVGID_69_"  style="overflow:visible;"/>
			</clipPath>
			<path class="st36" d="M900.07,311.68c1.41,0,2.79-0.06,4.15-0.25c1.35-0.19,3.5-2.06,3.57-3.43c0.23-4.79,0.2-9.51,0.17-14.5
				c-0.01-1.68-0.02-3.37-0.02-5.08v-0.41h-14.13v23.57h0.41c1.04,0,2.05,0.02,3.04,0.05C898.22,311.66,899.16,311.68,900.07,311.68
				 M904.94,308.39h-8.39v-17.77h8.39V308.39z"/>
		</g>
		<g>
			<defs>
				<rect id="SVGID_71_" x="2.81" y="174.44" width="1373.51" height="147.12"/>
			</defs>
			<clipPath id="SVGID_72_">
				<use xlink:href="#SVGID_71_"  style="overflow:visible;"/>
			</clipPath>
			<path class="st37" d="M1271.92,285.65c-1.77-0.12-4.48,2.54-4.83,4.27c-0.23,1.12,0.67,2.33,1.92,3.99
				c0.6,0.8,1.29,1.71,1.94,2.75l0.3,0.48l0.36-0.44c0.78-0.96,1.58-1.79,2.28-2.53c1.45-1.52,2.5-2.62,2.4-3.77
				C1276.13,288.5,1273.59,285.75,1271.92,285.65"/>
		</g>
		<g>
			<defs>
				<rect id="SVGID_73_" x="2.81" y="174.44" width="1373.51" height="147.12"/>
			</defs>
			<clipPath id="SVGID_74_">
				<use xlink:href="#SVGID_73_"  style="overflow:visible;"/>
			</clipPath>
			<path class="st38" d="M445.94,311.44c0.4-0.36,0.92-0.72,1.42-1.08c1.25-0.88,2.43-1.71,2.47-2.75c0.25-6.61,0.22-13.11,0.19-20
				c-0.01-2.18-0.02-4.37-0.02-6.58v-0.41h-6.04v29.62l1.71,1.44L445.94,311.44z M446.7,283.77v23.46h-0.22v-23.46H446.7z"/>
		</g>
		<g>
			<defs>
				<rect id="SVGID_75_" x="2.81" y="174.44" width="1373.51" height="147.12"/>
			</defs>
			<clipPath id="SVGID_76_">
				<use xlink:href="#SVGID_75_"  style="overflow:visible;"/>
			</clipPath>
			<path class="st39" d="M442.31,280.59h-13.53v20.07h13.53V280.59z M431.03,290.09c-0.04-3.81-0.07-5.9,0.87-6.73
				c1.01-0.9,3.45-0.6,8.26,0.03c0,0.99,0.01,1.99,0.02,3c0.03,3.32,0.06,6.76-0.15,10.15c-0.03,0.5-1.55,1.63-2.53,1.75
				c-1.39,0.16-2.81,0.02-4.47-0.14c-0.63-0.06-1.29-0.12-1.99-0.18v-2.38C431.05,293.71,431.05,291.91,431.03,290.09"/>
		</g>
		<g>
			<defs>
				<rect id="SVGID_77_" x="2.81" y="174.44" width="1373.51" height="147.12"/>
			</defs>
			<clipPath id="SVGID_78_">
				<use xlink:href="#SVGID_77_"  style="overflow:visible;"/>
			</clipPath>
			<path class="st40" d="M428.84,310.51h13.58v-8.35h-13.58V310.51z M431.37,306.04c0.65-0.75,1.33-1.52,1.96-1.59
				c1.48-0.15,3.05,0.13,4.58,0.41c0.48,0.09,0.95,0.17,1.43,0.25c-0.12,0.27-0.24,0.56-0.36,0.84c-0.34,0.83-0.76,1.87-1.2,1.98
				c-1.46,0.36-3.08,0.29-4.66,0.22c-0.59-0.03-1.18-0.05-1.77-0.06l-0.75-1.21C430.87,306.62,431.12,306.32,431.37,306.04"/>
		</g>
		<g>
			<defs>
				<rect id="SVGID_79_" x="2.81" y="174.44" width="1373.51" height="147.12"/>
			</defs>
			<clipPath id="SVGID_80_">
				<use xlink:href="#SVGID_79_"  style="overflow:visible;"/>
			</clipPath>
			<path class="st41" d="M115.83,312.8h14.99v-27.23h-14.99C115.83,285.57,115.83,312.8,115.83,312.8z M128.09,308.42
				c-0.02,0.69-1.38,2-2.19,2.12c-1.67,0.25-3.42,0.21-5.28,0.16c-0.67-0.02-1.36-0.04-2.06-0.04v-22.39h9.66
				c0,1.55,0.01,3.09,0.01,4.62C128.23,298.23,128.25,303.28,128.09,308.42"/>
		</g>
	</g>
</g>
</svg>
