<?xml version="1.0" encoding="utf-8"?>
<!-- Generator: Adobe Illustrator 23.0.0, SVG Export Plug-In . SVG Version: 6.00 Build 0)  -->
<svg version="1.1" id="Layer_1" xmlns="http://www.w3.org/2000/svg" xmlns:xlink="http://www.w3.org/1999/xlink" x="0px" y="0px"
	 viewBox="0 0 243.74 210.57" style="enable-background:new 0 0 243.74 210.57;" xml:space="preserve">
<style type="text/css">
	.st0{fill:#0E727E;}
</style>
<path class="st0" d="M121.91,51.49c5.75-8.3,11.98-15.65,19.67-21.65c8.77-6.84,18.49-11.51,29.7-12.53
	c17.07-1.55,31.05,4.53,42.63,17c16.03,17.25,19.91,49.38,2.24,71.11c-9.98,12.28-21.48,22.96-33.28,33.39
	c-17.29,15.28-34.49,30.64-51.7,46c-3.2,2.86-6.23,5.9-9.5,9.03c-0.03-0.02-0.44-0.19-0.71-0.48
	c-17.96-19.05-38.24-35.53-57.94-52.67c-11.54-10.04-23.02-20.16-32.78-32.02c-6.42-7.8-11.9-16.15-13.41-26.44
	C13.41,58.9,20.11,39.27,39.8,25.7c18.02-12.41,37-11.35,55.57-0.5c10.05,5.88,17.81,14.27,24.57,23.63
	C120.51,49.62,121.1,50.39,121.91,51.49 M121.8,82.97c-0.8-1.15-1.46-2.09-2.1-3.03c-4.62-6.8-9.17-13.65-13.86-20.4
	c-4.78-6.88-10.34-13.04-17.32-17.76c-9.68-6.56-20.16-9.25-31.52-5.23C33.59,44.84,26.6,75.9,40.64,93.08
	c6.54,8,13.58,15.71,21.2,22.67c15.97,14.59,32.48,28.58,48.73,42.87c3.81,3.35,7.47,6.88,11.24,10.36
	c0.57-0.47,0.98-0.79,1.38-1.14c13.05-11.56,26.06-23.16,39.15-34.67c12.15-10.68,24.46-21.18,35.43-33.14
	c9.74-10.62,14.54-22.48,11.51-37c-3.79-18.14-22.78-35.17-46.21-25.55c-9.46,3.88-16.72,10.65-22.67,18.74
	C134.05,64.85,128.15,73.8,121.8,82.97"/>
</svg>
