<?xml version="1.0" encoding="utf-8"?>
<!-- Generator: Adobe Illustrator 23.0.0, SVG Export Plug-In . SVG Version: 6.00 Build 0)  -->
<svg version="1.1" id="Layer_1" xmlns="http://www.w3.org/2000/svg" xmlns:xlink="http://www.w3.org/1999/xlink" x="0px" y="0px"
	 viewBox="0 0 243.74 210.57" style="enable-background:new 0 0 243.74 210.57;" xml:space="preserve">
<style type="text/css">
	.st0{fill:#0E727E;}
</style>
<path class="st0" d="M12.87,89.34c0.19-0.53,0.34-1.08,0.57-1.59c1.27-2.8,3.45-4.42,6.52-4.43c16.23-0.05,32.46-0.04,48.69-0.01
	c3.96,0.01,7.1,3.25,7.11,7.26c0.02,6.59,0.01,13.17,0.01,19.76c0,19.62,0.01,39.25-0.02,58.87c0,0.94,0.23,1.36,1.18,1.68
	c13.93,4.56,27.84,9.18,41.76,13.77c0.47,0.15,0.98,0.26,1.47,0.26c20.77,0.01,41.53,0.02,62.3,0c4.79,0,8.3-5.04,6.71-9.67H188
	c-8.4,0-16.8,0.02-25.2-0.01c-3.42-0.01-6.31-2.4-7.02-5.7c-0.72-3.34,0.89-6.74,4-8.08c1.04-0.45,2.26-0.69,3.41-0.7
	c9.07-0.06,18.15-0.03,27.22-0.03c4.28,0,7.6-3.62,7.22-7.9c-0.05-0.56-0.17-1.12-0.28-1.78h-1.24c-9.48,0-18.95,0.01-28.43-0.01
	c-3.13-0.01-5.83-1.97-6.83-4.88c-1-2.91-0.11-6.04,2.29-8c1.41-1.15,3.04-1.64,4.86-1.63c11.12,0.01,22.24,0.01,33.37,0.01
	c4.06,0,7.36-3.64,6.97-7.68c-0.19-2-0.19-2-2.19-2c-13.57,0-27.15,0.01-40.73-0.01c-2.9,0-5.14-1.29-6.51-3.83
	c-1.35-2.51-1.22-5.07,0.36-7.45c1.47-2.2,3.6-3.23,6.25-3.23c14.65,0.01,29.3,0,43.95,0c3.28,0,5.96-2.07,6.59-5.33
	c0.89-4.55-1.48-8.74-7.03-9.18c-0.8-0.06-1.61-0.01-2.42-0.01c-18.68,0-37.37,0-56.05,0c-0.94,0-1.88,0.14-2.81,0.06
	c-4.77-0.4-7.87-4.98-6.35-9.51c3.38-10.06,4.63-20.41,4.08-30.97c-0.55-10.56-2.88-20.65-8.44-29.82c-0.39-0.64-0.73-0.89-1.5-0.65
	c-1.34,0.42-2.73,0.71-4.09,1.06c-0.13,0.03-0.25,0.08-0.39,0.13c0,1.01-0.04,2.01,0.01,3.01c1,23.81-6.89,44.19-23.54,61.21
	c-2.7,2.76-5.43,5.5-8.2,8.19c-2.01,1.95-4.44,2.63-7.15,1.81c-2.66-0.8-4.37-2.61-4.99-5.31c-0.61-2.65,0.14-4.97,2.06-6.91
	c3.82-3.88,7.8-7.61,11.39-11.69c8.35-9.49,13.36-20.58,15.29-33.08c0.85-5.48,0.85-10.97,0.48-16.48c-0.13-1.98-0.25-3.96-0.3-5.94
	c-0.09-3.63,2.1-6.49,5.62-7.38c5.79-1.45,11.59-2.88,17.38-4.32c0.06-0.02,0.12-0.06,0.18-0.1h1.61c3.14,0.61,5.05,2.66,6.44,5.39
	c0.84,1.64,1.94,3.15,2.78,4.79c1.56,3.04,3.24,6.05,4.48,9.22c5.72,14.63,6.52,29.79,4.54,45.2c-0.32,2.51-0.81,5.01-1.23,7.58
	h0.84c16.2,0,32.39-0.01,48.59,0.01c1.54,0,3.1,0,4.62,0.21c5.42,0.75,10.13,3,13.65,7.24c8.11,9.76,6.7,23.59-3.1,31.63
	c-0.45,0.37-0.57,0.67-0.41,1.26c0.93,3.35,1.08,6.75,0.35,10.17c-1.3,6.08-4.57,10.82-9.8,14.18c-0.7,0.45-0.95,0.86-0.82,1.77
	c1.24,8.42-1.4,15.41-7.95,20.87c-0.54,0.45-0.6,0.81-0.45,1.43c1.83,7.57,0.2,14.34-4.93,20.16c-3.88,4.39-8.84,7.09-14.72,7.13
	c-21.7,0.14-43.41,0.06-65.12,0.03c-1.05,0-2.15-0.18-3.15-0.51c-12.84-4.22-25.67-8.48-38.5-12.72c-0.37-0.12-0.76-0.22-1.23-0.35
	c0,2.2,0.02,4.32,0,6.43c-0.05,3.94-3.2,7.16-7.12,7.16c-16.23,0.03-32.46,0.02-48.69,0c-3.05,0-5.73-2.03-6.71-4.91
	c-0.13-0.37-0.26-0.75-0.39-1.12V89.34z M61.18,97.89H27.43v86.97h33.75V97.89z"/>
</svg>
