<?xml version="1.0" encoding="utf-8"?>
<!-- Generator: Adobe Illustrator 23.0.0, SVG Export Plug-In . SVG Version: 6.00 Build 0)  -->
<svg version="1.1" id="Layer_1" xmlns="http://www.w3.org/2000/svg" xmlns:xlink="http://www.w3.org/1999/xlink" x="0px" y="0px"
	 viewBox="0 0 243.74 210.57" style="enable-background:new 0 0 243.74 210.57;" xml:space="preserve">
<style type="text/css">
	.st0{fill:#0E727E;}
</style>
<g>
	<path class="st0" d="M208.81,84.95l-13.6-2.31c-1.42-4.57-3.24-8.98-5.46-13.19l8.01-11.21c3.4-4.78,2.87-11.29-1.29-15.42
		l-12.06-12.06c-2.27-2.27-5.26-3.52-8.46-3.52c-2.51,0-4.9,0.77-6.92,2.23l-11.25,8.01c-4.37-2.31-8.94-4.21-13.68-5.62
		l-2.27-13.43c-0.97-5.79-5.95-10-11.82-10h-17.04c-5.87,0-10.85,4.21-11.82,10l-2.35,13.76c-4.53,1.42-8.94,3.28-13.15,5.54
		l-11.13-8.01c-2.02-1.46-4.45-2.23-6.96-2.23c-3.2,0-6.23,1.25-8.46,3.52l-12.1,12.06c-4.13,4.13-4.69,10.64-1.29,15.42l8.09,11.37
		c-2.23,4.25-4.01,8.66-5.38,13.23l-13.43,2.27c-5.79,0.97-10,5.95-10,11.82v17.04c0,5.87,4.21,10.85,10,11.82l13.76,2.35
		c1.42,4.53,3.28,8.94,5.54,13.15l-7.97,11.09c-3.4,4.78-2.87,11.29,1.29,15.42l12.06,12.06c2.27,2.27,5.26,3.52,8.46,3.52
		c2.51,0,4.9-0.77,6.92-2.23l11.37-8.09c4.09,2.14,8.38,3.88,12.79,5.26l2.27,13.6c0.97,5.79,5.95,10,11.82,10h17.08
		c5.87,0,10.85-4.21,11.82-10l2.31-13.6c4.57-1.42,8.98-3.24,13.19-5.46l11.21,8.01c2.02,1.46,4.45,2.23,6.96,2.23l0,0
		c3.2,0,6.19-1.25,8.46-3.52l12.06-12.06c4.13-4.13,4.69-10.64,1.29-15.42l-8.01-11.25c2.23-4.25,4.09-8.66,5.46-13.19l13.6-2.27
		c5.79-0.97,10-5.95,10-11.82V96.77C218.81,90.9,214.6,85.92,208.81,84.95z M207.88,113.8c0,0.53-0.36,0.97-0.89,1.05l-17,2.83
		c-2.14,0.36-3.84,1.94-4.37,4.01c-1.54,5.95-3.88,11.65-7.04,16.96c-1.09,1.86-1.01,4.17,0.24,5.95l10,14.08
		c0.28,0.4,0.24,1.01-0.12,1.38l-12.06,12.06c-0.28,0.28-0.57,0.32-0.77,0.32c-0.24,0-0.45-0.08-0.61-0.2l-14.04-10
		c-1.74-1.25-4.09-1.34-5.95-0.24c-5.3,3.16-11.01,5.5-16.96,7.04c-2.1,0.53-3.68,2.27-4.01,4.37l-2.87,17
		c-0.08,0.53-0.53,0.89-1.05,0.89h-17.04c-0.53,0-0.97-0.36-1.05-0.89l-2.83-17c-0.36-2.14-1.94-3.84-4.01-4.37
		c-5.79-1.5-11.37-3.8-16.59-6.8c-0.85-0.49-1.82-0.73-2.75-0.73c-1.09,0-2.23,0.32-3.16,1.01L68.8,172.6
		c-0.2,0.12-0.4,0.2-0.61,0.2c-0.16,0-0.49-0.04-0.77-0.32l-12.06-12.06c-0.36-0.36-0.4-0.93-0.12-1.38l9.95-13.96
		c1.25-1.78,1.34-4.13,0.24-5.99c-3.16-5.26-5.58-10.97-7.12-16.92c-0.57-2.06-2.27-3.64-4.37-4.01l-17.12-2.91
		c-0.53-0.08-0.89-0.53-0.89-1.05V97.17c0-0.53,0.36-0.97,0.89-1.05l16.87-2.83c2.14-0.36,3.88-1.94,4.41-4.05
		c1.5-5.95,3.8-11.69,6.92-17c1.09-1.86,0.97-4.17-0.28-5.91L54.67,52.17c-0.28-0.4-0.24-1.01,0.12-1.38l12.06-12.06
		c0.28-0.28,0.57-0.32,0.77-0.32c0.24,0,0.45,0.08,0.61,0.2l13.96,9.95c1.78,1.25,4.13,1.34,5.99,0.24
		c5.26-3.16,10.97-5.58,16.92-7.12c2.06-0.57,3.64-2.27,4.01-4.37l2.91-17.12c0.08-0.53,0.53-0.89,1.05-0.89h17.04
		c0.53,0,0.97,0.36,1.05,0.89l2.83,16.87c0.36,2.14,1.94,3.88,4.05,4.41c6.11,1.54,11.94,3.93,17.36,7.12
		c1.86,1.09,4.17,1.01,5.95-0.24l13.96-10.04c0.2-0.12,0.4-0.2,0.61-0.2c0.16,0,0.49,0.04,0.77,0.32l12.06,12.06
		c0.36,0.36,0.4,0.93,0.12,1.38l-10,14.04c-1.25,1.74-1.34,4.09-0.24,5.95c3.16,5.3,5.5,11.01,7.04,16.96
		c0.53,2.1,2.27,3.68,4.37,4.01l17,2.87c0.53,0.08,0.89,0.53,0.89,1.05v17.04H207.88z"/>
	<path class="st0" d="M121.89,63.46c-23.07,0-41.8,18.74-41.8,41.8s18.74,41.8,41.8,41.8s41.8-18.74,41.8-41.8
		S144.95,63.46,121.89,63.46z M121.89,136.14c-17.04,0-30.88-13.84-30.88-30.88s13.84-30.88,30.88-30.88s30.88,13.84,30.88,30.88
		S138.92,136.14,121.89,136.14z"/>
</g>
</svg>
