<?xml version="1.0" encoding="utf-8"?>
<!-- Generator: Adobe Illustrator 23.0.0, SVG Export Plug-In . SVG Version: 6.00 Build 0)  -->
<svg version="1.1" id="Layer_1" xmlns="http://www.w3.org/2000/svg" xmlns:xlink="http://www.w3.org/1999/xlink" x="0px" y="0px"
	 viewBox="0 0 595.28 841.89" style="enable-background:new 0 0 595.28 841.89;" xml:space="preserve">
<style type="text/css">
	.st0{fill:#0E727E;}
	.st1{fill:#F07126;}
</style>
<g>
	<path class="st0" d="M258.76,130.03c0,2.97-2.41,5.39-5.39,5.39s-5.39-2.41-5.39-5.39c0-2.97,2.41-5.38,5.39-5.38
		S258.76,127.05,258.76,130.03"/>
	<path class="st0" d="M274.03,130.03c0,2.97-2.41,5.39-5.39,5.39s-5.39-2.41-5.39-5.39c0-2.97,2.41-5.38,5.39-5.38
		S274.03,127.05,274.03,130.03"/>
	<path class="st0" d="M258.76,144.82c0,2.97-2.41,5.39-5.39,5.39s-5.39-2.41-5.39-5.39c0-2.97,2.41-5.38,5.39-5.38
		S258.76,141.84,258.76,144.82"/>
	<path class="st0" d="M274.03,144.82c0,2.97-2.41,5.39-5.39,5.39s-5.39-2.41-5.39-5.39c0-2.97,2.41-5.38,5.39-5.38
		S274.03,141.84,274.03,144.82"/>
	<path class="st0" d="M288.74,144.82c0,2.97-2.41,5.39-5.39,5.39s-5.39-2.41-5.39-5.39c0-2.97,2.41-5.38,5.39-5.38
		S288.74,141.84,288.74,144.82"/>
	<path class="st0" d="M304.01,144.82c0,2.97-2.41,5.39-5.39,5.39s-5.39-2.41-5.39-5.39c0-2.97,2.41-5.38,5.39-5.38
		S304.01,141.84,304.01,144.82"/>
	<path class="st0" d="M318.72,144.82c0,2.97-2.41,5.39-5.39,5.39s-5.39-2.41-5.39-5.39c0-2.97,2.41-5.38,5.39-5.38
		S318.72,141.84,318.72,144.82"/>
	<path class="st0" d="M258.76,160.01c0,2.97-2.41,5.39-5.39,5.39s-5.39-2.41-5.39-5.39c0-2.97,2.41-5.38,5.39-5.38
		S258.76,157.03,258.76,160.01"/>
	<path class="st0" d="M244.3,160.01c0,2.97-2.41,5.39-5.39,5.39s-5.39-2.41-5.39-5.39c0-2.97,2.41-5.38,5.39-5.38
		S244.3,157.03,244.3,160.01"/>
	<path class="st0" d="M274.03,160.01c0,2.97-2.41,5.39-5.39,5.39s-5.39-2.41-5.39-5.39c0-2.97,2.41-5.38,5.39-5.38
		S274.03,157.03,274.03,160.01"/>
	<path class="st0" d="M288.74,160.01c0,2.97-2.41,5.39-5.39,5.39s-5.39-2.41-5.39-5.39c0-2.97,2.41-5.38,5.39-5.38
		S288.74,157.03,288.74,160.01"/>
	<path class="st0" d="M304.01,160.01c0,2.97-2.41,5.39-5.39,5.39s-5.39-2.41-5.39-5.39c0-2.97,2.41-5.38,5.39-5.38
		S304.01,157.03,304.01,160.01"/>
	<path class="st0" d="M318.72,160.01c0,2.97-2.41,5.39-5.39,5.39s-5.39-2.41-5.39-5.39c0-2.97,2.41-5.38,5.39-5.38
		S318.72,157.03,318.72,160.01"/>
	<path class="st0" d="M258.76,174.83c0,2.97-2.41,5.39-5.39,5.39s-5.39-2.41-5.39-5.39c0-2.97,2.41-5.38,5.39-5.38
		S258.76,171.86,258.76,174.83"/>
	<path class="st0" d="M244.3,174.83c0,2.97-2.41,5.39-5.39,5.39s-5.39-2.41-5.39-5.39c0-2.97,2.41-5.38,5.39-5.38
		S244.3,171.86,244.3,174.83"/>
	<path class="st0" d="M274.03,174.83c0,2.97-2.41,5.39-5.39,5.39s-5.39-2.41-5.39-5.39c0-2.97,2.41-5.38,5.39-5.38
		S274.03,171.86,274.03,174.83"/>
	<path class="st0" d="M288.74,174.83c0,2.97-2.41,5.39-5.39,5.39s-5.39-2.41-5.39-5.39c0-2.97,2.41-5.38,5.39-5.38
		S288.74,171.86,288.74,174.83"/>
	<path class="st0" d="M304.01,174.83c0,2.97-2.41,5.39-5.39,5.39s-5.39-2.41-5.39-5.39c0-2.97,2.41-5.38,5.39-5.38
		S304.01,171.86,304.01,174.83"/>
	<path class="st0" d="M318.72,174.83c0,2.97-2.41,5.39-5.39,5.39s-5.39-2.41-5.39-5.39c0-2.97,2.41-5.38,5.39-5.38
		S318.72,171.86,318.72,174.83"/>
	<path class="st0" d="M258.76,189.78c0,2.97-2.41,5.39-5.39,5.39s-5.39-2.41-5.39-5.39c0-2.97,2.41-5.38,5.39-5.38
		S258.76,186.81,258.76,189.78"/>
	<path class="st0" d="M244.3,189.78c0,2.97-2.41,5.39-5.39,5.39s-5.39-2.41-5.39-5.39c0-2.97,2.41-5.38,5.39-5.38
		S244.3,186.81,244.3,189.78"/>
	<path class="st0" d="M274.03,189.78c0,2.97-2.41,5.39-5.39,5.39s-5.39-2.41-5.39-5.39c0-2.97,2.41-5.38,5.39-5.38
		S274.03,186.81,274.03,189.78"/>
	<path class="st0" d="M288.74,189.78c0,2.97-2.41,5.39-5.39,5.39s-5.39-2.41-5.39-5.39c0-2.97,2.41-5.38,5.39-5.38
		S288.74,186.81,288.74,189.78"/>
	<path class="st0" d="M304.01,189.78c0,2.97-2.41,5.39-5.39,5.39s-5.39-2.41-5.39-5.39c0-2.97,2.41-5.38,5.39-5.38
		S304.01,186.81,304.01,189.78"/>
	<path class="st0" d="M318.72,189.78c0,2.97-2.41,5.39-5.39,5.39s-5.39-2.41-5.39-5.39c0-2.97,2.41-5.38,5.39-5.38
		S318.72,186.81,318.72,189.78"/>
	<path class="st0" d="M258.76,204.37c0,2.97-2.41,5.39-5.39,5.39s-5.39-2.41-5.39-5.39c0-2.97,2.41-5.38,5.39-5.38
		S258.76,201.4,258.76,204.37"/>
	<path class="st0" d="M244.3,204.37c0,2.97-2.41,5.39-5.39,5.39s-5.39-2.41-5.39-5.39c0-2.97,2.41-5.38,5.39-5.38
		S244.3,201.4,244.3,204.37"/>
	<path class="st0" d="M274.03,204.37c0,2.97-2.41,5.39-5.39,5.39s-5.39-2.41-5.39-5.39c0-2.97,2.41-5.38,5.39-5.38
		S274.03,201.4,274.03,204.37"/>
	<path class="st0" d="M288.74,204.37c0,2.97-2.41,5.39-5.39,5.39s-5.39-2.41-5.39-5.39c0-2.97,2.41-5.38,5.39-5.38
		S288.74,201.4,288.74,204.37"/>
	<path class="st0" d="M304.01,204.37c0,2.97-2.41,5.39-5.39,5.39s-5.39-2.41-5.39-5.39c0-2.97,2.41-5.38,5.39-5.38
		S304.01,201.4,304.01,204.37"/>
	<path class="st0" d="M318.72,204.37c0,2.97-2.41,5.39-5.39,5.39s-5.39-2.41-5.39-5.39c0-2.97,2.41-5.38,5.39-5.38
		S318.72,201.4,318.72,204.37"/>
	<path class="st0" d="M258.76,219.68c0,2.97-2.41,5.39-5.39,5.39s-5.39-2.41-5.39-5.39c0-2.97,2.41-5.38,5.39-5.38
		S258.76,216.71,258.76,219.68"/>
	<path class="st0" d="M244.3,219.68c0,2.97-2.41,5.39-5.39,5.39s-5.39-2.41-5.39-5.39c0-2.97,2.41-5.38,5.39-5.38
		S244.3,216.71,244.3,219.68"/>
	<path class="st0" d="M274.03,219.68c0,2.97-2.41,5.39-5.39,5.39s-5.39-2.41-5.39-5.39c0-2.97,2.41-5.38,5.39-5.38
		S274.03,216.71,274.03,219.68"/>
	<path class="st0" d="M288.74,219.68c0,2.97-2.41,5.39-5.39,5.39s-5.39-2.41-5.39-5.39c0-2.97,2.41-5.38,5.39-5.38
		S288.74,216.71,288.74,219.68"/>
	<path class="st0" d="M304.01,219.68c0,2.97-2.41,5.39-5.39,5.39s-5.39-2.41-5.39-5.39c0-2.97,2.41-5.38,5.39-5.38
		S304.01,216.71,304.01,219.68"/>
	<path class="st0" d="M318.72,219.68c0,2.97-2.41,5.39-5.39,5.39s-5.39-2.41-5.39-5.39c0-2.97,2.41-5.38,5.39-5.38
		S318.72,216.71,318.72,219.68"/>
	<path class="st0" d="M258.76,234.75c0,2.97-2.41,5.39-5.39,5.39s-5.39-2.41-5.39-5.39c0-2.97,2.41-5.38,5.39-5.38
		S258.76,231.78,258.76,234.75"/>
	<path class="st0" d="M244.3,234.75c0,2.97-2.41,5.39-5.39,5.39s-5.39-2.41-5.39-5.39c0-2.97,2.41-5.38,5.39-5.38
		S244.3,231.78,244.3,234.75"/>
	<path class="st0" d="M274.03,234.75c0,2.97-2.41,5.39-5.39,5.39s-5.39-2.41-5.39-5.39c0-2.97,2.41-5.38,5.39-5.38
		S274.03,231.78,274.03,234.75"/>
	<path class="st0" d="M288.74,234.75c0,2.97-2.41,5.39-5.39,5.39s-5.39-2.41-5.39-5.39c0-2.97,2.41-5.38,5.39-5.38
		S288.74,231.78,288.74,234.75"/>
	<path class="st0" d="M304.01,234.75c0,2.97-2.41,5.39-5.39,5.39s-5.39-2.41-5.39-5.39c0-2.97,2.41-5.38,5.39-5.38
		S304.01,231.78,304.01,234.75"/>
	<path class="st0" d="M318.72,234.75c0,2.97-2.41,5.39-5.39,5.39s-5.39-2.41-5.39-5.39c0-2.97,2.41-5.38,5.39-5.38
		S318.72,231.78,318.72,234.75"/>
	<path class="st0" d="M228.98,249.46c0,2.97-2.41,5.39-5.39,5.39s-5.39-2.41-5.39-5.39c0-2.97,2.41-5.38,5.39-5.38
		S228.98,246.49,228.98,249.46"/>
	<path class="st0" d="M214.52,249.46c0,2.97-2.41,5.39-5.39,5.39s-5.39-2.41-5.39-5.39c0-2.97,2.41-5.38,5.39-5.38
		S214.52,246.49,214.52,249.46"/>
	<path class="st0" d="M244.26,249.46c0,2.97-2.41,5.39-5.39,5.39s-5.39-2.41-5.39-5.39c0-2.97,2.41-5.38,5.39-5.38
		S244.26,246.49,244.26,249.46"/>
	<path class="st0" d="M258.96,249.46c0,2.97-2.41,5.39-5.39,5.39s-5.39-2.41-5.39-5.39c0-2.97,2.41-5.38,5.39-5.38
		S258.96,246.49,258.96,249.46"/>
	<path class="st0" d="M274.23,249.46c0,2.97-2.41,5.39-5.39,5.39s-5.39-2.41-5.39-5.39c0-2.97,2.41-5.38,5.39-5.38
		S274.23,246.49,274.23,249.46"/>
	<path class="st0" d="M288.94,249.46c0,2.97-2.41,5.39-5.39,5.39s-5.39-2.41-5.39-5.39c0-2.97,2.41-5.38,5.39-5.38
		S288.94,246.49,288.94,249.46"/>
	<path class="st0" d="M228.98,264.77c0,2.97-2.41,5.39-5.39,5.39s-5.39-2.41-5.39-5.39c0-2.97,2.41-5.38,5.39-5.38
		S228.98,261.8,228.98,264.77"/>
	<path class="st0" d="M244.26,264.77c0,2.97-2.41,5.39-5.39,5.39s-5.39-2.41-5.39-5.39c0-2.97,2.41-5.38,5.39-5.38
		S244.26,261.8,244.26,264.77"/>
	<path class="st0" d="M258.96,264.77c0,2.97-2.41,5.39-5.39,5.39s-5.39-2.41-5.39-5.39c0-2.97,2.41-5.38,5.39-5.38
		S258.96,261.8,258.96,264.77"/>
	<path class="st0" d="M274.23,264.77c0,2.97-2.41,5.39-5.39,5.39s-5.39-2.41-5.39-5.39c0-2.97,2.41-5.38,5.39-5.38
		S274.23,261.8,274.23,264.77"/>
	<path class="st0" d="M228.98,279.12c0,2.97-2.41,5.39-5.39,5.39s-5.39-2.41-5.39-5.39c0-2.97,2.41-5.38,5.39-5.38
		S228.98,276.14,228.98,279.12"/>
	<path class="st0" d="M244.26,279.12c0,2.97-2.41,5.39-5.39,5.39s-5.39-2.41-5.39-5.39c0-2.97,2.41-5.38,5.39-5.38
		S244.26,276.14,244.26,279.12"/>
	<path class="st1" d="M258.96,279.12c0,2.97-2.41,5.39-5.39,5.39s-5.39-2.41-5.39-5.39c0-2.97,2.41-5.38,5.39-5.38
		S258.96,276.14,258.96,279.12"/>
	<path class="st0" d="M274.23,279.12c0,2.97-2.41,5.39-5.39,5.39s-5.39-2.41-5.39-5.39c0-2.97,2.41-5.38,5.39-5.38
		S274.23,276.14,274.23,279.12"/>
	<path class="st0" d="M288.94,264.77c0,2.97-2.41,5.39-5.39,5.39s-5.39-2.41-5.39-5.39c0-2.97,2.41-5.38,5.39-5.38
		S288.94,261.8,288.94,264.77"/>
	<path class="st0" d="M244.26,308.77c0,2.97-2.41,5.39-5.39,5.39s-5.39-2.41-5.39-5.39c0-2.97,2.41-5.38,5.39-5.38
		S244.26,305.8,244.26,308.77"/>
	<path class="st1" d="M274.23,308.77c0,2.97-2.41,5.39-5.39,5.39s-5.39-2.41-5.39-5.39c0-2.97,2.41-5.38,5.39-5.38
		S274.23,305.8,274.23,308.77"/>
	<path class="st0" d="M288.94,308.77c0,2.97-2.41,5.39-5.39,5.39s-5.39-2.41-5.39-5.39c0-2.97,2.41-5.38,5.39-5.38
		S288.94,305.8,288.94,308.77"/>
	<path class="st0" d="M228.98,293.46c0,2.97-2.41,5.39-5.39,5.39s-5.39-2.41-5.39-5.39c0-2.97,2.41-5.38,5.39-5.38
		S228.98,290.49,228.98,293.46"/>
	<path class="st0" d="M244.26,293.46c0,2.97-2.41,5.39-5.39,5.39s-5.39-2.41-5.39-5.39c0-2.97,2.41-5.38,5.39-5.38
		S244.26,290.49,244.26,293.46"/>
	<path class="st1" d="M258.96,293.46c0,2.97-2.41,5.39-5.39,5.39s-5.39-2.41-5.39-5.39c0-2.97,2.41-5.38,5.39-5.38
		S258.96,290.49,258.96,293.46"/>
	<path class="st0" d="M274.23,293.46c0,2.97-2.41,5.39-5.39,5.39s-5.39-2.41-5.39-5.39c0-2.97,2.41-5.38,5.39-5.38
		S274.23,290.49,274.23,293.46"/>
	<path class="st0" d="M288.94,293.46c0,2.97-2.41,5.39-5.39,5.39s-5.39-2.41-5.39-5.39c0-2.97,2.41-5.38,5.39-5.38
		S288.94,290.49,288.94,293.46"/>
	<path class="st1" d="M258.96,324.2c0,2.97-2.41,5.39-5.39,5.39s-5.39-2.41-5.39-5.39c0-2.97,2.41-5.38,5.39-5.38
		S258.96,321.23,258.96,324.2"/>
	<path class="st1" d="M274.23,324.2c0,2.97-2.41,5.39-5.39,5.39s-5.39-2.41-5.39-5.39c0-2.97,2.41-5.38,5.39-5.38
		S274.23,321.23,274.23,324.2"/>
	<path class="st0" d="M288.94,324.2c0,2.97-2.41,5.39-5.39,5.39s-5.39-2.41-5.39-5.39c0-2.97,2.41-5.38,5.39-5.38
		S288.94,321.23,288.94,324.2"/>
	<path class="st0" d="M258.96,338.79c0,2.97-2.41,5.39-5.39,5.39s-5.39-2.41-5.39-5.39c0-2.97,2.41-5.38,5.39-5.38
		S258.96,335.82,258.96,338.79"/>
	<path class="st0" d="M274.23,338.79c0,2.97-2.41,5.39-5.39,5.39s-5.39-2.41-5.39-5.39c0-2.97,2.41-5.38,5.39-5.38
		S274.23,335.82,274.23,338.79"/>
	<path class="st0" d="M274.23,369.37c0,2.97-2.41,5.39-5.39,5.39s-5.39-2.41-5.39-5.39c0-2.97,2.41-5.38,5.39-5.38
		S274.23,366.4,274.23,369.37"/>
	<path class="st0" d="M318.76,369.37c0,2.97-2.41,5.39-5.39,5.39s-5.39-2.41-5.39-5.39c0-2.97,2.41-5.38,5.39-5.38
		S318.76,366.4,318.76,369.37"/>
	<path class="st0" d="M274.23,354.06c0,2.97-2.41,5.39-5.39,5.39s-5.39-2.41-5.39-5.39c0-2.97,2.41-5.38,5.39-5.38
		S274.23,351.09,274.23,354.06"/>
	<path class="st0" d="M274.23,384.8c0,2.97-2.41,5.39-5.39,5.39s-5.39-2.41-5.39-5.39c0-2.97,2.41-5.38,5.39-5.38
		S274.23,381.83,274.23,384.8"/>
	<path class="st0" d="M259.28,369.37c0,2.97-2.41,5.39-5.39,5.39s-5.39-2.41-5.39-5.39c0-2.97,2.41-5.38,5.39-5.38
		S259.28,366.4,259.28,369.37"/>
	<path class="st0" d="M259.28,384.8c0,2.97-2.41,5.39-5.39,5.39s-5.39-2.41-5.39-5.39c0-2.97,2.41-5.38,5.39-5.38
		S259.28,381.83,259.28,384.8"/>
	<path class="st0" d="M274.23,399.39c0,2.97-2.41,5.39-5.39,5.39s-5.39-2.41-5.39-5.39c0-2.97,2.41-5.38,5.39-5.38
		S274.23,396.42,274.23,399.39"/>
	<path class="st0" d="M288.54,384.8c0,2.97-2.41,5.39-5.39,5.39s-5.39-2.41-5.39-5.39c0-2.97,2.41-5.38,5.39-5.38
		S288.54,381.83,288.54,384.8"/>
	<path class="st0" d="M288.54,399.39c0,2.97-2.41,5.39-5.39,5.39s-5.39-2.41-5.39-5.39c0-2.97,2.41-5.38,5.39-5.38
		S288.54,396.42,288.54,399.39"/>
	<path class="st0" d="M274.23,413.06c0,2.97-2.41,5.39-5.39,5.39s-5.39-2.41-5.39-5.39c0-2.97,2.41-5.38,5.39-5.38
		S274.23,410.08,274.23,413.06"/>
	<path class="st0" d="M288.94,338.79c0,2.97-2.41,5.39-5.39,5.39s-5.39-2.41-5.39-5.39c0-2.97,2.41-5.38,5.39-5.38
		S288.94,335.82,288.94,338.79"/>
	<path class="st0" d="M303.81,338.79c0,2.97-2.41,5.39-5.39,5.39s-5.39-2.41-5.39-5.39c0-2.97,2.41-5.38,5.39-5.38
		S303.81,335.82,303.81,338.79"/>
	<path class="st0" d="M319.08,338.79c0,2.97-2.41,5.39-5.39,5.39s-5.39-2.41-5.39-5.39c0-2.97,2.41-5.38,5.39-5.38
		S319.08,335.82,319.08,338.79"/>
	<path class="st0" d="M363.61,353.58c0,2.97-2.41,5.39-5.39,5.39s-5.39-2.41-5.39-5.39c0-2.97,2.41-5.38,5.39-5.38
		S363.61,350.61,363.61,353.58"/>
	<path class="st0" d="M333.87,353.58c0,2.97-2.41,5.39-5.39,5.39s-5.39-2.41-5.39-5.39c0-2.97,2.41-5.38,5.39-5.38
		S333.87,350.61,333.87,353.58"/>
	<path class="st0" d="M378.31,353.58c0,2.97-2.41,5.39-5.39,5.39s-5.39-2.41-5.39-5.39c0-2.97,2.41-5.38,5.39-5.38
		S378.31,350.61,378.31,353.58"/>
	<path class="st1" d="M393.18,353.58c0,2.97-2.41,5.39-5.39,5.39s-5.39-2.41-5.39-5.39c0-2.97,2.41-5.38,5.39-5.38
		S393.18,350.61,393.18,353.58"/>
	<path class="st0" d="M378.31,368.77c0,2.97-2.41,5.39-5.39,5.39s-5.39-2.41-5.39-5.39c0-2.97,2.41-5.38,5.39-5.38
		S378.31,365.8,378.31,368.77"/>
	<path class="st0" d="M393.18,368.77c0,2.97-2.41,5.39-5.39,5.39s-5.39-2.41-5.39-5.39c0-2.97,2.41-5.38,5.39-5.38
		S393.18,365.8,393.18,368.77"/>
	<path class="st0" d="M408.45,353.58c0,2.97-2.41,5.39-5.39,5.39s-5.39-2.41-5.39-5.39c0-2.97,2.41-5.38,5.39-5.38
		S408.45,350.61,408.45,353.58"/>
	<path class="st0" d="M423.16,413.14c0,2.97-2.41,5.39-5.39,5.39s-5.39-2.41-5.39-5.39c0-2.97,2.41-5.38,5.39-5.38
		S423.16,410.16,423.16,413.14"/>
	<path class="st0" d="M378.31,413.14c0,2.97-2.41,5.39-5.39,5.39s-5.39-2.41-5.39-5.39c0-2.97,2.41-5.38,5.39-5.38
		S378.31,410.16,378.31,413.14"/>
	<path class="st0" d="M333.63,413.14c0,2.97-2.41,5.39-5.39,5.39s-5.39-2.41-5.39-5.39c0-2.97,2.41-5.38,5.39-5.38
		S333.63,410.16,333.63,413.14"/>
	<path class="st0" d="M438.03,413.14c0,2.97-2.41,5.39-5.39,5.39s-5.39-2.41-5.39-5.39c0-2.97,2.41-5.38,5.39-5.38
		S438.03,410.16,438.03,413.14"/>
	<path class="st0" d="M453.3,413.14c0,2.97-2.41,5.39-5.39,5.39s-5.39-2.41-5.39-5.39c0-2.97,2.41-5.38,5.39-5.38
		S453.3,410.16,453.3,413.14"/>
	<path class="st0" d="M453.3,443.52c0,2.97-2.41,5.39-5.39,5.39s-5.39-2.41-5.39-5.39c0-2.97,2.41-5.38,5.39-5.38
		S453.3,440.54,453.3,443.52"/>
	<path class="st0" d="M318.8,443.52c0,2.97-2.41,5.39-5.39,5.39s-5.39-2.41-5.39-5.39c0-2.97,2.41-5.38,5.39-5.38
		S318.8,440.54,318.8,443.52"/>
	<path class="st0" d="M438.23,428.45c0,2.97-2.41,5.39-5.39,5.39s-5.39-2.41-5.39-5.39c0-2.97,2.41-5.38,5.39-5.38
		S438.23,425.47,438.23,428.45"/>
	<path class="st0" d="M453.1,428.45c0,2.97-2.41,5.39-5.39,5.39s-5.39-2.41-5.39-5.39c0-2.97,2.41-5.38,5.39-5.38
		S453.1,425.47,453.1,428.45"/>
	<path class="st0" d="M393.38,428.45c0,2.97-2.41,5.39-5.39,5.39s-5.39-2.41-5.39-5.39c0-2.97,2.41-5.38,5.39-5.38
		S393.38,425.47,393.38,428.45"/>
	<path class="st0" d="M229.75,428.45c0,2.97-2.41,5.39-5.39,5.39s-5.39-2.41-5.39-5.39c0-2.97,2.41-5.38,5.39-5.38
		S229.75,425.47,229.75,428.45"/>
	<path class="st0" d="M408.25,428.45c0,2.97-2.41,5.39-5.39,5.39s-5.39-2.41-5.39-5.39c0-2.97,2.41-5.38,5.39-5.38
		S408.25,425.47,408.25,428.45"/>
	<path class="st0" d="M468.37,428.45c0,2.97-2.41,5.39-5.39,5.39s-5.39-2.41-5.39-5.39c0-2.97,2.41-5.38,5.39-5.38
		S468.37,425.47,468.37,428.45"/>
	<path class="st0" d="M438.23,458.34c0,2.97-2.41,5.39-5.39,5.39s-5.39-2.41-5.39-5.39c0-2.97,2.41-5.38,5.39-5.38
		S438.23,455.37,438.23,458.34"/>
	<path class="st0" d="M423.33,458.34c0,2.97-2.41,5.39-5.39,5.39s-5.39-2.41-5.39-5.39c0-2.97,2.41-5.38,5.39-5.38
		S423.33,455.37,423.33,458.34"/>
	<path class="st0" d="M438.23,473.29c0,2.97-2.41,5.39-5.39,5.39s-5.39-2.41-5.39-5.39c0-2.97,2.41-5.38,5.39-5.38
		S438.23,470.32,438.23,473.29"/>
	<path class="st0" d="M423.33,473.29c0,2.97-2.41,5.39-5.39,5.39s-5.39-2.41-5.39-5.39c0-2.97,2.41-5.38,5.39-5.38
		S423.33,470.32,423.33,473.29"/>
	<path class="st0" d="M453.1,458.34c0,2.97-2.41,5.39-5.39,5.39s-5.39-2.41-5.39-5.39c0-2.97,2.41-5.38,5.39-5.38
		S453.1,455.37,453.1,458.34"/>
	<path class="st0" d="M468.37,458.34c0,2.97-2.41,5.39-5.39,5.39s-5.39-2.41-5.39-5.39c0-2.97,2.41-5.38,5.39-5.38
		S468.37,455.37,468.37,458.34"/>
	<path class="st0" d="M467.89,562.75c0,2.97-2.41,5.39-5.39,5.39s-5.39-2.41-5.39-5.39c0-2.97,2.41-5.38,5.39-5.38
		S467.89,559.77,467.89,562.75"/>
	<path class="st0" d="M452.99,562.75c0,2.97-2.41,5.39-5.39,5.39s-5.39-2.41-5.39-5.39c0-2.97,2.41-5.38,5.39-5.38
		S452.99,559.77,452.99,562.75"/>
	<path class="st0" d="M482.76,562.75c0,2.97-2.41,5.39-5.39,5.39s-5.39-2.41-5.39-5.39c0-2.97,2.41-5.38,5.39-5.38
		S482.76,559.77,482.76,562.75"/>
	<path class="st0" d="M498.03,562.75c0,2.97-2.41,5.39-5.39,5.39s-5.39-2.41-5.39-5.39c0-2.97,2.41-5.38,5.39-5.38
		S498.03,559.77,498.03,562.75"/>
	<path class="st0" d="M467.89,577.46c0,2.97-2.41,5.39-5.39,5.39s-5.39-2.41-5.39-5.39s2.41-5.39,5.39-5.39
		S467.89,574.48,467.89,577.46"/>
	<path class="st0" d="M452.99,577.46c0,2.97-2.41,5.39-5.39,5.39s-5.39-2.41-5.39-5.39s2.41-5.39,5.39-5.39
		S452.99,574.48,452.99,577.46"/>
	<path class="st0" d="M438.04,577.46c0,2.97-2.41,5.39-5.39,5.39s-5.39-2.41-5.39-5.39s2.41-5.39,5.39-5.39
		S438.04,574.48,438.04,577.46"/>
	<path class="st0" d="M482.76,577.46c0,2.97-2.41,5.39-5.39,5.39s-5.39-2.41-5.39-5.39s2.41-5.39,5.39-5.39
		S482.76,574.48,482.76,577.46"/>
	<path class="st0" d="M498.03,577.46c0,2.97-2.41,5.39-5.39,5.39s-5.39-2.41-5.39-5.39s2.41-5.39,5.39-5.39
		S498.03,574.48,498.03,577.46"/>
	<path class="st0" d="M467.89,592.16c0,2.97-2.41,5.39-5.39,5.39s-5.39-2.41-5.39-5.39s2.41-5.39,5.39-5.39
		S467.89,589.19,467.89,592.16"/>
	<path class="st0" d="M452.99,592.16c0,2.97-2.41,5.39-5.39,5.39s-5.39-2.41-5.39-5.39s2.41-5.39,5.39-5.39
		S452.99,589.19,452.99,592.16"/>
	<path class="st0" d="M438.04,592.16c0,2.97-2.41,5.39-5.39,5.39s-5.39-2.41-5.39-5.39s2.41-5.39,5.39-5.39
		S438.04,589.19,438.04,592.16"/>
	<path class="st1" d="M423.33,592.16c0,2.97-2.41,5.39-5.39,5.39s-5.39-2.41-5.39-5.39s2.41-5.39,5.39-5.39
		S423.33,589.19,423.33,592.16"/>
	<path class="st0" d="M378.49,577.46c0,2.97-2.41,5.39-5.39,5.39s-5.39-2.41-5.39-5.39s2.41-5.39,5.39-5.39
		S378.49,574.48,378.49,577.46"/>
	<path class="st0" d="M393.43,592.16c0,2.97-2.41,5.39-5.39,5.39s-5.39-2.41-5.39-5.39s2.41-5.39,5.39-5.39
		S393.43,589.19,393.43,592.16"/>
	<path class="st0" d="M378.49,592.16c0,2.97-2.41,5.39-5.39,5.39s-5.39-2.41-5.39-5.39s2.41-5.39,5.39-5.39
		S378.49,589.19,378.49,592.16"/>
	<path class="st0" d="M363.78,592.16c0,2.97-2.41,5.39-5.39,5.39s-5.39-2.41-5.39-5.39s2.41-5.39,5.39-5.39
		S363.78,589.19,363.78,592.16"/>
	<path class="st0" d="M482.76,592.16c0,2.97-2.41,5.39-5.39,5.39s-5.39-2.41-5.39-5.39s2.41-5.39,5.39-5.39
		S482.76,589.19,482.76,592.16"/>
	<path class="st0" d="M498.03,592.16c0,2.97-2.41,5.39-5.39,5.39s-5.39-2.41-5.39-5.39s2.41-5.39,5.39-5.39
		S498.03,589.19,498.03,592.16"/>
	<path class="st0" d="M467.89,607.37c0,2.97-2.41,5.39-5.39,5.39s-5.39-2.41-5.39-5.39s2.41-5.39,5.39-5.39
		S467.89,604.39,467.89,607.37"/>
	<path class="st0" d="M452.99,607.37c0,2.97-2.41,5.39-5.39,5.39s-5.39-2.41-5.39-5.39s2.41-5.39,5.39-5.39
		S452.99,604.39,452.99,607.37"/>
	<path class="st0" d="M438.04,607.37c0,2.97-2.41,5.39-5.39,5.39s-5.39-2.41-5.39-5.39s2.41-5.39,5.39-5.39
		S438.04,604.39,438.04,607.37"/>
	<path class="st0" d="M423.33,607.37c0,2.97-2.41,5.39-5.39,5.39s-5.39-2.41-5.39-5.39s2.41-5.39,5.39-5.39
		S423.33,604.39,423.33,607.37"/>
	<path class="st0" d="M482.76,607.37c0,2.97-2.41,5.39-5.39,5.39s-5.39-2.41-5.39-5.39s2.41-5.39,5.39-5.39
		S482.76,604.39,482.76,607.37"/>
	<path class="st0" d="M498.03,607.37c0,2.97-2.41,5.39-5.39,5.39s-5.39-2.41-5.39-5.39s2.41-5.39,5.39-5.39
		S498.03,604.39,498.03,607.37"/>
	<path class="st0" d="M377.95,607.37c0,2.97-2.41,5.39-5.39,5.39s-5.39-2.41-5.39-5.39s2.41-5.39,5.39-5.39
		S377.95,604.39,377.95,607.37"/>
	<path class="st0" d="M363.05,607.37c0,2.97-2.41,5.39-5.39,5.39s-5.39-2.41-5.39-5.39s2.41-5.39,5.39-5.39
		S363.05,604.39,363.05,607.37"/>
	<path class="st0" d="M348.11,607.37c0,2.97-2.41,5.39-5.39,5.39s-5.39-2.41-5.39-5.39s2.41-5.39,5.39-5.39
		S348.11,604.39,348.11,607.37"/>
	<path class="st0" d="M333.4,607.37c0,2.97-2.41,5.39-5.39,5.39s-5.39-2.41-5.39-5.39s2.41-5.39,5.39-5.39
		S333.4,604.39,333.4,607.37"/>
	<path class="st0" d="M392.82,607.37c0,2.97-2.41,5.39-5.39,5.39s-5.39-2.41-5.39-5.39s2.41-5.39,5.39-5.39
		S392.82,604.39,392.82,607.37"/>
	<path class="st0" d="M408.09,607.37c0,2.97-2.41,5.39-5.39,5.39s-5.39-2.41-5.39-5.39s2.41-5.39,5.39-5.39
		S408.09,604.39,408.09,607.37"/>
	<path class="st0" d="M467.89,622.4c0,2.97-2.41,5.39-5.39,5.39s-5.39-2.41-5.39-5.39s2.41-5.39,5.39-5.39
		S467.89,619.43,467.89,622.4"/>
	<path class="st0" d="M452.99,622.4c0,2.97-2.41,5.39-5.39,5.39s-5.39-2.41-5.39-5.39s2.41-5.39,5.39-5.39
		S452.99,619.43,452.99,622.4"/>
	<path class="st0" d="M438.04,622.4c0,2.97-2.41,5.39-5.39,5.39s-5.39-2.41-5.39-5.39s2.41-5.39,5.39-5.39
		S438.04,619.43,438.04,622.4"/>
	<path class="st0" d="M423.33,622.4c0,2.97-2.41,5.39-5.39,5.39s-5.39-2.41-5.39-5.39s2.41-5.39,5.39-5.39
		S423.33,619.43,423.33,622.4"/>
	<path class="st0" d="M482.76,622.4c0,2.97-2.41,5.39-5.39,5.39s-5.39-2.41-5.39-5.39s2.41-5.39,5.39-5.39
		S482.76,619.43,482.76,622.4"/>
	<path class="st0" d="M498.03,622.4c0,2.97-2.41,5.39-5.39,5.39s-5.39-2.41-5.39-5.39s2.41-5.39,5.39-5.39
		S498.03,619.43,498.03,622.4"/>
	<path class="st0" d="M512.38,622.4c0,2.97-2.41,5.39-5.39,5.39s-5.39-2.41-5.39-5.39s2.41-5.39,5.39-5.39
		S512.38,619.43,512.38,622.4"/>
	<path class="st0" d="M363.55,622.4c0,2.97-2.41,5.39-5.39,5.39s-5.39-2.41-5.39-5.39s2.41-5.39,5.39-5.39
		S363.55,619.43,363.55,622.4"/>
	<path class="st0" d="M348.65,622.4c0,2.97-2.41,5.39-5.39,5.39s-5.39-2.41-5.39-5.39s2.41-5.39,5.39-5.39
		S348.65,619.43,348.65,622.4"/>
	<path class="st0" d="M333.7,622.4c0,2.97-2.41,5.39-5.39,5.39s-5.39-2.41-5.39-5.39s2.41-5.39,5.39-5.39S333.7,619.43,333.7,622.4"
		/>
	<path class="st0" d="M318.99,622.4c0,2.97-2.41,5.39-5.39,5.39s-5.39-2.41-5.39-5.39s2.41-5.39,5.39-5.39
		S318.99,619.43,318.99,622.4"/>
	<path class="st0" d="M348.65,637.56c0,2.97-2.41,5.39-5.39,5.39s-5.39-2.41-5.39-5.39s2.41-5.39,5.39-5.39
		S348.65,634.59,348.65,637.56"/>
	<path class="st0" d="M318.99,637.56c0,2.97-2.41,5.39-5.39,5.39s-5.39-2.41-5.39-5.39s2.41-5.39,5.39-5.39
		S318.99,634.59,318.99,637.56"/>
	<path class="st0" d="M318.99,652.23c0,2.97-2.41,5.39-5.39,5.39s-5.39-2.41-5.39-5.39s2.41-5.39,5.39-5.39
		S318.99,649.26,318.99,652.23"/>
	<path class="st0" d="M318.99,667.39c0,2.97-2.41,5.39-5.39,5.39s-5.39-2.41-5.39-5.39c0-2.97,2.41-5.38,5.39-5.38
		S318.99,664.42,318.99,667.39"/>
	<path class="st0" d="M274.14,696.66c0,2.97-2.41,5.39-5.39,5.39s-5.39-2.41-5.39-5.39s2.41-5.39,5.39-5.39
		S274.14,693.69,274.14,696.66"/>
	<path class="st0" d="M259.19,711.37c0,2.97-2.41,5.39-5.39,5.39s-5.39-2.41-5.39-5.39s2.41-5.39,5.39-5.39
		S259.19,708.4,259.19,711.37"/>
	<path class="st0" d="M378.42,622.4c0,2.97-2.41,5.39-5.39,5.39s-5.39-2.41-5.39-5.39s2.41-5.39,5.39-5.39
		S378.42,619.43,378.42,622.4"/>
	<path class="st0" d="M393.69,622.4c0,2.97-2.41,5.39-5.39,5.39s-5.39-2.41-5.39-5.39s2.41-5.39,5.39-5.39
		S393.69,619.43,393.69,622.4"/>
	<path class="st0" d="M408.04,622.4c0,2.97-2.41,5.39-5.39,5.39s-5.39-2.41-5.39-5.39s2.41-5.39,5.39-5.39
		S408.04,619.43,408.04,622.4"/>
	<path class="st0" d="M467.89,637.35c0,2.97-2.41,5.39-5.39,5.39s-5.39-2.41-5.39-5.39s2.41-5.39,5.39-5.39
		S467.89,634.38,467.89,637.35"/>
	<path class="st0" d="M452.99,637.35c0,2.97-2.41,5.39-5.39,5.39s-5.39-2.41-5.39-5.39s2.41-5.39,5.39-5.39
		S452.99,634.38,452.99,637.35"/>
	<path class="st0" d="M438.04,637.35c0,2.97-2.41,5.39-5.39,5.39s-5.39-2.41-5.39-5.39s2.41-5.39,5.39-5.39
		S438.04,634.38,438.04,637.35"/>
	<path class="st0" d="M467.89,696.66c0,2.97-2.41,5.39-5.39,5.39s-5.39-2.41-5.39-5.39s2.41-5.39,5.39-5.39
		S467.89,693.69,467.89,696.66"/>
	<path class="st0" d="M438.04,696.66c0,2.97-2.41,5.39-5.39,5.39s-5.39-2.41-5.39-5.39s2.41-5.39,5.39-5.39
		S438.04,693.69,438.04,696.66"/>
	<path class="st0" d="M423.33,637.35c0,2.97-2.41,5.39-5.39,5.39s-5.39-2.41-5.39-5.39s2.41-5.39,5.39-5.39
		S423.33,634.38,423.33,637.35"/>
	<path class="st1" d="M467.89,651.98c0,2.97-2.41,5.39-5.39,5.39s-5.39-2.41-5.39-5.39s2.41-5.39,5.39-5.39
		S467.89,649,467.89,651.98"/>
	<path class="st0" d="M452.99,651.98c0,2.97-2.41,5.39-5.39,5.39s-5.39-2.41-5.39-5.39s2.41-5.39,5.39-5.39
		S452.99,649,452.99,651.98"/>
	<path class="st0" d="M438.04,651.98c0,2.97-2.41,5.39-5.39,5.39s-5.39-2.41-5.39-5.39s2.41-5.39,5.39-5.39
		S438.04,649,438.04,651.98"/>
	<path class="st0" d="M423.33,651.98c0,2.97-2.41,5.39-5.39,5.39s-5.39-2.41-5.39-5.39s2.41-5.39,5.39-5.39
		S423.33,649,423.33,651.98"/>
	<path class="st0" d="M408.22,651.98c0,2.97-2.41,5.39-5.39,5.39s-5.39-2.41-5.39-5.39s2.41-5.39,5.39-5.39
		S408.22,649,408.22,651.98"/>
	<path class="st0" d="M467.89,681.88c0,2.97-2.41,5.39-5.39,5.39s-5.39-2.41-5.39-5.39c0-2.97,2.41-5.38,5.39-5.38
		S467.89,678.9,467.89,681.88"/>
	<path class="st0" d="M452.99,681.88c0,2.97-2.41,5.39-5.39,5.39s-5.39-2.41-5.39-5.39c0-2.97,2.41-5.38,5.39-5.38
		S452.99,678.9,452.99,681.88"/>
	<path class="st0" d="M438.04,681.88c0,2.97-2.41,5.39-5.39,5.39s-5.39-2.41-5.39-5.39c0-2.97,2.41-5.38,5.39-5.38
		S438.04,678.9,438.04,681.88"/>
	<path class="st0" d="M423.33,681.88c0,2.97-2.41,5.39-5.39,5.39s-5.39-2.41-5.39-5.39c0-2.97,2.41-5.38,5.39-5.38
		S423.33,678.9,423.33,681.88"/>
	<path class="st0" d="M408.22,681.88c0,2.97-2.41,5.39-5.39,5.39s-5.39-2.41-5.39-5.39c0-2.97,2.41-5.38,5.39-5.38
		S408.22,678.9,408.22,681.88"/>
	<path class="st0" d="M452.99,667.57c0,2.97-2.41,5.39-5.39,5.39s-5.39-2.41-5.39-5.39c0-2.97,2.41-5.38,5.39-5.38
		S452.99,664.6,452.99,667.57"/>
	<path class="st0" d="M497.6,651.98c0,2.97-2.41,5.39-5.39,5.39s-5.39-2.41-5.39-5.39s2.41-5.39,5.39-5.39S497.6,649,497.6,651.98"
		/>
	<path class="st0" d="M497.6,681.88c0,2.97-2.41,5.39-5.39,5.39s-5.39-2.41-5.39-5.39c0-2.97,2.41-5.38,5.39-5.38
		S497.6,678.9,497.6,681.88"/>
	<path class="st0" d="M497.6,667.57c0,2.97-2.41,5.39-5.39,5.39s-5.39-2.41-5.39-5.39c0-2.97,2.41-5.38,5.39-5.38
		S497.6,664.6,497.6,667.57"/>
	<path class="st0" d="M438.04,667.57c0,2.97-2.41,5.39-5.39,5.39s-5.39-2.41-5.39-5.39c0-2.97,2.41-5.38,5.39-5.38
		S438.04,664.6,438.04,667.57"/>
	<path class="st0" d="M423.33,667.57c0,2.97-2.41,5.39-5.39,5.39s-5.39-2.41-5.39-5.39c0-2.97,2.41-5.38,5.39-5.38
		S423.33,664.6,423.33,667.57"/>
	<path class="st0" d="M408.22,667.57c0,2.97-2.41,5.39-5.39,5.39s-5.39-2.41-5.39-5.39c0-2.97,2.41-5.38,5.39-5.38
		S408.22,664.6,408.22,667.57"/>
	<path class="st0" d="M482.76,637.35c0,2.97-2.41,5.39-5.39,5.39s-5.39-2.41-5.39-5.39s2.41-5.39,5.39-5.39
		S482.76,634.38,482.76,637.35"/>
	<path class="st0" d="M498.03,637.35c0,2.97-2.41,5.39-5.39,5.39s-5.39-2.41-5.39-5.39s2.41-5.39,5.39-5.39
		S498.03,634.38,498.03,637.35"/>
	<path class="st0" d="M512.38,637.35c0,2.97-2.41,5.39-5.39,5.39s-5.39-2.41-5.39-5.39s2.41-5.39,5.39-5.39
		S512.38,634.38,512.38,637.35"/>
	<path class="st0" d="M378.31,383.96c0,2.97-2.41,5.39-5.39,5.39s-5.39-2.41-5.39-5.39c0-2.97,2.41-5.38,5.39-5.38
		S378.31,380.99,378.31,383.96"/>
	<path class="st0" d="M393.18,383.96c0,2.97-2.41,5.39-5.39,5.39s-5.39-2.41-5.39-5.39c0-2.97,2.41-5.38,5.39-5.38
		S393.18,380.99,393.18,383.96"/>
	<path class="st0" d="M408.45,383.96c0,2.97-2.41,5.39-5.39,5.39s-5.39-2.41-5.39-5.39c0-2.97,2.41-5.38,5.39-5.38
		S408.45,380.99,408.45,383.96"/>
	<path class="st0" d="M333.79,338.79c0,2.97-2.41,5.39-5.39,5.39s-5.39-2.41-5.39-5.39c0-2.97,2.41-5.38,5.39-5.38
		S333.79,335.82,333.79,338.79"/>
	<path class="st0" d="M348.62,338.79c0,2.97-2.41,5.39-5.39,5.39s-5.39-2.41-5.39-5.39c0-2.97,2.41-5.38,5.39-5.38
		S348.62,335.82,348.62,338.79"/>
	<path class="st0" d="M318.8,458.38c0,2.97-2.41,5.39-5.39,5.39s-5.39-2.41-5.39-5.39c0-2.97,2.41-5.38,5.39-5.38
		S318.8,455.41,318.8,458.38"/>
	<path class="st0" d="M214.96,458.38c0,2.97-2.41,5.39-5.39,5.39s-5.39-2.41-5.39-5.39c0-2.97,2.41-5.38,5.39-5.38
		S214.96,455.41,214.96,458.38"/>
	<path class="st0" d="M334.07,458.38c0,2.97-2.41,5.39-5.39,5.39s-5.39-2.41-5.39-5.39c0-2.97,2.41-5.38,5.39-5.38
		S334.07,455.41,334.07,458.38"/>
	<path class="st0" d="M348.78,458.38c0,2.97-2.41,5.39-5.39,5.39s-5.39-2.41-5.39-5.39c0-2.97,2.41-5.38,5.39-5.38
		S348.78,455.41,348.78,458.38"/>
	<path class="st0" d="M363.61,458.38c0,2.97-2.41,5.39-5.39,5.39s-5.39-2.41-5.39-5.39c0-2.97,2.41-5.38,5.39-5.38
		S363.61,455.41,363.61,458.38"/>
	<path class="st0" d="M318.8,473.06c0,2.97-2.41,5.39-5.39,5.39s-5.39-2.41-5.39-5.39c0-2.97,2.41-5.38,5.39-5.38
		S318.8,470.08,318.8,473.06"/>
	<path class="st0" d="M334.07,473.06c0,2.97-2.41,5.39-5.39,5.39s-5.39-2.41-5.39-5.39c0-2.97,2.41-5.38,5.39-5.38
		S334.07,470.08,334.07,473.06"/>
	<path class="st0" d="M318.8,488.13c0,2.97-2.41,5.39-5.39,5.39s-5.39-2.41-5.39-5.39c0-2.97,2.41-5.38,5.39-5.38
		S318.8,485.16,318.8,488.13"/>
	<path class="st0" d="M199.77,473.06c0,2.97-2.41,5.39-5.39,5.39s-5.39-2.41-5.39-5.39c0-2.97,2.41-5.38,5.39-5.38
		S199.77,470.08,199.77,473.06"/>
	<path class="st0" d="M199.77,488.13c0,2.97-2.41,5.39-5.39,5.39s-5.39-2.41-5.39-5.39c0-2.97,2.41-5.38,5.39-5.38
		S199.77,485.16,199.77,488.13"/>
	<path class="st0" d="M334.07,488.13c0,2.97-2.41,5.39-5.39,5.39s-5.39-2.41-5.39-5.39c0-2.97,2.41-5.38,5.39-5.38
		S334.07,485.16,334.07,488.13"/>
	<path class="st0" d="M348.78,473.06c0,2.97-2.41,5.39-5.39,5.39s-5.39-2.41-5.39-5.39c0-2.97,2.41-5.38,5.39-5.38
		S348.78,470.08,348.78,473.06"/>
	<path class="st0" d="M363.29,488.13c0,2.97-2.41,5.39-5.39,5.39s-5.39-2.41-5.39-5.39c0-2.97,2.41-5.38,5.39-5.38
		S363.29,485.15,363.29,488.13"/>
	<path class="st0" d="M378.56,488.13c0,2.97-2.41,5.39-5.39,5.39s-5.39-2.41-5.39-5.39c0-2.97,2.41-5.38,5.39-5.38
		S378.56,485.15,378.56,488.13"/>
	<path class="st0" d="M393.26,488.13c0,2.97-2.41,5.39-5.39,5.39s-5.39-2.41-5.39-5.39c0-2.97,2.41-5.38,5.39-5.38
		S393.26,485.15,393.26,488.13"/>
	<path class="st0" d="M348.82,517.42c0,2.97-2.41,5.39-5.39,5.39s-5.39-2.41-5.39-5.39c0-2.97,2.41-5.38,5.39-5.38
		S348.82,514.45,348.82,517.42"/>
	<path class="st0" d="M184.54,517.42c0,2.97-2.41,5.39-5.39,5.39s-5.39-2.41-5.39-5.39c0-2.97,2.41-5.38,5.39-5.38
		S184.54,514.45,184.54,517.42"/>
	<path class="st0" d="M169.41,517.42c0,2.97-2.41,5.39-5.39,5.39s-5.39-2.41-5.39-5.39c0-2.97,2.41-5.38,5.39-5.38
		S169.41,514.45,169.41,517.42"/>
	<path class="st0" d="M154.64,532.97c0,2.97-2.41,5.39-5.39,5.39s-5.39-2.41-5.39-5.39s2.41-5.39,5.39-5.39
		S154.64,530,154.64,532.97"/>
	<path class="st0" d="M154.64,547.44c0,2.97-2.41,5.39-5.39,5.39s-5.39-2.41-5.39-5.39s2.41-5.39,5.39-5.39
		S154.64,544.47,154.64,547.44"/>
	<path class="st0" d="M139.63,562.45c0,2.97-2.41,5.39-5.39,5.39s-5.39-2.41-5.39-5.39s2.41-5.39,5.39-5.39
		S139.63,559.47,139.63,562.45"/>
	<path class="st0" d="M124.56,562.45c0,2.97-2.41,5.39-5.39,5.39s-5.39-2.41-5.39-5.39s2.41-5.39,5.39-5.39
		S124.56,559.47,124.56,562.45"/>
	<path class="st0" d="M124.86,577.4c0,2.97-2.41,5.39-5.39,5.39s-5.39-2.41-5.39-5.39s2.41-5.39,5.39-5.39
		S124.86,574.42,124.86,577.4"/>
	<path class="st0" d="M109.79,577.4c0,2.97-2.41,5.39-5.39,5.39s-5.39-2.41-5.39-5.39s2.41-5.39,5.39-5.39
		S109.79,574.42,109.79,577.4"/>
	<path class="st0" d="M95.01,607.46c0,2.97-2.41,5.39-5.39,5.39s-5.38-2.41-5.38-5.39c0-2.97,2.41-5.38,5.38-5.38
		S95.01,604.48,95.01,607.46"/>
	<path class="st0" d="M154.48,652.14c0,2.97-2.41,5.39-5.39,5.39s-5.39-2.41-5.39-5.39s2.41-5.39,5.39-5.39
		S154.48,649.17,154.48,652.14"/>
	<path class="st0" d="M364.09,517.42c0,2.97-2.41,5.39-5.39,5.39s-5.39-2.41-5.39-5.39c0-2.97,2.41-5.38,5.39-5.38
		S364.09,514.45,364.09,517.42"/>
	<path class="st0" d="M378.8,517.42c0,2.97-2.41,5.39-5.39,5.39s-5.39-2.41-5.39-5.39c0-2.97,2.41-5.38,5.39-5.38
		S378.8,514.45,378.8,517.42"/>
	<path class="st0" d="M348.82,532.61c0,2.97-2.41,5.39-5.39,5.39s-5.39-2.41-5.39-5.39c0-2.97,2.41-5.38,5.39-5.38
		S348.82,529.64,348.82,532.61"/>
	<path class="st0" d="M333.39,532.61c0,2.97-2.41,5.39-5.39,5.39s-5.39-2.41-5.39-5.39c0-2.97,2.41-5.38,5.39-5.38
		S333.39,529.64,333.39,532.61"/>
	<path class="st0" d="M364.09,532.61c0,2.97-2.41,5.39-5.39,5.39s-5.39-2.41-5.39-5.39c0-2.97,2.41-5.38,5.39-5.38
		S364.09,529.64,364.09,532.61"/>
	<path class="st0" d="M408.33,517.42c0,2.97-2.41,5.39-5.39,5.39s-5.39-2.41-5.39-5.39c0-2.97,2.41-5.38,5.39-5.38
		S408.33,514.45,408.33,517.42"/>
	<path class="st0" d="M423.04,517.42c0,2.97-2.41,5.39-5.39,5.39s-5.39-2.41-5.39-5.39c0-2.97,2.41-5.38,5.39-5.38
		S423.04,514.45,423.04,517.42"/>
	<path class="st0" d="M408.33,532.61c0,2.97-2.41,5.39-5.39,5.39s-5.39-2.41-5.39-5.39c0-2.97,2.41-5.38,5.39-5.38
		S408.33,529.64,408.33,532.61"/>
	<path class="st0" d="M348.82,547.8c0,2.97-2.41,5.39-5.39,5.39s-5.39-2.41-5.39-5.39s2.41-5.39,5.39-5.39
		S348.82,544.83,348.82,547.8"/>
	<path class="st0" d="M364.09,547.8c0,2.97-2.41,5.39-5.39,5.39s-5.39-2.41-5.39-5.39s2.41-5.39,5.39-5.39
		S364.09,544.83,364.09,547.8"/>
	<path class="st0" d="M378.8,532.61c0,2.97-2.41,5.39-5.39,5.39s-5.39-2.41-5.39-5.39c0-2.97,2.41-5.38,5.39-5.38
		S378.8,529.64,378.8,532.61"/>
	<path class="st0" d="M363.29,502.83c0,2.97-2.41,5.39-5.39,5.39s-5.39-2.41-5.39-5.39c0-2.97,2.41-5.38,5.39-5.38
		S363.29,499.86,363.29,502.83"/>
	<path class="st0" d="M184.74,502.83c0,2.97-2.41,5.39-5.39,5.39s-5.39-2.41-5.39-5.39c0-2.97,2.41-5.38,5.39-5.38
		S184.74,499.86,184.74,502.83"/>
	<path class="st0" d="M199.39,502.83c0,2.97-2.41,5.39-5.39,5.39s-5.39-2.41-5.39-5.39c0-2.97,2.41-5.38,5.39-5.38
		S199.39,499.86,199.39,502.83"/>
	<path class="st1" d="M393.26,502.83c0,2.97-2.41,5.39-5.39,5.39s-5.39-2.41-5.39-5.39c0-2.97,2.41-5.38,5.39-5.38
		S393.26,499.86,393.26,502.83"/>
	<path class="st0" d="M423.4,488.13c0,2.97-2.41,5.39-5.39,5.39s-5.39-2.41-5.39-5.39c0-2.97,2.41-5.38,5.39-5.38
		S423.4,485.15,423.4,488.13"/>
	<path class="st0" d="M438.11,488.13c0,2.97-2.41,5.39-5.39,5.39s-5.39-2.41-5.39-5.39c0-2.97,2.41-5.38,5.39-5.38
		S438.11,485.15,438.11,488.13"/>
	<path class="st0" d="M438.11,502.83c0,2.97-2.41,5.39-5.39,5.39s-5.39-2.41-5.39-5.39c0-2.97,2.41-5.38,5.39-5.38
		S438.11,499.86,438.11,502.83"/>
	<path class="st0" d="M452.94,502.83c0,2.97-2.41,5.39-5.39,5.39s-5.39-2.41-5.39-5.39c0-2.97,2.41-5.38,5.39-5.38
		S452.94,499.86,452.94,502.83"/>
	<path class="st0" d="M452.94,517.66c0,2.97-2.41,5.39-5.39,5.39s-5.39-2.41-5.39-5.39c0-2.97,2.41-5.38,5.39-5.38
		S452.94,514.69,452.94,517.66"/>
	<path class="st0" d="M467.65,532.49c0,2.97-2.41,5.39-5.39,5.39s-5.39-2.41-5.39-5.39s2.41-5.39,5.39-5.39
		S467.65,529.52,467.65,532.49"/>
	<path class="st0" d="M467.65,547.44c0,2.97-2.41,5.39-5.39,5.39s-5.39-2.41-5.39-5.39s2.41-5.39,5.39-5.39
		S467.65,544.47,467.65,547.44"/>
	<path class="st0" d="M482.72,547.44c0,2.97-2.41,5.39-5.39,5.39s-5.39-2.41-5.39-5.39s2.41-5.39,5.39-5.39
		S482.72,544.47,482.72,547.44"/>
	<path class="st0" d="M408.57,338.79c0,2.97-2.41,5.39-5.39,5.39s-5.39-2.41-5.39-5.39c0-2.97,2.41-5.38,5.39-5.38
		S408.57,335.82,408.57,338.79"/>
	<path class="st0" d="M333.43,204.37c0,2.97-2.41,5.39-5.39,5.39s-5.39-2.41-5.39-5.39c0-2.97,2.41-5.38,5.39-5.38
		S333.43,201.4,333.43,204.37"/>
</g>
</svg>
