<?xml version="1.0" encoding="utf-8"?>
<!-- Generator: Adobe Illustrator 23.0.0, SVG Export Plug-In . SVG Version: 6.00 Build 0)  -->
<svg version="1.1" id="Layer_1" xmlns="http://www.w3.org/2000/svg" xmlns:xlink="http://www.w3.org/1999/xlink" x="0px" y="0px"
	 viewBox="0 0 399.21 450.66" style="enable-background:new 0 0 399.21 450.66;" xml:space="preserve">
<style type="text/css">
	.st0{fill:#231F20;}
	.st1{fill:#F17126;}
	.st2{fill:#07505A;}
	.st3{fill:#F3D6BA;}
	.st4{fill:#FFFFFF;}
	.st5{fill:#403F40;}
	.st6{fill:#0A727E;}
</style>
<path class="st0" d="M343.03,339.75c-20.24-1.7-31.1,6.18-31.1,6.18l-2.34-4.26c0,0,20.24-14.7,47.08-2.98l5.75,3.2
	c0,0,5.75,2.13,7.88-2.34c2.13-4.47-0.85-8.09-3.62-10.01c-2.77-1.92-35.15-16.83-61.99,1.49l-6.6-12.36l4.26-2.77l-21.62-43.56
	c0,0-2.34-3.62,0.85-3.73c3.2-0.11,9.48,0,9.48,0v-30.68h-33.98l-10.76,5.54l-8.66,7.92l-6.89,19.98c0,0-3.62,9.8,2.77,12.36
	c6.39,2.56,8.36,1.26,11.64-2.99c3.28-4.25,10.3-7.24,10.3-7.24l2.13,8.31c0,0-3.62,4.26,0,9.16c3.62,4.9,4.47,17.89-7.67,23.86
	l3.62,7.24l-56.84,30.89l-14.87,3.96l-73.78-48.9l-93.09-8.73c0,0-0.85,16.19,11.93,23.43l1.7,3.83H14.96v15.34h17.05
	c0,0-17.89,22.58-19.6,43.88H26.9c0,0-2.13,12.36,1.28,22.58c0,0,0.2,0.99,0.72,2.65H18.8v15.25h17.55
	c7.61,11.09,21.73,23.24,47.2,23.24c0,0,30.03,1.22,46.06-23.24h92.83h9.8h9.8c0,0,17.04-4.26,24.28-25.14
	c0,0-4.26,16.62,6.82,13.63c0,0,7.61,1.28,5.09-14.91c-2.53-16.19,2.16-38.77,17.92-48.99l2.56,5.54c0,0-17.04,8.95-16.4,40.05
	c0.64,31.1,28.54,53.04,58.16,51.34c29.61-1.7,49.63-26.84,49.63-55.39C390.1,363.82,363.26,341.45,343.03,339.75 M122.76,405.36
	c-6.6,20.02-24.92,28.55-37.49,29.18c-12.57,0.64-47.58-6.44-43.24-44.74c4.33-38.29,43.24-37.01,43.24-37.01l-3.99,26.04
	c-17.95,5.22-8.25,24.5-8.25,24.5h50.49L122.76,405.36z M92.94,378.84l3.2-24.28c0,0,15.98,4.15,20.77,18.21h64.23v6.07H92.94z
	 M222.45,398.54v12.45h-85.99c0.63-2.19,1.19-4.47,1.63-6.91h49v-10.65c0,0,17.04-21.3,26.42-15.76
	C222.88,383.21,222.45,398.54,222.45,398.54 M343.88,434.12c-19.81,2.34-43.03-9.8-47.29-32.81c-4.26-23.01,8.52-33.44,8.52-33.44
	l10.44,18.96c-3.62,10.65,2.34,18.11,2.34,18.11c11.5,15.98,27.91,7.03,30.04,6.05c2.13-0.97,16.19-13.72,5.11-29.06
	c-11.08-15.34-25.78-7.88-25.78-7.88l-9.16-16.19c39.2-14.49,59.91,15.04,59.01,36.47C376.26,414.52,363.69,431.78,343.88,434.12"/>
<path class="st1" d="M129.15,191.49l-27.27,99.27c0,0-7.24,42.18,28.97,48.14c0,0,34.94-0.85,52.83,20.02l11.93,16.61
	c0,0-11.08,5.54-7.24,9.37c3.83,3.83,24.71,6.39,38.77,0c14.06-6.39,8.09-14.49,0-14.91c-8.1-0.43-25.99,2.98-25.99,2.98
	s5.54-19.17-14.49-36.64c0,0,39.62-2.13,37.92-37.92c-1.71-35.79-11.5-95.43-11.5-95.43L129.15,191.49z"/>
<polygon class="st2" points="105.42,277.86 224.47,290.15 218.1,203.68 129.15,191.49 "/>
<path class="st3" d="M280.28,92.47c-8.49,0.78-13.83-3.88-13.83-3.88l0.01,0.03c-23.74-33.58-69.73-45.13-107.28-25.38
	c-40.52,21.31-55.85,70.96-34.24,110.91c21.61,39.95,71.98,55.06,112.51,33.75c14.85-7.81,26.3-19.43,33.8-32.98
	c-11.39-3.12-30.91-10.41-46.78-26.24c0,0,24.92,3.37,57-12.36c0.07-6.72-0.71-13.49-2.36-20.17c6.08-2.67,9.43-6.67,10.88-10.35
	C293.22,97.61,288.77,91.69,280.28,92.47"/>
<path class="st4" d="M277.57,138.16c0,0,2.16,6.64-1.31,13.39c0,0-19.38,9.6-36,9.73c0,0-9.94-5.95-15.79-12.6
	C224.47,148.68,246.88,151.67,277.57,138.16"/>
<path class="st4" d="M231.39,97.16c0,0,7.67,9.78,21.01,3.71c0,0,1.82-5.41-5.77-15.93C246.63,84.93,238.59,82.37,231.39,97.16"/>
<path class="st0" d="M220.52,96.59c0,0-2.23-15.6,9.99-21.68c0,0,6.25-3.29,13.35-0.7l-1.42,4.61
	C242.44,78.82,226.24,72.6,220.52,96.59"/>
<path class="st5" d="M156.36,167.84c0,0,33.67,35.25,96.01,35.42l10.38-5.92l0.93-7.5c0,0-56.92,0.21-95.35-32.01L156.36,167.84z"/>
<polygon class="st5" points="158.35,112.84 265.1,58.48 246.84,51.07 150.46,103.66 "/>
<path class="st0" d="M202.54,89.61c0,0-18.88,13.28-13.37,23.46c5.51,10.18-13.58,6.52-3.48,29.13l-6.74,3.54l-20.6-32.9
	L202.54,89.61z"/>
<path class="st0" d="M150.46,103.66c0,0,39.45,41.91,30.84,65.15c0,0,0.69,12.69-32.39,26.6c-33.08,13.91-37.66,5.44-37.66,5.44
	s-60.78-38.1-47.59-111.6s82.04-85.78,82.04-85.78s62.46-9.78,100.68,40.78c0,0,5.17,5.81-4.34,10.82
	C227.25,62.85,150.46,103.66,150.46,103.66"/>
<path class="st0" d="M244.96,84.88c-2.5,0.03-4.42,0.82-5.77,1.76c0.32,1.08,0.79,2.23,1.42,3.4c2.12,3.91,5.11,6.41,6.7,5.58
	s1.14-4.68-0.97-8.59C245.9,86.24,245.44,85.53,244.96,84.88"/>
<path class="st3" d="M135.75,222.91l26.84,41.86l51.13,8.31c0,0,23.65-12.14,32.27,2.24c0,0,1.28,7.67-5.43,7.99
	c0,0,7.03,4.47,10.86,0c3.83-4.47,9.59-8.95,6.07-20.13c-3.51-11.18-12.78-13.74-25.24-10.86l-12.46,2.88l-39.3-6.39l-22.05-33.23
	c0,0-5.43-9.27-16.3-3.83C131.28,217.15,135.75,222.91,135.75,222.91"/>
<path class="st6" d="M139.8,206.4c0,0-18.32,7.24-2.77,31.53c15.55,24.29,21.32,31.53,21.32,31.53l51.67,6.82l3.64-23.75
	l-34.19-7.78l-17.88-29.41C161.58,215.33,151.09,198.94,139.8,206.4"/>
<path class="st1" d="M107.24,86.07c4.96-6.27,12.64-10.31,21.26-10.31c14.96,0,27.09,12.13,27.09,27.09c0,5.4-1.59,10.43-4.32,14.66
	h9.31c2.04-4.47,3.19-9.43,3.19-14.66c0-19.48-15.79-35.28-35.28-35.28c-13.41,0-25.07,7.48-31.04,18.49H107.24z"/>
<path class="st1" d="M120.79,128.83c-5.52-1.63-10.3-4.98-13.74-9.42h-9.72c4.51,8.47,12.37,14.87,21.81,17.46L120.79,128.83z"/>
<path class="st6" d="M149.93,119.41c-4.27,5.52-10.62,9.34-17.87,10.29l6.73-33.19l0.14-1.08c0.02-0.1,0.03-0.2,0.04-0.3l0.01-0.06
	c0-0.01,0-0.02,0-0.02c0.01-0.17,0.03-0.34,0.03-0.52c0-3.53-2.79-6.4-6.29-6.54l0.01-0.01l-0.16,0c-0.04,0-0.08-0.01-0.12-0.01
	s-0.08,0-0.11,0.01l-1.7,0l-0.01,0H66.51v2.18c0,6.21,7.26,6.37,7.26,6.37h55.53l-6.66,32.79l-0.01,0l-1.64,8.02
	c2.42,0.52,4.92,0.81,7.5,0.81c13.5,0,25.22-7.58,31.15-18.72H149.93z"/>
<path class="st6" d="M127.03,98.41H73.41l-0.06,2.14c0,6.31,7.38,6.48,7.38,6.48h44.74L127.03,98.41z"/>
<path class="st6" d="M125.14,108.89H82.31l-0.06,2.14c0,6.31,7.38,6.48,7.38,6.48h33.73L125.14,108.89z"/>
<path class="st0" d="M97.69,305.79L15.73,295.3c-3.92-0.5-6.8-3.71-6.39-7.12l12.32-104.43c0.4-3.41,3.94-5.8,7.86-5.3l81.96,10.49
	c3.92,0.5,6.8,3.71,6.39,7.12l-12.32,104.43C105.14,303.91,101.61,306.29,97.69,305.79"/>
<path class="st0" d="M101.78,190.77c0,0,32,12.31,49.57,13.58c17.57,1.27,26.23,21.67,22.43,31.04l-4.05-6.66
	c0,0,2.88-4.23-3.81-12.32c-6.69-8.09-18.06-7.26-24.68-8.3c-6.62-1.04-30.15-6.72-39.54-11.63L101.78,190.77z"/>
<polygon class="st0" points="101.4,279.58 148.25,252.11 148.95,255.67 101.34,284.33 "/>
<polygon class="st1" points="34.47,179.63 20.42,295.9 91.93,305.05 105.77,188.48 "/>
</svg>
